<?xml version="1.0" encoding="UTF-8"?>
<svg version="1.1" xmlns="http://www.w3.org/2000/svg" width="800" height="800">
<path d="M0 0 C5.25344432 2.42466661 7.01697104 5.3214289 9.18847656 10.41943359 C10.5650741 14.79688123 10.42342871 19.01666672 10.25 23.5625 C10.23195313 24.47580078 10.21390625 25.38910156 10.1953125 26.33007812 C10.14872701 28.55453514 10.08335485 30.77666967 10 33 C11.94169823 32.99666908 11.94169823 32.99666908 13.92262268 32.99327087 C30.80257369 32.96532042 47.68252985 32.94791336 64.5625 32.9375 C65.24596261 32.9370657 65.92942521 32.93663139 66.6335988 32.93618393 C109.82096351 32.9094955 153.00200022 33.07717293 196.1875 33.5 C198.02054121 33.51793673 198.02054121 33.51793673 199.89061356 33.53623581 C214.59385074 33.68098789 229.29697452 33.83516446 244 34 C243.99655579 33.17789032 243.99311157 32.35578064 243.98956299 31.50875854 C243.98688416 30.4293399 243.98420532 29.34992126 243.98144531 28.23779297 C243.9780011 27.16818329 243.97455688 26.09857361 243.9710083 24.99655151 C244.04629182 17.21532597 244.52155649 8.93498046 250 3 C253.26101527 0.24625377 255.26411399 -0.89487343 259.5 -1.5 C263.67894812 -0.90300741 265.72209308 0.37767447 269 3 C269.7425 3.53625 270.485 4.0725 271.25 4.625 C275.72413176 10.69703596 275.10647321 18.63546976 275.046875 25.86328125 C275.04349121 26.6478772 275.04010742 27.43247314 275.03662109 28.24084473 C275.02785183 30.16058193 275.01440278 32.08029679 275 34 C275.55773102 33.99555878 276.11546204 33.99111755 276.69009399 33.98654175 C282.56387739 33.94184383 288.43761147 33.91194364 294.31152344 33.89013672 C296.49546271 33.88015998 298.67938892 33.86657379 300.86328125 33.84912109 C339.07883226 33.55165572 339.07883226 33.55165572 352.75 45.9375 C365.90479877 60.88628045 366.25764911 74.50504919 366.4375 93.75 C366.49059942 96.41835338 366.5467624 99.08645994 366.60717773 101.75463867 C366.72493496 107.19412213 366.81784386 112.63345119 366.88964844 118.07373047 C366.98698011 125.4471398 367.12995319 132.8190892 367.2890625 140.19140625 C367.42428166 146.52230518 367.55839118 152.85302845 367.65991211 159.18457031 C367.832784 169.90136699 368.10574438 180.60971934 368.47045898 191.32177734 C368.97594991 206.5057371 369.34566235 221.69127557 369.67424965 236.88010812 C369.75121438 240.41816316 369.83023751 243.9561723 369.90905762 247.4941864 C370.09115395 255.68159025 370.27101581 263.86904234 370.45052338 272.0565033 C370.72553576 284.59630476 371.00209212 297.13607136 371.28125 309.67578125 C371.29704896 310.38654509 371.31284792 311.09730893 371.32912564 311.82961106 C371.70871348 328.89609482 372.11389427 345.96060842 372.64598083 363.02310181 C373.18935897 380.67875261 373.55552024 398.33887813 373.92993164 415.9987793 C374.01713868 420.10138957 374.10737455 424.20391498 374.20043945 428.30639648 C374.45248961 439.45749417 374.675725 450.60824692 374.84279823 461.76096916 C374.94067354 468.08849315 375.08538647 474.41321155 375.2573595 480.73913479 C375.36486919 485.00760276 375.43716374 489.27621182 375.50155449 493.5455265 C375.53893878 495.55617362 375.5903711 497.56661965 375.6573658 499.57649803 C376.1676863 515.25749825 373.41845433 526.8043442 362.48779297 538.63745117 C361.78227295 539.34285034 361.78227295 539.34285034 361.0625 540.0625 C360.55090332 540.59141846 360.03930664 541.12033691 359.51220703 541.6652832 C345.13660716 556.16887576 327.4895559 555.0629865 308.13232422 555.55419922 C307.32372696 555.57516151 306.51512969 555.59612381 305.68202949 555.61772132 C277.90528592 556.30898395 250.10986425 556.14657402 222.32635755 556.13530041 C216.4772945 556.13298901 210.62823436 556.13274113 204.77917099 556.13381577 C203.93546517 556.133969 203.09175936 556.13412223 202.2224867 556.13428011 C200.50652036 556.13459995 198.79055402 556.13492417 197.07458769 556.1352527 C181.10416615 556.13808227 165.13375041 556.13486144 149.16332982 556.12945233 C135.5847951 556.12499485 122.00626894 556.12575648 108.42773438 556.13037109 C92.51630224 556.1357763 76.60487516 556.13779933 60.69344223 556.13475883 C58.98195704 556.13444041 57.27047185 556.13412604 55.55898666 556.13381577 C54.71774779 556.13366149 53.87650891 556.13350721 53.00977794 556.13334826 C47.20140386 556.13250013 41.39303314 556.13393113 35.58465958 556.13629532 C5.67050425 556.14726407 -24.24235704 556.14739003 -54.15283203 555.61669922 C-55.64911247 555.59398622 -55.64911247 555.59398622 -57.17562079 555.57081437 C-77.4907971 555.24820394 -93.0481812 554.30421857 -108 539 C-115.6243571 530.93064151 -121.10931645 519.74516054 -121.13435364 508.47158813 C-121.13845308 507.5680019 -121.14255253 506.66441566 -121.1467762 505.73344803 C-121.14579367 504.74971584 -121.14481113 503.76598366 -121.14379883 502.75244141 C-121.14604902 501.71221203 -121.14829922 500.67198265 -121.1506176 499.60023117 C-121.15513429 496.14230865 -121.15066479 492.68448176 -121.14453125 489.2265625 C-121.14358774 488.02526325 -121.14264423 486.823964 -121.14167213 485.58626175 C-121.11294932 460.64821009 -120.56914541 435.73344179 -119.88909912 410.8059082 C-119.54792178 398.29719514 -119.23215228 385.78781599 -118.91633415 373.27844143 C-118.86315647 371.17475122 -118.80973189 369.07106738 -118.75627136 366.96738434 C-118.1588763 343.4197023 -117.64371257 319.87074937 -117.16796875 296.3203125 C-117.15116334 295.48882045 -117.13435792 294.65732841 -117.11704326 293.80063963 C-116.78524556 277.36616926 -116.46130931 260.93154506 -116.1402151 244.49686247 C-115.99146918 236.88426418 -115.84204908 229.27167936 -115.69169307 221.65911269 C-115.66291881 220.20205048 -115.63417826 218.7449876 -115.60547185 217.28792405 C-115.25498588 199.5098113 -114.86816013 181.73431744 -114.32174683 163.96101379 C-113.88643811 149.72166192 -113.66334475 135.47970283 -113.44775391 121.2355957 C-113.26590033 109.41261046 -113.04478787 97.59844251 -112.515625 85.78515625 C-112.47618774 84.89930344 -112.43675049 84.01345062 -112.39611816 83.10075378 C-111.60244161 66.67684338 -108.53556124 54.54067543 -96 43 C-83.85383688 33.89977872 -70.31425956 33.82439135 -55.64453125 33.90234375 C-54.10305672 33.90446617 -54.10305672 33.90446617 -52.53044128 33.90663147 C-49.29109621 33.91216934 -46.05182371 33.9247097 -42.8125 33.9375 C-40.5983083 33.94252305 -38.3841155 33.94708454 -36.16992188 33.95117188 C-30.77992372 33.96211831 -25.38996705 33.9787931 -20 34 C-20.01160156 32.72125 -20.02320313 31.4425 -20.03515625 30.125 C-20.04454269 28.41666814 -20.05364197 26.70833468 -20.0625 25 C-20.07087891 24.16082031 -20.07925781 23.32164062 -20.08789062 22.45703125 C-20.14178475 8.55234777 -20.14178475 8.55234777 -17.51171875 4.9765625 C-16.60873047 4.30753906 -16.60873047 4.30753906 -15.6875 3.625 C-15.09324219 3.16351563 -14.49898438 2.70203125 -13.88671875 2.2265625 C-9.048577 -0.91873048 -5.68095901 -1.46959171 0 0 Z M-22 64 C-25.57668493 67.78707816 -26.32881982 70.67375601 -26.5 75.875 C-26.26571372 82.17730104 -24.94757821 86.91844096 -20.5390625 91.52734375 C-14.59494626 96.73221711 -10.02590662 97.50940426 -2.265625 97.37890625 C3.87498244 96.6664195 7.76272992 93.54628459 11.875 89.125 C15.80903143 83.33965967 16.54041648 77.80924759 16 71 C14.84237864 67.5969415 14.84237864 67.5969415 13 65 C12.01 64.67 11.02 64.34 10 64 C9.90203125 65.08539063 9.8040625 66.17078125 9.703125 67.2890625 C9.55295324 68.73446565 9.40186268 70.17977353 9.25 71.625 C9.1571875 72.69427734 9.1571875 72.69427734 9.0625 73.78515625 C8.43526606 79.48253121 6.72860869 83.5639694 2.32421875 87.49609375 C-0.92024585 89.36224165 -2.7173991 90 -6.5625 90 C-11.74699105 88.49178442 -14.89691824 86.7497159 -17.8125 82.125 C-19.94200776 76.42543512 -19.75823902 70.0106781 -20 64 C-20.66 64 -21.32 64 -22 64 Z M244 63 C240.10132866 66.61661799 240.10132866 66.61661799 238.796875 71.57421875 C238.67816015 79.4588631 239.42546419 84.04624858 243.75 90.6875 C248.65216874 95.7258401 252.42457773 97.27626236 259.375 97.625 C265.99624681 97.39668114 270.28943847 95.66149318 275 91 C279.92957295 84.70768453 281.79032946 78.96915539 281 71 C280.21009829 68.47874397 279.20808718 66.36583739 278 64 C277.01 64.33 276.02 64.66 275 65 C274.76216797 66.73636719 274.76216797 66.73636719 274.51953125 68.5078125 C274.28489385 70.04703385 274.04915833 71.58608808 273.8125 73.125 C273.71130859 73.88554687 273.61011719 74.64609375 273.50585938 75.4296875 C272.50586763 81.69990601 270.36728305 85.5306591 265.125 89.375 C260.42328643 90.75785693 257.06928681 90.57576982 252.75 88.25 C248.48739736 84.76241602 246.83318553 82.42328038 246 77 C245.93347145 74.73004581 245.91456249 72.45831305 245.9375 70.1875 C245.94652344 69.02605469 245.95554687 67.86460937 245.96484375 66.66796875 C245.97644531 65.78753906 245.98804688 64.90710938 246 64 C245.34 63.67 244.68 63.34 244 63 Z M-8.59707117 151.4139123 C-11.35289067 151.44497523 -14.10872232 151.47466812 -16.86455917 151.50414658 C-21.13253831 151.55045463 -25.40042426 151.60193067 -29.66828871 151.6578002 C-31.21009656 151.67752614 -32.7519218 151.69594793 -34.29376268 151.71289682 C-50.88189059 150.87074915 -50.88189059 150.87074915 -65.05078125 157.625 C-65.69402344 158.40875 -66.33726562 159.1925 -67 160 C-67.73189972 160.87915548 -67.73189972 160.87915548 -68.4785853 161.77607167 C-73.31139138 168.17159891 -73.83814072 173.20957752 -73.69029236 181.07785034 C-73.69204092 182.26861526 -73.69378948 183.45938017 -73.69559103 184.68622887 C-73.69436658 187.97047882 -73.66626612 191.25319691 -73.62650979 194.53716469 C-73.59017077 198.08743978 -73.5888782 201.63775415 -73.58319092 205.18818665 C-73.56663885 212.13791597 -73.51824421 219.08707522 -73.45939957 226.0365607 C-73.39214716 234.14543098 -73.35842767 242.25433839 -73.32645983 250.36341192 C-73.26838962 264.84857743 -73.18273678 279.33344482 -73.08032227 293.81835938 C-72.98124364 307.83816043 -72.89723048 321.85792764 -72.83227539 335.87792969 C-72.82827746 336.74001222 -72.82427952 337.60209475 -72.82016044 338.490301 C-72.80413033 341.95671766 -72.78816372 345.4231346 -72.77229166 348.88955199 C-72.70323076 363.90929171 -72.62350988 378.9289788 -72.54067507 393.94864827 C-72.53178236 395.56194531 -72.52293141 397.17524257 -72.5141221 398.78854007 C-72.45935536 408.80573524 -72.39906392 418.82286935 -72.32926941 428.83997154 C-72.31002424 431.62171449 -72.29272537 434.40345767 -72.2773304 437.18522453 C-72.18048173 455.03257684 -72.18048173 455.03257684 -71.60621643 472.86941528 C-71.57650346 473.60659881 -71.54679048 474.34378233 -71.51617712 475.10330474 C-71.21499686 480.64481421 -70.70008462 486.00933117 -67.01171875 490.328125 C-66.24472656 490.96234375 -65.47773438 491.5965625 -64.6875 492.25 C-63.92824219 492.89453125 -63.16898438 493.5390625 -62.38671875 494.203125 C-57.95395037 497.54039743 -54.97382448 499.3753704 -49.32600117 499.3719368 C-48.18749315 499.37852664 -47.04898512 499.38511649 -45.87597686 499.39190602 C-44.6297202 499.38384962 -43.38346354 499.37579321 -42.09944153 499.36749268 C-40.75817115 499.36951743 -39.41690222 499.37285726 -38.075638 499.37739825 C-34.38996505 499.38605076 -30.70454391 499.37597608 -27.01889288 499.36285591 C-23.04214621 499.35196104 -19.06542288 499.35837107 -15.08866882 499.36264038 C-7.2900324 499.36828039 0.50850583 499.35794081 8.30712553 499.34235242 C17.41588598 499.32478703 26.52462752 499.32339239 35.63340227 499.32273683 C51.9225334 499.32104711 68.21162012 499.30522478 84.50073242 499.28125 C100.23999398 499.25810177 115.97922741 499.24384083 131.71850586 499.24023438 C133.16626268 499.23990022 133.16626268 499.23990022 134.64326712 499.23955932 C136.58816354 499.23911666 138.53305995 499.23867463 140.47795637 499.23823325 C141.43781617 499.23801369 142.39767597 499.23779412 143.38662243 499.2375679 C144.82319316 499.23724392 144.82319316 499.23724392 146.28878553 499.2369134 C161.3571759 499.23318474 176.42556183 499.22181712 191.49394723 499.2094375 C196.91910059 499.20503998 202.34425354 499.20158624 207.76940795 499.19881538 C216.4044643 499.19432811 225.0395042 499.18637434 233.67455026 499.17204097 C237.60984264 499.16555388 241.54512115 499.1603883 245.48041916 499.15958023 C255.32088815 499.15664496 265.16017582 499.11710528 275 499 C275.75782297 498.99098974 276.51564594 498.98197948 277.29643324 498.97269619 C282.00838418 498.91290737 286.7193601 498.83164105 291.43050311 498.72572646 C292.91828553 498.6939542 294.40617475 498.66679049 295.89413127 498.64462224 C297.95560496 498.61236991 300.01584143 498.56160437 302.07680225 498.50605392 C303.24768951 498.48089541 304.41857677 498.4557369 305.62494546 498.42981601 C312.18595459 497.59426603 316.60380696 495.0067754 321 490 C321.5775 489.360625 322.155 488.72125 322.75 488.0625 C326.19891132 482.37179633 325.34823101 474.09402081 325.55419922 467.63671875 C325.58564266 466.66024163 325.58564266 466.66024163 325.61772132 465.6640377 C326.32886629 442.71930006 326.14579484 419.75201769 326.1343255 396.79925156 C326.13279805 392.7744204 326.13289175 388.74959312 326.13381577 384.72476196 C326.133969 384.04962297 326.13412223 383.37448398 326.13428011 382.67888623 C326.13459994 381.30593546 326.13492416 379.93298469 326.1352527 378.56003392 C326.13808166 365.7858526 326.1348615 353.01167853 326.12945233 340.2374984 C326.12498667 329.35591979 326.12576334 318.47435186 326.13037109 307.59277344 C326.13576305 294.85389246 326.13780721 282.11501779 326.13475883 269.37613583 C326.13444039 268.0091699 326.13412602 266.64220397 326.13381577 265.27523804 C326.13366149 264.60324539 326.13350721 263.93125273 326.13334826 263.23889667 C326.13249686 258.57882878 326.13396672 253.91876511 326.13629532 249.25869751 C326.19922326 215.87003283 326.19922326 215.87003283 325.61669922 182.48828125 C325.58635653 181.29107956 325.55601383 180.09387787 325.52475166 178.86039734 C325.2239333 167.32883209 325.2239333 167.32883209 319.625 157.625 C309.59506094 148.87006904 291.68547087 151.54291946 279.1171875 151.3828125 C277.87946468 151.36437412 276.64174187 151.34593575 275.3665123 151.32693863 C234.36949985 150.72146038 193.36264764 150.84981568 152.36237311 150.87142968 C144.44535376 150.87517731 136.528347 150.8738628 128.61132812 150.86962891 C82.87337295 150.84584509 37.13840987 150.89402115 -8.59707117 151.4139123 Z " fill="#898989" transform="translate(273,237)"/>
<path d="M0 0 C4.84345491 1.75150768 8.89621226 4.50188833 13.17578125 7.3359375 C15.14824425 8.61748499 17.12090619 9.89872632 19.09375 11.1796875 C20.10099121 11.83839844 21.10823242 12.49710938 22.14599609 13.17578125 C26.90015248 16.27115462 31.69563729 19.30065259 36.48828125 22.3359375 C42.99117606 26.4668654 49.47033869 30.6313213 55.92578125 34.8359375 C61.61727708 38.54009817 67.3695 42.12710455 73.17578125 45.6484375 C79.68785741 49.5978136 86.11591925 53.65422049 92.49780273 57.81030273 C105.26584843 66.12352703 118.13914401 74.2752285 131.07202148 82.3293457 C139.52477765 87.60101427 147.91607051 92.96980902 156.31591797 98.32519531 C160.99726424 101.30968344 165.6799747 104.29202657 170.36328125 107.2734375 C171.27803223 107.85577148 172.1927832 108.43810547 173.13525391 109.03808594 C178.97464688 112.75340102 184.82204124 116.45577548 190.67578125 120.1484375 C204.17585614 128.66632493 217.66398564 137.20331216 231.05078125 145.8984375 C238.25434351 150.57431596 245.51951015 155.14372508 252.81298828 159.67773438 C257.60518311 162.66060084 262.38965257 165.65585148 267.17578125 168.6484375 C269.25908741 169.95056431 271.34242022 171.25264848 273.42578125 172.5546875 C277.42578125 175.0546875 277.42578125 175.0546875 281.42578125 177.5546875 C282.72890333 178.3691388 284.03212124 179.18343682 285.33544922 179.99755859 C286.5540297 180.75961595 287.7718156 181.52294549 288.98876953 182.28759766 C293.11247929 184.87521216 297.25991815 187.42100271 301.41796875 189.953125 C303.62890625 191.30989583 305.83984375 192.66666667 308.05078125 194.0234375 C309.11683594 194.66667969 310.18289063 195.30992187 311.28125 195.97265625 C312.77205078 196.89111328 312.77205078 196.89111328 314.29296875 197.828125 C315.63270752 198.64385986 315.63270752 198.64385986 316.99951172 199.47607422 C319.32303985 201.26159898 320.37059606 202.33266952 321.17578125 205.1484375 C320.55517578 206.94995117 320.55517578 206.94995117 319.30859375 208.81640625 C318.84316162 209.53199707 318.37772949 210.24758789 317.89819336 210.98486328 C317.37104736 211.76071777 316.84390137 212.53657227 316.30078125 213.3359375 C315.17940482 215.04538752 314.05832658 216.75503317 312.9375 218.46484375 C312.3295459 219.38023926 311.7215918 220.29563477 311.09521484 221.23876953 C308.40476433 225.31722148 305.78397375 229.43884728 303.15966797 233.56005859 C296.21955037 244.45791445 289.21128195 255.31197773 282.17578125 266.1484375 C276.03684001 263.23349401 270.45309583 259.84820016 264.80078125 256.0859375 C258.20032732 251.74124175 251.56094267 247.49046003 244.80078125 243.3984375 C238.4909081 239.57468431 232.25213155 235.66605604 226.05859375 231.65625 C214.1349821 223.93872263 202.1302886 216.34325594 190.07592773 208.83178711 C182.5578462 204.14574847 175.07317312 199.40698067 167.5859375 194.671875 C165.23131961 193.18354279 162.87563695 191.6969131 160.51953125 190.2109375 C151.12371757 184.28411945 141.74433865 178.33207158 132.37451172 172.36425781 C123.32348845 166.60148163 114.25159548 160.87206201 105.17578125 155.1484375 C94.22707531 148.24368162 83.29221714 141.31794364 72.37451172 134.36425781 C64.08978574 129.08938223 55.78775283 123.84228037 47.48046875 118.60302734 C44.42122838 116.67220593 41.36459938 114.73726979 38.30786133 112.80249023 C35.977712 111.3292551 33.64527691 109.85969528 31.3125 108.390625 C27.47297059 105.97198784 23.64560186 103.53483967 19.8203125 101.09375 C17.64729559 99.7158932 15.47412036 98.33828604 13.30078125 96.9609375 C12.27186768 96.30053467 11.2429541 95.64013184 10.18286133 94.9597168 C9.21372803 94.34781494 8.24459473 93.73591309 7.24609375 93.10546875 C6.38773926 92.55866455 5.52938477 92.01186035 4.64501953 91.44848633 C2.05427774 90.08446615 0.0924215 89.38773942 -2.82421875 89.1484375 C-4.70557869 89.79391144 -4.70557869 89.79391144 -6.36328125 91.03515625 C-7.01603027 91.4727124 -7.6687793 91.91026855 -8.34130859 92.36108398 C-9.03691895 92.84778564 -9.7325293 93.3344873 -10.44921875 93.8359375 C-11.97438662 94.86327757 -13.50046167 95.8892719 -15.02734375 96.9140625 C-15.81689453 97.44966797 -16.60644531 97.98527344 -17.41992188 98.53710938 C-21.29542122 101.13441803 -25.24655063 103.60831635 -29.19921875 106.0859375 C-30.80745731 107.09869534 -32.4155294 108.11171758 -34.0234375 109.125 C-35.21912354 109.87765137 -35.21912354 109.87765137 -36.43896484 110.64550781 C-38.76311039 112.1099336 -41.08510664 113.57769619 -43.40625 115.046875 C-51.20255818 119.98055406 -59.01132289 124.89294612 -66.84106445 129.7734375 C-75.56937994 135.21432288 -84.26723194 140.69156051 -92.88647461 146.30371094 C-98.04423108 149.65784242 -103.24791604 152.9316259 -108.47265625 156.18017578 C-114.11498373 159.69298847 -119.72148354 163.26038726 -125.32421875 166.8359375 C-133.1313107 171.81607758 -140.96587108 176.74959527 -148.82421875 181.6484375 C-158.44950303 187.64958288 -168.030549 193.71693317 -177.59375 199.81640625 C-182.49477481 202.94163211 -187.4073664 206.04818926 -192.32421875 209.1484375 C-199.23223175 213.50444105 -206.12486427 217.88406575 -213.01171875 222.2734375 C-219.96556304 226.70423745 -226.93430753 231.10885139 -233.93188477 235.47021484 C-238.94765367 238.59720845 -243.951433 241.74278267 -248.94921875 244.8984375 C-249.72547607 245.38820068 -250.5017334 245.87796387 -251.30151367 246.38256836 C-255.81677263 249.2352515 -260.32084431 252.104648 -264.81640625 254.98828125 C-266.3166333 255.94879395 -266.3166333 255.94879395 -267.84716797 256.92871094 C-269.80110219 258.1804851 -271.75331192 259.43495602 -273.70361328 260.69238281 C-274.58903809 261.25924805 -275.47446289 261.82611328 -276.38671875 262.41015625 C-277.17175781 262.91506592 -277.95679688 263.41997559 -278.765625 263.94018555 C-280.82421875 265.1484375 -280.82421875 265.1484375 -283.82421875 266.1484375 C-291.64429563 254.11509471 -299.38102701 242.03048106 -307.06787109 229.91162109 C-308.81026357 227.17039257 -310.56053802 224.43433882 -312.3125 221.69921875 C-313.39983431 219.99485209 -314.48707808 218.29042768 -315.57421875 216.5859375 C-316.0755835 215.80686035 -316.57694824 215.0277832 -317.09350586 214.22509766 C-319.3841746 210.62302604 -321.43853951 207.2168562 -322.82421875 203.1484375 C-315.38457333 197.34687915 -307.54824609 192.50845884 -299.43896484 187.71606445 C-294.2575171 184.64202178 -289.18159674 181.47262536 -284.19921875 178.0859375 C-278.97275559 174.53761873 -273.66650958 171.16887117 -268.26171875 167.8984375 C-258.58215078 162.04022012 -249.05257784 155.95650932 -239.51855469 149.86523438 C-235.35932757 147.21502731 -231.18526889 144.58850578 -227.01171875 141.9609375 C-221.19207911 138.29454051 -215.4012567 134.58830588 -209.63671875 130.8359375 C-200.75079244 125.05643886 -191.75320196 119.45854135 -182.7578125 113.8515625 C-175.19068084 109.13382045 -167.6536241 104.36896498 -160.11865234 99.60009766 C-156.18875913 97.11370214 -152.25631926 94.63134016 -148.32421875 92.1484375 C-146.73697525 91.14583953 -145.14973566 90.14323538 -143.5625 89.140625 C-140.43554389 87.16563772 -137.30789492 85.19175464 -134.1796875 83.21875 C-125.71657416 77.87960467 -117.26429298 72.52393909 -108.82421875 67.1484375 C-95.85371626 58.88915841 -82.86379008 50.66298053 -69.81469727 42.52832031 C-61.1606057 37.13282212 -52.53352676 31.70557572 -43.98608398 26.14257812 C-37.98024742 22.23686197 -31.93904166 18.38876349 -25.8671875 14.58642578 C-21.9718394 12.14702019 -18.1022018 9.68161018 -14.27734375 7.1328125 C-13.19755249 6.42523804 -13.19755249 6.42523804 -12.09594727 5.70336914 C-10.74619992 4.81781978 -9.40484001 3.91929617 -8.07397461 3.00561523 C-5.34201432 1.23200753 -3.27686691 0.17222814 0 0 Z " fill="#7C7C7C" transform="translate(400.82421875,7.8515625)"/>
<path d="M0 0 C10.41342925 -0.02312359 20.82685244 -0.04091517 31.24030209 -0.05181217 C36.07516827 -0.05704097 40.91001694 -0.06413854 45.74487305 -0.07543945 C50.4067712 -0.08626847 55.06865246 -0.09227686 59.73056221 -0.09487724 C61.51324288 -0.09673147 63.29592259 -0.10035203 65.07859612 -0.10573006 C67.5666596 -0.11294069 70.05465243 -0.11399093 72.54272461 -0.11352539 C73.28718842 -0.11712067 74.03165222 -0.12071594 74.79867554 -0.12442017 C79.88594784 -0.11405216 79.88594784 -0.11405216 81 1 C81.09504251 3.52541002 81.12557158 6.02337126 81.11352539 8.54907227 C81.11367142 9.33925751 81.11381744 10.12944275 81.1139679 10.943573 C81.11326857 13.56787822 81.10547527 16.19211336 81.09765625 18.81640625 C81.09579214 20.63101665 81.0943682 22.44562756 81.09336853 24.26023865 C81.08954279 29.0459023 81.07971204 33.8315358 81.06866455 38.6171875 C81.05845163 43.49674064 81.05387117 48.37629864 81.04882812 53.25585938 C81.03808982 62.83725286 81.02101273 72.41862393 81 82 C76.70834918 81.25388609 74.0271534 79.97157153 70.38671875 77.53515625 C69.31196289 76.82270752 68.23720703 76.11025879 67.12988281 75.3762207 C66.56805298 74.99857574 66.00622314 74.62093079 65.42736816 74.23184204 C63.07731317 72.65240162 60.7158641 71.09040638 58.35470581 69.52763367 C57.18106964 68.75073973 56.00799085 67.9730031 54.83547974 67.19441223 C50.51638046 64.32890435 46.15952779 61.53625724 41.75 58.8125 C35.39088421 54.87347324 29.06335524 50.887032 22.75 46.875 C21.4192041 46.03159058 21.4192041 46.03159058 20.06152344 45.17114258 C18.34301943 44.07808375 16.63485292 42.96854287 14.93920898 41.84034729 C12.0297108 39.9441219 12.0297108 39.9441219 8.87188721 38.48904419 C5.33991259 36.61799091 2.74681838 34.91986324 0 32 C-1.48166349 26.42456102 -1.14843459 21.20838992 -0.75 15.5 C-0.68972243 13.99500516 -0.63498407 12.4897777 -0.5859375 10.984375 C-0.45450349 7.31803605 -0.24801969 3.66051632 0 0 Z " fill="#7C7C7C" transform="translate(580,82)"/>
<path d="M0 0 C3.1965498 0.46551696 5.0745471 1.08751534 7.4140625 3.3515625 C8.2265625 6.5390625 8.2265625 6.5390625 8.4140625 9.3515625 C4.4540625 9.0215625 0.4940625 8.6915625 -3.5859375 8.3515625 C-4.2459375 9.6715625 -4.9059375 10.9915625 -5.5859375 12.3515625 C-4.83828125 12.36574219 -4.090625 12.37992188 -3.3203125 12.39453125 C4.66556945 12.78128208 4.66556945 12.78128208 8.0390625 15.3515625 C10.14214811 19.94011293 11.36514828 24.44235893 9.75 29.3828125 C7.71441484 33.28848809 5.49445883 35.73838256 1.4140625 37.3515625 C-3.56515863 37.88505048 -6.65132126 37.52111447 -10.5859375 34.3515625 C-15.05187619 28.1311479 -15.15016502 21.79735072 -14.5859375 14.3515625 C-12.70693771 5.35723261 -9.93222843 -0.55667357 0 0 Z M-3.5859375 19.3515625 C-4.84542799 20.38562923 -4.84542799 20.38562923 -4.68359375 22.63671875 C-4.67199219 23.55324219 -4.66039062 24.46976563 -4.6484375 25.4140625 C-4.63941406 26.33316406 -4.63039063 27.25226562 -4.62109375 28.19921875 C-4.60949219 28.90949219 -4.59789062 29.61976563 -4.5859375 30.3515625 C-2.13369056 30.24542414 -2.13369056 30.24542414 0.4140625 29.3515625 C2.09184562 27.15737813 2.09184562 27.15737813 2.4140625 24.3515625 C1.3670314 21.49467921 1.3670314 21.49467921 -0.5859375 19.3515625 C-1.5759375 19.3515625 -2.5659375 19.3515625 -3.5859375 19.3515625 Z " fill="#898989" transform="translate(569.5859375,525.6484375)"/>
<path d="M0 0 C3.61843463 3.43751289 4.84501656 6.35717551 5.3125 11.3125 C4.88357437 16.37382247 3.12403648 19.20237447 -0.75390625 22.484375 C-5.48419944 26 -5.48419944 26 -8 26 C-8 26.66 -8 27.32 -8 28 C-7.30132813 27.98839844 -6.60265625 27.97679687 -5.8828125 27.96484375 C-4.97273437 27.95582031 -4.06265625 27.94679688 -3.125 27.9375 C-1.76761719 27.92009766 -1.76761719 27.92009766 -0.3828125 27.90234375 C2 28 2 28 4 29 C4.04241723 31.33294775 4.04092937 33.66702567 4 36 C1.92898212 38.07101788 -2.34201959 37.18513468 -5.1875 37.1875 C-5.94353516 37.19974609 -6.69957031 37.21199219 -7.47851562 37.22460938 C-12.05194624 37.23650902 -15.69402494 36.73749871 -20 35 C-19.60791281 29.64147506 -17.6642613 25.85831875 -14 22 C-13.34 22 -12.68 22 -12 22 C-12 21.34 -12 20.68 -12 20 C-11.34 20 -10.68 20 -10 20 C-8.49439503 17.14589666 -7.36783204 14.31875358 -6.375 11.25 C-6.11460937 10.45078125 -5.85421875 9.6515625 -5.5859375 8.828125 C-5.39257812 8.22484375 -5.19921875 7.6215625 -5 7 C-8.82470326 8.23780318 -8.82470326 8.23780318 -11.5 11.125 C-13 13 -13 13 -15.625 13.3125 C-18 13 -18 13 -19 12 C-18.88553362 6.04774849 -18.88553362 6.04774849 -16.69921875 3.4609375 C-11.30704751 -1.11504901 -6.6803698 -1.78787474 0 0 Z " fill="#898989" transform="translate(575,461)"/>
<path d="M0 0 C0.74362793 0.01047363 1.48725586 0.02094727 2.25341797 0.03173828 C3.46191406 0.04140625 3.46191406 0.04140625 4.69482422 0.05126953 C5.95746094 0.07640625 5.95746094 0.07640625 7.24560547 0.10205078 C8.51984375 0.11558594 8.51984375 0.11558594 9.81982422 0.12939453 C11.9202043 0.15299431 14.02043991 0.18886595 16.12060547 0.22705078 C17.24560547 5.00048828 17.24560547 5.00048828 16.12060547 7.03955078 C13.15497295 8.80039509 10.50883651 8.34805903 7.12060547 8.22705078 C6.13060547 8.55705078 5.14060547 8.88705078 4.12060547 9.22705078 C3.79060547 10.21705078 3.46060547 11.20705078 3.12060547 12.22705078 C3.73548828 12.21544922 4.35037109 12.20384766 4.98388672 12.19189453 C5.79212891 12.18287109 6.60037109 12.17384766 7.43310547 12.16455078 C8.63386719 12.14714844 8.63386719 12.14714844 9.85888672 12.12939453 C12.12060547 12.22705078 12.12060547 12.22705078 15.12060547 13.22705078 C15.12060547 13.88705078 15.12060547 14.54705078 15.12060547 15.22705078 C15.78060547 15.22705078 16.44060547 15.22705078 17.12060547 15.22705078 C18.92644012 20.83942897 19.66915821 25.02325305 17.15966797 30.50048828 C15.49383712 33.268523 13.94803826 34.65625479 11.12060547 36.22705078 C4.98399545 37.7117145 1.61801526 37.30560027 -3.87939453 34.22705078 C-6.03133823 30.99913523 -6.08025896 29.94304269 -5.87939453 26.22705078 C-3.69189453 25.53955078 -3.69189453 25.53955078 -0.87939453 25.22705078 C0.81574684 26.17798375 2.48428655 27.1781284 4.12060547 28.22705078 C5.44060547 28.22705078 6.76060547 28.22705078 8.12060547 28.22705078 C8.12060547 25.25705078 8.12060547 22.28705078 8.12060547 19.22705078 C1.68560547 19.72205078 1.68560547 19.72205078 -4.87939453 20.22705078 C-4.76580977 17.2678688 -4.63906367 14.31028295 -4.50439453 11.35205078 C-4.47345703 10.51029297 -4.44251953 9.66853516 -4.41064453 8.80126953 C-4.37197266 7.99560547 -4.33330078 7.18994141 -4.29345703 6.35986328 C-4.26203613 5.61623535 -4.23061523 4.87260742 -4.19824219 4.10644531 C-3.74042095 1.40789408 -2.73631997 0.33057646 0 0 Z " fill="#898989" transform="translate(407.87939453125,592.77294921875)"/>
<path d="M0 0 C3.01352106 1.43173511 5.46797808 2.93595617 7 6 C7.55507299 11.77275915 6.64057481 14.51929254 3 19 C0.77225631 21.45101422 -1.45201529 23.87877135 -4 26 C-4.66 26 -5.32 26 -6 26 C-6 26.66 -6 27.32 -6 28 C-5.14535156 28.06058594 -4.29070312 28.12117187 -3.41015625 28.18359375 C-2.30542969 28.26738281 -1.20070312 28.35117187 -0.0625 28.4375 C1.59072266 28.55931641 1.59072266 28.55931641 3.27734375 28.68359375 C6 29 6 29 7 30 C7.04063832 31.66617115 7.042721 33.33388095 7 35 C4.57108818 36.21445591 2.99280557 36.12924198 0.28125 36.1328125 C-0.65074219 36.13410156 -1.58273438 36.13539063 -2.54296875 36.13671875 C-3.51878906 36.13285156 -4.49460938 36.12898437 -5.5 36.125 C-6.96373047 36.13080078 -6.96373047 36.13080078 -8.45703125 36.13671875 C-9.85501953 36.13478516 -9.85501953 36.13478516 -11.28125 36.1328125 C-12.13783203 36.13168457 -12.99441406 36.13055664 -13.87695312 36.12939453 C-16 36 -16 36 -18 35 C-17.87506002 29.00288073 -16.0406935 26.42969247 -11.98828125 22.1171875 C-9.90679265 19.90074974 -7.96892381 17.6184695 -6.0625 15.25 C-5.47597656 14.53328125 -4.88945312 13.8165625 -4.28515625 13.078125 C-2.6493538 10.84023187 -2.6493538 10.84023187 -3 7 C-4.65 7 -6.3 7 -8 7 C-8.226875 7.61875 -8.45375 8.2375 -8.6875 8.875 C-10.41411896 11.67047831 -11.84532227 12.23056641 -15 13 C-15.99 12.34 -16.98 11.68 -18 11 C-17.49607061 6.59061785 -16.0379639 4.21156184 -13 1 C-8.62772527 -1.70402735 -4.85479431 -1.18430103 0 0 Z " fill="#898989" transform="translate(241,661)"/>
<path d="M0 0 C3.00006324 1.29862457 3.82853436 2.32742691 6 5 C7.69413388 9.37727564 7.31200353 12.2589916 5.5 16.5625 C2.89395903 20.54497107 -0.52002951 23.78395985 -4 27 C-3.38511719 27.10957031 -2.77023437 27.21914063 -2.13671875 27.33203125 C-0.92435547 27.56986328 -0.92435547 27.56986328 0.3125 27.8125 C1.11300781 27.96332031 1.91351563 28.11414063 2.73828125 28.26953125 C5.28415813 29.09177473 6.40402551 29.86686904 8 32 C8 32.99 8 33.98 8 35 C4.64908229 35.75363052 1.56890188 36.11979937 -1.86328125 36.09765625 C-3.19262695 36.09282227 -3.19262695 36.09282227 -4.54882812 36.08789062 C-5.46083984 36.07951172 -6.37285156 36.07113281 -7.3125 36.0625 C-8.24384766 36.05798828 -9.17519531 36.05347656 -10.13476562 36.04882812 C-12.42324373 36.03709234 -14.71158808 36.02067363 -17 36 C-18 34 -18 34 -17.3046875 31.19140625 C-15.94981253 27.87723604 -14.41960363 25.66937716 -12.125 22.9375 C-11.44695312 22.12152344 -10.76890625 21.30554688 -10.0703125 20.46484375 C-8.64874805 18.7723774 -7.20463279 17.09867557 -5.7421875 15.44140625 C-3.61275431 12.95721511 -3.61275431 12.95721511 -4 9 C-5.32 8.67 -6.64 8.34 -8 8 C-8.66 9.65 -9.32 11.3 -10 13 C-11.98 13 -13.96 13 -16 13 C-17.2518241 10.04114305 -17.00203521 9.00524871 -15.8125 5.9375 C-11.85226827 -0.4808066 -7.13671947 -1.16884854 0 0 Z " fill="#898989" transform="translate(469,593)"/>
<path d="M0 0 C2.71486934 3.97610786 2.22440753 8.13901977 2.125 12.75 C2.11597656 13.54277344 2.10695313 14.33554687 2.09765625 15.15234375 C2.07417012 17.10169281 2.03830137 19.05088575 2 21 C2.99 21.33 3.98 21.66 5 22 C5.6875 24.25 5.6875 24.25 6 27 C4.6875 29 4.6875 29 3 31 C2.28837557 32.64797236 1.60968047 34.31165408 1 36 C-0.98 36 -2.96 36 -5 36 C-5.66 34.02 -6.32 32.04 -7 30 C-8.216875 30.020625 -9.43375 30.04125 -10.6875 30.0625 C-13.91977322 30.06824116 -16.84934741 29.78766315 -20 29 C-21.12687694 20.73623578 -16.67670242 13.8848207 -12.11328125 7.26171875 C-6.45949574 -0.16998673 -6.45949574 -0.16998673 0 0 Z M-9 14 C-9.66 16.64 -10.32 19.28 -11 22 C-9.68 22 -8.36 22 -7 22 C-7.33 19.36 -7.66 16.72 -8 14 C-8.33 14 -8.66 14 -9 14 Z " fill="#898989" transform="translate(422,526)"/>
<path d="M0 0 C3.74056183 2.51915388 4.75517822 4.10232015 5.9375 8.4375 C6 12 6 12 4.875 15.125 C4.58625 16.07375 4.2975 17.0225 4 18 C4.9873454 19.67419438 5.98812105 21.34051852 7 23 C6.90553627 28.28996907 5.73685988 31.26314012 2 35 C-1.49292349 37.52935839 -4.78944808 37.35682643 -9 37 C-15.37597504 35.01404056 -15.37597504 35.01404056 -17.5 31.5625 C-18.01296223 28.93356855 -17.9214475 27.48790824 -17 25 C-10.25 25.75 -10.25 25.75 -8 28 C-5.42938689 28.64767793 -5.42938689 28.64767793 -3 29 C-2.91773332 25.95613276 -3.02391783 23.92824652 -4 21 C-6.00016466 19.79117904 -6.00016466 19.79117904 -8 19 C-8 17.35 -8 15.7 -8 14 C-6.68 13.34 -5.36 12.68 -4 12 C-4 10.68 -4 9.36 -4 8 C-6.51303805 8.43328242 -7.71516561 8.6780133 -9.4375 10.625 C-9.953125 11.07875 -10.46875 11.5325 -11 12 C-13.6875 11.6875 -13.6875 11.6875 -16 11 C-17 8 -17 8 -15.8125 5.5 C-11.53606283 -0.39853403 -6.98604555 -1.18694949 0 0 Z " fill="#898989" transform="translate(496,593)"/>
<path d="M0 0 C2.4375 0.375 2.4375 0.375 5 1 C6.50156874 4.00313748 6.09281204 6.79067522 6.0625 10.125 C6.05347656 11.40632813 6.04445312 12.68765625 6.03515625 14.0078125 C6.02355469 14.99523437 6.01195312 15.98265625 6 17 C7.32 16.67 8.64 16.34 10 16 C10.10957031 15.01257813 10.21914062 14.02515625 10.33203125 13.0078125 C10.56986328 11.08582031 10.56986328 11.08582031 10.8125 9.125 C11.03873047 7.21074219 11.03873047 7.21074219 11.26953125 5.2578125 C12 2 12 2 15 0 C20.90189682 -0.6300298 26.50305396 -0.37705775 32 2 C31.67 3.32 31.34 4.64 31 6 C29.68 6 28.36 6 27 6 C26.67 11.28 26.34 16.56 26 22 C24.68 22.33 23.36 22.66 22 23 C20.30566082 19.9530371 19.50532888 17.17178534 18.875 13.75 C18.70742188 12.85796875 18.53984375 11.9659375 18.3671875 11.046875 C18.24601562 10.37140625 18.12484375 9.6959375 18 9 C17.90912109 10.49853516 17.90912109 10.49853516 17.81640625 12.02734375 C17.73261719 13.31769531 17.64882813 14.60804688 17.5625 15.9375 C17.48128906 17.22527344 17.40007812 18.51304687 17.31640625 19.83984375 C17 23 17 23 16 24 C13.15664952 24.09986975 10.34302837 24.13877881 7.5 24.125 C6.70207031 24.12886719 5.90414062 24.13273437 5.08203125 24.13671875 C-0.87339233 24.12660767 -0.87339233 24.12660767 -2 23 C-2.25084859 19.71578065 -2.18522291 16.41767192 -2.1875 13.125 C-2.19974609 12.20074219 -2.21199219 11.27648437 -2.22460938 10.32421875 C-2.22654297 9.43605469 -2.22847656 8.54789062 -2.23046875 7.6328125 C-2.23457764 6.81699707 -2.23868652 6.00118164 -2.24291992 5.16064453 C-2 3 -2 3 0 0 Z " fill="#888888" transform="translate(244,408)"/>
<path d="M0 0 C2.93038162 1.2469709 4.41759241 2.22345655 6.3125 4.75 C7.2951746 7.96602597 7.3035448 10.66100717 7 14 C5.5 15.9375 5.5 15.9375 4 17 C4.474375 17.53625 4.94875 18.0725 5.4375 18.625 C7.38420783 21.5839959 7.86098294 23.45506508 8 27 C6.78939647 31.20150636 5.88457078 33.36228618 2.3125 35.9375 C-2.69707089 37.54434349 -6.85085375 37.95517611 -11.8125 35.75 C-14.08501178 33.93199057 -15.63501091 32.57831272 -17 30 C-16.6875 27.25 -16.6875 27.25 -16 25 C-12.625 25.3125 -12.625 25.3125 -9 26 C-8.34 26.99 -7.68 27.98 -7 29 C-5.68 28.67 -4.36 28.34 -3 28 C-2.22757731 26.16299211 -2.22757731 26.16299211 -2 24 C-3.73834173 21.74015575 -5.59701393 20.60199072 -8 19 C-7.67 17.35 -7.34 15.7 -7 14 C-5.68 13.67 -4.36 13.34 -3 13 C-3 11.35 -3 9.7 -3 8 C-5.75641416 8.49756092 -5.75641416 8.49756092 -8 10 C-9.99958364 10.04080783 -12.00045254 10.04254356 -14 10 C-14.75 8.3125 -14.75 8.3125 -15 6 C-10.78242373 -0.25364757 -7.17879734 -0.69552362 0 0 Z " fill="#898989" transform="translate(265,593)"/>
<path d="M0 0 C2 1.625 2 1.625 3 3.625 C3.203125 5.68359375 3.203125 5.68359375 3.25 8.0625 C3.27578125 8.84496094 3.3015625 9.62742187 3.328125 10.43359375 C2.92823089 13.10431509 2.05300878 13.94477439 0 15.625 C0.825 16.305625 1.65 16.98625 2.5 17.6875 C5 20.625 5 20.625 5.6875 24 C4.76641548 28.85662745 3.07044962 31.76120541 -1 34.625 C-5.82595812 36.15556277 -9.69339517 36.10012903 -14.4375 34.375 C-18.87627119 31.34364407 -18.87627119 31.34364407 -20 29.625 C-19.57894737 25.20394737 -19.57894737 25.20394737 -18 23.625 C-15.625 23.3125 -15.625 23.3125 -13 23.625 C-11.375 25.625 -11.375 25.625 -10 27.625 C-9.01 27.625 -8.02 27.625 -7 27.625 C-6.67 25.315 -6.34 23.005 -6 20.625 C-7.32 19.635 -8.64 18.645 -10 17.625 C-9.67 15.975 -9.34 14.325 -9 12.625 C-8.01 12.295 -7.02 11.965 -6 11.625 C-6.33 9.975 -6.66 8.325 -7 6.625 C-7.721875 6.934375 -8.44375 7.24375 -9.1875 7.5625 C-11.81693055 8.55584043 -14.21919412 9.23877696 -17 9.625 C-17.33 9.295 -17.66 8.965 -18 8.625 C-17.76830732 2.36929772 -17.76830732 2.36929772 -15 -0.3125 C-9.80206076 -2.15343681 -5.04644991 -2.31295621 0 0 Z " fill="#898989" transform="translate(345,527.375)"/>
<path d="M0 0 C3.10364824 2.28650414 4.15930189 4.05500842 5.1796875 7.75390625 C5.1796875 11.12890625 5.1796875 11.12890625 3.1796875 14.12890625 C3.55900297 17.16342998 4.43009431 18.50451646 6.1796875 21.12890625 C6.66225115 25.39155183 6.44842017 27.62023369 4.4296875 31.44140625 C1.20999053 35.28715541 1.20999053 35.28715541 -1.8203125 36.12890625 C-7.456538 36.58344056 -10.93323904 36.27059633 -15.8203125 33.12890625 C-17.9722562 29.9009907 -18.02117693 28.84489816 -17.8203125 25.12890625 C-15.5703125 24.37890625 -15.5703125 24.37890625 -12.8203125 24.12890625 C-11.4459834 25.41994268 -10.11134893 26.75457715 -8.8203125 28.12890625 C-7.5003125 28.12890625 -6.1803125 28.12890625 -4.8203125 28.12890625 C-4.02674449 26.38219037 -4.02674449 26.38219037 -3.8203125 24.12890625 C-5.37463041 20.94255454 -7.19630728 18.50300621 -9.8203125 16.12890625 C-8.8203125 13.12890625 -8.8203125 13.12890625 -6.7578125 11.94140625 C-5.79875 11.53921875 -5.79875 11.53921875 -4.8203125 11.12890625 C-5.1503125 9.80890625 -5.4803125 8.48890625 -5.8203125 7.12890625 C-6.8103125 7.12890625 -7.8003125 7.12890625 -8.8203125 7.12890625 C-9.8103125 8.61390625 -9.8103125 8.61390625 -10.8203125 10.12890625 C-13.9453125 10.31640625 -13.9453125 10.31640625 -16.8203125 10.12890625 C-17.6328125 7.94140625 -17.6328125 7.94140625 -17.8203125 5.12890625 C-13.32290284 -0.36792778 -6.84820562 -3.27714561 0 0 Z " fill="#898989" transform="translate(495.8203125,526.87109375)"/>
<path d="M0 0 C1.67542976 0.28604898 3.34385343 0.61781233 5 1 C5.66 3.97 6.32 6.94 7 10 C7.99 7.03 8.98 4.06 10 1 C12.3125 0.3125 12.3125 0.3125 15 0 C17.88445028 1.70930387 18.14708071 3.4567243 19.1875 6.6875 C19.455625 7.780625 19.72375 8.87375 20 10 C21.32 7.03 22.64 4.06 24 1 C25.32 1 26.64 1 28 1 C28.65523219 8.04374605 26.50705231 14.45787446 24 21 C22 23 22 23 19.375 23.125 C18.59125 23.08375 17.8075 23.0425 17 23 C15.50178941 19.62902617 15 17.79557881 15 14 C14.34 14 13.68 14 13 14 C12.938125 14.928125 12.87625 15.85625 12.8125 16.8125 C12 20 12 20 9.6875 21.9375 C7 23 7 23 4.8125 23 C3 22 3 22 1.875 20.0625 C0.09753298 13.84136542 -1.50082602 7.51073829 -1 1 C-0.67 0.67 -0.34 0.34 0 0 Z " fill="#888888" transform="translate(376,408)"/>
<path d="M0 0 C1.11375 0.3403125 1.11375 0.3403125 2.25 0.6875 C3.36463007 7.84413277 3.39893802 14.89172871 3.375 22.125 C3.38080078 23.9184082 3.38080078 23.9184082 3.38671875 25.74804688 C3.38542969 26.88177734 3.38414062 28.01550781 3.3828125 29.18359375 C3.38168457 30.21669678 3.38055664 31.2497998 3.37939453 32.31420898 C3.25 34.6875 3.25 34.6875 2.25 35.6875 C-0.08297433 35.72842937 -2.41705225 35.72991723 -4.75 35.6875 C-6.47206188 32.69623681 -6.99179923 30.58064287 -6.9453125 27.140625 C-6.93886719 26.29628906 -6.93242188 25.45195313 -6.92578125 24.58203125 C-6.90902344 23.70933594 -6.89226563 22.83664062 -6.875 21.9375 C-6.86597656 21.04933594 -6.85695313 20.16117188 -6.84765625 19.24609375 C-6.82414577 17.05961942 -6.79128499 14.87369906 -6.75 12.6875 C-7.92949219 12.76097656 -7.92949219 12.76097656 -9.1328125 12.8359375 C-9.99648438 12.78695312 -10.86015625 12.73796875 -11.75 12.6875 C-13.625 10.3125 -13.625 10.3125 -14.75 7.6875 C-13.35064609 4.88879218 -11.3092351 4.59620844 -8.51953125 3.48828125 C-6.58188788 2.70412796 -6.58188788 2.70412796 -4.625 0.9375 C-2.75 -0.3125 -2.75 -0.3125 0 0 Z " fill="#888888" transform="translate(571.75,593.3125)"/>
<path d="M0 0 C1.6875 0.875 1.6875 0.875 2.6875 1.875 C4.4958429 13.37248883 4.17261868 25.36533026 2.6875 36.875 C0.375 37.5625 0.375 37.5625 -2.3125 37.875 C-4.51093143 36.28266735 -5.22227828 35.26542851 -5.83666992 32.60668945 C-5.90474854 31.74261475 -5.97282715 30.87854004 -6.04296875 29.98828125 C-6.12353516 29.05048828 -6.20410156 28.11269531 -6.28710938 27.14648438 C-6.35736328 26.17001953 -6.42761719 25.19355469 -6.5 24.1875 C-6.58185547 23.19943359 -6.66371094 22.21136719 -6.74804688 21.19335938 C-6.94833026 18.75461463 -7.13597846 16.31556084 -7.3125 13.875 C-8.9625 13.545 -10.6125 13.215 -12.3125 12.875 C-12.6425 11.885 -12.9725 10.895 -13.3125 9.875 C-11.66696591 8.18106785 -10.00830608 6.51767377 -8.3125 4.875 C-7.55646484 4.14216797 -7.55646484 4.14216797 -6.78515625 3.39453125 C-2.87711683 -0.15551983 -2.87711683 -0.15551983 0 0 Z " fill="#898989" transform="translate(544.3125,460.125)"/>
<path d="M0 0 C1.50606515 3.01213029 1.12160331 6.11282622 1.09765625 9.4140625 C1.0962413 10.14370209 1.09482635 10.87334167 1.09336853 11.62509155 C1.08776531 13.95843585 1.07521235 16.29168464 1.0625 18.625 C1.05748541 20.20572778 1.05292243 21.78645707 1.04882812 23.3671875 C1.03779484 27.24482854 1.02052811 31.12239807 1 35 C-1.64 35 -4.28 35 -7 35 C-8.17469444 32.65061112 -8.20034889 31.04926795 -8.31640625 28.4296875 C-8.37924805 27.08583984 -8.37924805 27.08583984 -8.44335938 25.71484375 C-8.48267578 24.77769531 -8.52199219 23.84054687 -8.5625 22.875 C-8.60568359 21.93011719 -8.64886719 20.98523438 -8.69335938 20.01171875 C-8.79959072 17.67462908 -8.90163176 15.3374317 -9 13 C-10.98 12.01 -12.96 11.02 -15 10 C-15.5 7.8125 -15.5 7.8125 -15 5 C-10.74661718 1.42081306 -5.57324244 -2.04352223 0 0 Z " fill="#898989" transform="translate(344,662)"/>
<path d="M0 0 C2.5625 0.25 2.5625 0.25 5 1 C6.15013673 3.30027345 6.19796493 4.80521057 6.31640625 7.3671875 C6.35838135 8.24802002 6.40035645 9.12885254 6.44360352 10.03637695 C6.48283936 10.97312256 6.5220752 11.90986816 6.5625 12.875 C6.6049585 13.82141357 6.64741699 14.76782715 6.69116211 15.74291992 C6.97838263 22.50040402 7.12603239 29.23626163 7 36 C3.625 36.125 3.625 36.125 0 36 C-2.44664173 33.55335827 -2.347875 32.58948215 -2.6328125 29.2109375 C-2.71660156 28.26992188 -2.80039063 27.32890625 -2.88671875 26.359375 C-2.96535156 25.37453125 -3.04398438 24.3896875 -3.125 23.375 C-3.21136719 22.38242187 -3.29773438 21.38984375 -3.38671875 20.3671875 C-3.5991844 17.91202889 -3.80325544 15.45646026 -4 13 C-5.65 12.67 -7.3 12.34 -9 12 C-9.33 10.35 -9.66 8.7 -10 7 C-9.44570312 6.66226563 -8.89140625 6.32453125 -8.3203125 5.9765625 C-7.59585938 5.53054688 -6.87140625 5.08453125 -6.125 4.625 C-5.04605469 3.96371094 -5.04605469 3.96371094 -3.9453125 3.2890625 C-1.88206418 2.0146287 -1.88206418 2.0146287 0 0 Z " fill="#898989" transform="translate(235,593)"/>
<path d="M0 0 C3 1 3 1 4 3 C4.23432625 7.08615281 4.22839964 11.17400386 4.24023438 15.26635742 C4.24991423 17.29452939 4.28092532 19.32167642 4.3125 21.34960938 C4.31765625 22.63287109 4.3228125 23.91613281 4.328125 25.23828125 C4.34214355 27.002323 4.34214355 27.002323 4.35644531 28.80200195 C3.96833646 32.28408271 3.01390411 34.17222607 1 37 C-0.65 36.67 -2.3 36.34 -4 36 C-4.97299156 31.14270355 -5.12038805 26.5499375 -5.0625 21.625 C-5.05798828 20.88894531 -5.05347656 20.15289063 -5.04882812 19.39453125 C-5.03715142 17.59631842 -5.01922011 15.79814803 -5 14 C-7.31 13.67 -9.62 13.34 -12 13 C-12.93423645 9.98968256 -13.04449911 9.13349732 -12 6 C-10.29922552 5.21502716 -8.591708 4.43901866 -6.84375 3.765625 C-4.77898535 2.97029117 -4.77898535 2.97029117 -2.25 1.25 C-1.5075 0.8375 -0.765 0.425 0 0 Z " fill="#898989" transform="translate(266,660)"/>
<path d="M0 0 C1.67542976 0.28604898 3.34385343 0.61781233 5 1 C6.10778934 4.63284746 6.21916948 8.13435475 6.3515625 11.91796875 C6.37471527 12.57581863 6.39786804 13.23366852 6.42172241 13.91145325 C6.46917742 15.2956329 6.51443274 16.67988952 6.55761719 18.06420898 C6.62510778 20.19089628 6.70276135 22.31705278 6.78125 24.44335938 C6.82613244 25.78904224 6.87042412 27.13474497 6.9140625 28.48046875 C6.9548291 29.70660889 6.9955957 30.93274902 7.03759766 32.19604492 C7 35 7 35 6 36 C0.47058824 36.23529412 0.47058824 36.23529412 -2 35 C-2.41064453 32.95874023 -2.41064453 32.95874023 -2.6328125 30.30859375 C-2.75849609 28.89223633 -2.75849609 28.89223633 -2.88671875 27.44726562 C-2.96535156 26.45404297 -3.04398437 25.46082031 -3.125 24.4375 C-3.21136719 23.44041016 -3.29773438 22.44332031 -3.38671875 21.41601562 C-3.59956793 18.94460012 -3.80359321 16.47276775 -4 14 C-4.804375 13.773125 -5.60875 13.54625 -6.4375 13.3125 C-7.7059375 12.6628125 -7.7059375 12.6628125 -9 12 C-9.8125 9.375 -9.8125 9.375 -10 7 C-9.36191406 6.57847656 -8.72382813 6.15695312 -8.06640625 5.72265625 C-7.24011719 5.17480469 -6.41382813 4.62695312 -5.5625 4.0625 C-4.73878906 3.51722656 -3.91507812 2.97195313 -3.06640625 2.41015625 C-1.10014075 1.16197019 -1.10014075 1.16197019 0 0 Z " fill="#898989" transform="translate(388,593)"/>
<path d="M0 0 C1.56575099 4.85166093 2.24108411 8.87803721 2.1953125 14.02734375 C2.18886719 15.31318359 2.18242187 16.59902344 2.17578125 17.92382812 C2.15907601 19.26172154 2.14214619 20.59961217 2.125 21.9375 C2.11495322 23.30272783 2.10583036 24.6679628 2.09765625 26.03320312 C2.07417605 29.35565199 2.04133359 32.67773321 2 36 C-1.375 36.1875 -1.375 36.1875 -5 36 C-7.04607079 32.93089381 -7.2358214 32.35456602 -7.203125 28.91015625 C-7.21472656 28.12576172 -7.22632813 27.34136719 -7.23828125 26.53320312 C-7.24607522 24.88997387 -7.23833496 23.24659544 -7.21484375 21.60351562 C-7.26479528 19.2615574 -7.36223206 17.25624395 -8 15 C-10.86803834 12.37108121 -10.86803834 12.37108121 -14 11 C-13.875 8.6875 -13.875 8.6875 -13 6 C-10.125 4.375 -10.125 4.375 -7 3 C-6.46375 2.443125 -5.9275 1.88625 -5.375 1.3125 C-4 0 -4 0 0 0 Z " fill="#898989" transform="translate(343,593)"/>
<path d="M0 0 C2.375 0.25 2.375 0.25 3.375 1.25 C3.50062812 3.66320199 3.56361547 6.04627041 3.578125 8.4609375 C3.58382507 9.18487701 3.58952515 9.90881653 3.59539795 10.6546936 C3.6048612 12.18970268 3.61138717 13.7247322 3.61523438 15.25976562 C3.6249316 17.60843425 3.65593729 19.95622481 3.6875 22.3046875 C3.69403069 23.79426562 3.6992809 25.28385002 3.703125 26.7734375 C3.7154718 27.47665131 3.7278186 28.17986511 3.74053955 28.90438843 C3.7275675 31.74522337 3.63735188 33.80917674 2.16699219 36.27978516 C0.375 37.25 0.375 37.25 -4.625 36.25 C-5.285 28.66 -5.945 21.07 -6.625 13.25 C-8.605 12.59 -10.585 11.93 -12.625 11.25 C-12.5 8.9375 -12.5 8.9375 -11.625 6.25 C-8.75 4.625 -8.75 4.625 -5.625 3.25 C-5.109375 2.693125 -4.59375 2.13625 -4.0625 1.5625 C-2.625 0.25 -2.625 0.25 0 0 Z " fill="#898989" transform="translate(266.625,525.75)"/>
<path d="M0 0 C1.65 0.33 3.3 0.66 5 1 C6.72175329 5.4741755 7.23764047 9.14662743 7.1953125 13.9296875 C7.18886719 15.21875 7.18242187 16.5078125 7.17578125 17.8359375 C7.15907463 19.18229442 7.14214479 20.52864859 7.125 21.875 C7.11495664 23.24478517 7.10583317 24.61457742 7.09765625 25.984375 C7.07414412 29.32309756 7.0412793 32.66145761 7 36 C3.625 36.1875 3.625 36.1875 0 36 C-2.08745045 32.86882433 -2.27653996 31.93053776 -2.4140625 28.33203125 C-2.45273437 27.43935547 -2.49140625 26.54667969 -2.53125 25.62695312 C-2.5621875 24.69818359 -2.593125 23.76941406 -2.625 22.8125 C-2.66367187 21.87212891 -2.70234375 20.93175781 -2.7421875 19.96289062 C-2.83643187 17.6421229 -2.92204025 15.32136252 -3 13 C-5.97 12.505 -5.97 12.505 -9 12 C-8.875 9.75 -8.875 9.75 -8 7 C-5.0625 4.875 -5.0625 4.875 -2 3 C-1.34 2.01 -0.68 1.02 0 0 Z " fill="#898989" transform="translate(311,593)"/>
<path d="M0 0 C2.5 0.125 2.5 0.125 3.5 1.125 C3.60016264 3.1998785 3.63081249 5.278175 3.6328125 7.35546875 C3.63474609 9.27262695 3.63474609 9.27262695 3.63671875 11.22851562 C3.63357666 12.23458862 3.63357666 12.23458862 3.63037109 13.26098633 C3.62506755 15.28669897 3.63029186 17.31218534 3.63671875 19.33789062 C3.63542969 20.62244141 3.63414062 21.90699219 3.6328125 23.23046875 C3.63168457 24.40762451 3.63055664 25.58478027 3.62939453 26.79760742 C3.50518213 29.99174095 3.10024285 32.98877581 2.5 36.125 C-1.25 37.25 -1.25 37.25 -3.5 36.125 C-5.40900398 28.66366417 -5.92684757 20.78714304 -6.5 13.125 C-8.48 12.465 -10.46 11.805 -12.5 11.125 C-12.5 9.805 -12.5 8.485 -12.5 7.125 C-10.56640625 5.45703125 -10.56640625 5.45703125 -8.0625 3.9375 C-7.23878906 3.42832031 -6.41507813 2.91914062 -5.56640625 2.39453125 C-4.88449219 1.97558594 -4.20257812 1.55664062 -3.5 1.125 C-2.5 0.125 -2.5 0.125 0 0 Z " fill="#898989" transform="translate(543.5,525.875)"/>
<path d="M0 0 C4.27894816 1.7911876 5.46930308 5.13224555 7.6875 9.125 C8.6775 6.155 9.6675 3.185 10.6875 0.125 C11.6775 0.125 12.6675 0.125 13.6875 0.125 C15.85845519 7.65949153 15.83053733 14.36620113 14.6875 22.125 C13.6875 23.125 13.6875 23.125 11.33203125 23.4375 C8.6875 23.125 8.6875 23.125 6.88671875 21.375 C6.38785156 20.6325 5.88898438 19.89 5.375 19.125 C4.86324219 18.3825 4.35148437 17.64 3.82421875 16.875 C3.44910156 16.2975 3.07398438 15.72 2.6875 15.125 C2.0275 17.435 1.3675 19.745 0.6875 22.125 C-0.3025 22.125 -1.2925 22.125 -2.3125 22.125 C-4.40909157 17.82365935 -4.58112339 14.19112125 -4.5625 9.4375 C-4.57023437 8.76138672 -4.57796875 8.08527344 -4.5859375 7.38867188 C-4.55751036 0.24635191 -4.55751036 0.24635191 0 0 Z " fill="#888888" transform="translate(411.3125,407.875)"/>
<path d="M0 0 C2.13745922 0.25146579 3.45925779 0.45925779 5 2 C5.21881525 6.52414326 5.18579066 11.05361765 5.18530273 15.58251953 C5.18748427 17.85858997 5.20562229 20.13417199 5.22460938 22.41015625 C5.22754423 23.85416501 5.22952841 25.29817607 5.23046875 26.7421875 C5.23457764 28.0607373 5.23868652 29.37928711 5.24291992 30.73779297 C5 34 5 34 3 37 C1.35 36.67 -0.3 36.34 -2 36 C-3.0390378 31.57317509 -3.31592951 27.21065368 -3.5625 22.6875 C-3.60568359 21.94693359 -3.64886719 21.20636719 -3.69335938 20.44335938 C-3.79870432 18.62908536 -3.89978316 16.8145645 -4 15 C-5.98 14.34 -7.96 13.68 -10 13 C-10.4375 10.8125 -10.4375 10.8125 -10 8 C-8.38062244 6.50686424 -6.69076862 5.37704203 -4.82421875 4.2109375 C-2.93240983 3.05060448 -2.93240983 3.05060448 -1.40234375 1.3359375 C-0.93957031 0.89507812 -0.47679687 0.45421875 0 0 Z " fill="#898989" transform="translate(418,460)"/>
<path d="M0 0 C0.99 0 1.98 0 3 0 C4.98598493 5.95795479 5.57045059 11.74892565 6 18 C6.66 18 7.32 18 8 18 C8.10957031 17.03578125 8.21914063 16.0715625 8.33203125 15.078125 C8.56986328 13.18320312 8.56986328 13.18320312 8.8125 11.25 C8.96332031 9.99703125 9.11414063 8.7440625 9.26953125 7.453125 C9.98346878 4.07814759 10.52837976 2.36988285 13 0 C13.99 0 14.98 0 16 0 C17.46343456 2.92686912 17.1704426 5.55453613 17.1875 8.8125 C17.20167969 10.03582031 17.21585937 11.25914062 17.23046875 12.51953125 C17.00797483 15.87956655 16.59204271 18.05392762 15 21 C10.98417005 23.67721997 7.71882925 23.69118476 3 23 C0.28430587 21.16690646 -0.6693687 19.93678867 -1.75 16.875 C-2.80059835 4.79311892 -2.80059835 4.79311892 0 0 Z " fill="#888888" transform="translate(317,408)"/>
<path d="M0 0 C0.99 0 1.98 0 3 0 C4.59162079 5.57067277 5.20674944 10.21101581 5 16 C6.65 16 8.3 16 10 16 C10.04898437 15.09636719 10.09796875 14.19273437 10.1484375 13.26171875 C10.22320312 12.08222656 10.29796875 10.90273438 10.375 9.6875 C10.44460938 8.51574219 10.51421875 7.34398437 10.5859375 6.13671875 C11 3 11 3 13 0 C16 1 16 1 17 3 C17.14943856 5.26744274 17.22144902 7.5403175 17.25 9.8125 C17.27578125 11.03582031 17.3015625 12.25914062 17.328125 13.51953125 C16.97630392 17.2513477 16.30797502 19.07905241 14 22 C10.11254978 23.6870067 7.85151872 24.1767303 3.6875 23.3125 C1 22 1 22 -1 19 C-2.49016813 12.59227705 -3.00851088 6.01702176 0 0 Z " fill="#888888" transform="translate(470,408)"/>
<path d="M0 0 C10.41343311 -0.02255116 20.82685013 -0.04091517 31.24030209 -0.05181217 C36.07516827 -0.05704097 40.91001694 -0.06413854 45.74487305 -0.07543945 C50.4067712 -0.08626847 55.06865246 -0.09227686 59.73056221 -0.09487724 C61.51324288 -0.09673147 63.29592259 -0.10035203 65.07859612 -0.10573006 C67.5666596 -0.11294069 70.05465243 -0.11399093 72.54272461 -0.11352539 C73.28718842 -0.11712067 74.03165222 -0.12071594 74.79867554 -0.12442017 C79.88594784 -0.11405216 79.88594784 -0.11405216 81 1 C81.09504251 3.52541002 81.12557158 6.02337126 81.11352539 8.54907227 C81.11367142 9.33925751 81.11381744 10.12944275 81.1139679 10.943573 C81.11326857 13.56787822 81.10547527 16.19211336 81.09765625 18.81640625 C81.09579214 20.63101665 81.0943682 22.44562756 81.09336853 24.26023865 C81.08954279 29.0459023 81.07971204 33.8315358 81.06866455 38.6171875 C81.05845163 43.49674064 81.05387117 48.37629864 81.04882812 53.25585938 C81.03808982 62.83725286 81.02101273 72.41862393 81 82 C78.5625 81.625 78.5625 81.625 76 81 C75.67 80.34 75.34 79.68 75 79 C76.98 79.495 76.98 79.495 79 80 C79 53.93 79 27.86 79 1 C53.26 1 27.52 1 1 1 C-0.21176732 17.56118735 -0.21176732 17.56118735 3 33 C2.01 32.67 1.02 32.34 0 32 C0 21.44 0 10.88 0 0 Z " fill="#868686" transform="translate(580,82)"/>
<path d="M0 0 C3.67457661 0.02930284 6.4349318 0.47649706 9.75 2.1875 C9.42 3.1775 9.09 4.1675 8.75 5.1875 C6.44 5.5175 4.13 5.8475 1.75 6.1875 C1.75 6.8475 1.75 7.5075 1.75 8.1875 C3.73 8.1875 5.71 8.1875 7.75 8.1875 C8.08 9.8375 8.41 11.4875 8.75 13.1875 C6.44 13.5175 4.13 13.8475 1.75 14.1875 C1.75 15.1775 1.75 16.1675 1.75 17.1875 C4.06 17.5175 6.37 17.8475 8.75 18.1875 C8.42 19.8375 8.09 21.4875 7.75 23.1875 C5.95909747 23.38216332 4.16723495 23.56801213 2.375 23.75 C1.37726562 23.85441406 0.37953125 23.95882813 -0.6484375 24.06640625 C-3.25 24.1875 -3.25 24.1875 -5.25 23.1875 C-5.27887512 19.54168313 -5.29675585 15.89589537 -5.3125 12.25 C-5.32087891 11.20908203 -5.32925781 10.16816406 -5.33789062 9.09570312 C-5.34272461 7.61166992 -5.34272461 7.61166992 -5.34765625 6.09765625 C-5.35289307 5.18121338 -5.35812988 4.26477051 -5.36352539 3.32055664 C-5.16060243 -0.4922131 -3.37092505 0.02790501 0 0 Z " fill="#888888" transform="translate(554.25,407.8125)"/>
<path d="M0 0 C2.9375 2.5 2.9375 2.5 5 5 C4.67 5.66 4.34 6.32 4 7 C1.36 6.67 -1.28 6.34 -4 6 C-4 6.66 -4 7.32 -4 8 C-3.2575 8.0825 -2.515 8.165 -1.75 8.25 C1.6751021 9.18411875 2.94355125 10.1057388 5 13 C5.72003094 18.86310905 5.72003094 18.86310905 3.8125 21.875 C0.75301328 23.77399176 -1.4971319 24.34375622 -5.06640625 23.52734375 C-9.17131366 22.18351896 -9.17131366 22.18351896 -11 21 C-11.734375 18.88671875 -11.734375 18.88671875 -12 17 C-8.30458414 16.04975021 -5.69541586 16.04975021 -2 17 C-2.84366614 14.75620584 -2.84366614 14.75620584 -5.375 14.0625 C-8.06284156 12.97456413 -9.37984375 12.38759869 -11 10 C-11.53520313 6.40649325 -11.44814771 4.68118452 -9.4375 1.625 C-6.02544071 -0.64970619 -4.02388226 -0.63534983 0 0 Z " fill="#888888" transform="translate(541,408)"/>
<path d="M0 0 C2.4375 2 2.4375 2 4 4 C3.67 4.99 3.34 5.98 3 7 C0.23723823 6.47731534 -2.3260876 5.89130413 -5 5 C-3.06261245 7.15265284 -1.45282505 8.30641797 1.125 9.75 C4 12 4 12 5.125 15.5 C5 19 5 19 3.6875 21.4375 C-0.32285024 23.76909898 -4.46510734 23.84035574 -9 23 C-10.87109375 21.72265625 -10.87109375 21.72265625 -12 20 C-11.67 18.68 -11.34 17.36 -11 16 C-8.03 16.33 -5.06 16.66 -2 17 C-2.55429688 16.60167969 -3.10859375 16.20335937 -3.6796875 15.79296875 C-4.76636719 14.99826172 -4.76636719 14.99826172 -5.875 14.1875 C-6.59429687 13.66542969 -7.31359375 13.14335937 -8.0546875 12.60546875 C-10 11 -10 11 -12 8 C-11.84749525 4.949905 -11.42301114 3.47182012 -9.375 1.1875 C-6.02959229 -0.48520386 -3.69013497 -0.46126687 0 0 Z " fill="#888888" transform="translate(235,408)"/>
<path d="M0 0 C2.12493141 -0.02693575 4.24995912 -0.04636628 6.375 -0.0625 C7.55835938 -0.07410156 8.74171875 -0.08570313 9.9609375 -0.09765625 C13 0 13 0 15 1 C15 1.99 15 2.98 15 4 C14.01 4.66 13.02 5.32 12 6 C11.44229655 9.42747554 11.14284131 12.77452721 10.91601562 16.234375 C10.72265625 18.375 10.72265625 18.375 10 22 C7.93359375 23.5 7.93359375 23.5 6 24 C5.01 23.34 4.02 22.68 3 22 C2.64754724 18.55709307 2.56356708 15.22074235 2.56054688 11.765625 C2.5369111 9.36873407 2.5369111 9.36873407 2 6 C0.10118742 4.40343132 0.10118742 4.40343132 -2 4 C-1.34 2.68 -0.68 1.36 0 0 Z " fill="#888888" transform="translate(451,408)"/>
<path d="M0 0 C1.28132813 0.00902344 2.56265625 0.01804687 3.8828125 0.02734375 C4.87023437 0.03894531 5.85765625 0.05054688 6.875 0.0625 C7.5625 1.875 7.5625 1.875 7.875 4.0625 C7.42253906 4.5059375 6.97007812 4.949375 6.50390625 5.40625 C4.09171975 7.85892884 4.20267428 10.1986674 3.8125 13.5625 C3.08033881 19.75449179 3.08033881 19.75449179 0.875 23.0625 C-0.445 23.0625 -1.765 23.0625 -3.125 23.0625 C-4.91930352 19.47389296 -4.42110032 15.18853851 -4.55078125 11.2265625 C-5.22550026 7.50872305 -6.39289601 6.53829883 -9.125 4.0625 C-9.125 3.0725 -9.125 2.0825 -9.125 1.0625 C-6.12186252 -0.43906874 -3.33432478 -0.03031204 0 0 Z " fill="#888888" transform="translate(305.125,407.9375)"/>
<path d="M0 0 C1.1653125 -0.00257813 2.330625 -0.00515625 3.53125 -0.0078125 C6.5 0.125 6.5 0.125 8.5 1.125 C8.25 3 8.25 3 7.5 5.125 C6.83871094 5.36605469 6.17742187 5.60710937 5.49609375 5.85546875 C4.50802734 6.48388672 4.50802734 6.48388672 3.5 7.125 C2.82964166 10.13405128 2.82964166 10.13405128 2.8125 13.5625 C2.56329114 19.93512658 2.56329114 19.93512658 1.5 23.125 C0.18 23.125 -1.14 23.125 -2.5 23.125 C-4.02106634 20.08286733 -3.87429338 16.84452428 -4.0625 13.5 C-4.10568359 12.79359375 -4.14886719 12.0871875 -4.19335938 11.359375 C-4.29944751 9.61481463 -4.40022889 7.86993303 -4.5 6.125 C-6.975 5.135 -6.975 5.135 -9.5 4.125 C-9.17 3.135 -8.84 2.145 -8.5 1.125 C-5.64804778 -0.30097611 -3.17538825 -0.0070252 0 0 Z " fill="#888888" transform="translate(344.5,407.875)"/>
<path d="M0 0 C1.1653125 -0.00257813 2.330625 -0.00515625 3.53125 -0.0078125 C6.5 0.125 6.5 0.125 8.5 1.125 C8.17 2.445 7.84 3.765 7.5 5.125 C5.85 5.455 4.2 5.785 2.5 6.125 C2.52320313 7.18460937 2.54640625 8.24421875 2.5703125 9.3359375 C2.58906944 10.7239513 2.60726972 12.1119727 2.625 13.5 C2.64175781 14.19867188 2.65851563 14.89734375 2.67578125 15.6171875 C2.69344267 17.45397486 2.60303261 19.29101963 2.5 21.125 C1.84 21.785 1.18 22.445 0.5 23.125 C-1.625 22.75 -1.625 22.75 -3.5 22.125 C-3.53867187 20.69607422 -3.53867187 20.69607422 -3.578125 19.23828125 C-3.63484375 17.98402344 -3.6915625 16.72976563 -3.75 15.4375 C-3.79640625 14.19613281 -3.8428125 12.95476562 -3.890625 11.67578125 C-4.57581539 7.68322954 -5.83305824 6.08530535 -8.5 3.125 C-8.5 2.465 -8.5 1.805 -8.5 1.125 C-5.64804778 -0.30097611 -3.17538825 -0.0070252 0 0 Z " fill="#888888" transform="translate(497.5,407.875)"/>
<path d="M0 0 C1.97265625 0.56640625 1.97265625 0.56640625 4 2 C4.49533697 5.60123362 4.43735036 9.0822038 4.43359375 12.71484375 C4.64930532 16.18664562 4.64930532 16.18664562 7.53515625 17.94140625 C8.34855469 18.29074219 9.16195312 18.64007813 10 19 C9.67 19.99 9.34 20.98 9 22 C7.35567294 22.36109542 5.7094792 22.71370076 4.0625 23.0625 C2.68771484 23.35833984 2.68771484 23.35833984 1.28515625 23.66015625 C0.53105469 23.77230469 -0.22304688 23.88445312 -1 24 C-3.35955511 21.64044489 -2.18542405 15.73247174 -2.1875 12.5625 C-2.19974609 11.58216797 -2.21199219 10.60183594 -2.22460938 9.59179688 C-2.22750977 8.18704102 -2.22750977 8.18704102 -2.23046875 6.75390625 C-2.23457764 5.89095947 -2.23868652 5.0280127 -2.24291992 4.13891602 C-2 2 -2 2 0 0 Z " fill="#888888" transform="translate(569,408)"/>
</svg>
