<?xml version="1.0" encoding="UTF-8"?>
<svg version="1.1" xmlns="http://www.w3.org/2000/svg" width="1200" height="174">
<path d="M0 0 C2.39453125 1.2421875 2.39453125 1.2421875 4.8125 2.875 C5.75351563 3.49890625 6.69453125 4.1228125 7.6640625 4.765625 C8.18645508 5.11689453 8.70884766 5.46816406 9.24707031 5.83007812 C12.70092015 8.13521022 16.19918477 10.37253415 19.6875 12.625 C20.38786377 13.07987793 21.08822754 13.53475586 21.80981445 14.00341797 C26.50858471 17.05344846 31.24037487 20.04585987 36 23 C35.979375 21.865625 35.95875 20.73125 35.9375 19.5625 C36 16 36 16 37 15 C38.40348735 14.90139869 39.81180477 14.86921063 41.21875 14.8671875 C42.49298828 14.86525391 42.49298828 14.86525391 43.79296875 14.86328125 C44.68628906 14.86714844 45.57960938 14.87101562 46.5 14.875 C47.39332031 14.87113281 48.28664063 14.86726563 49.20703125 14.86328125 C50.05652344 14.86457031 50.90601563 14.86585937 51.78125 14.8671875 C52.56564453 14.86831543 53.35003906 14.86944336 54.15820312 14.87060547 C56 15 56 15 57 16 C56.97752839 17.42226554 56.89284252 18.84365974 56.78125 20.26171875 C55.76509105 29.86178714 55.76509105 29.86178714 58.82421875 38.51953125 C61.16302057 39.98466495 63.43151922 41.00476802 66 42 C66.86625 42.763125 67.7325 43.52625 68.625 44.3125 C71.01614429 46.28690268 71.01614429 46.28690268 74.625 46.5 C78 47 78 47 79.9375 48.9375 C81 51 81 51 81 53 C83.24875747 53.86850174 83.24875747 53.86850174 86 54 C87.6733318 52.67504104 89.33895221 51.34032675 91 50 C102.2923137 44.25558339 115.9845414 42.52692656 128.25 46.25 C133.80841166 48.5623861 138.38381057 52.19843224 143 56 C146.7666532 54.22695829 150.01004622 51.94721155 153.390625 49.53515625 C159.81515777 45.75545359 165.70606977 44.43978883 173.125 44.5 C174.36515869 44.50858032 174.36515869 44.50858032 175.63037109 44.51733398 C187.39746861 44.85512907 197.41895576 48.80981078 206 57 C206.55042969 57.52207031 207.10085938 58.04414062 207.66796875 58.58203125 C220.6471731 72.295278 220.31423338 90.32591042 220.23046875 107.95703125 C220.22927348 109.6385647 220.22882452 111.32009883 220.2290802 113.00163269 C220.22753028 116.49177343 220.21934746 119.9818094 220.20581055 123.47192383 C220.18865028 127.95322057 220.18500187 132.4344047 220.18575573 136.91573048 C220.1854848 140.3719745 220.18001885 143.82819374 220.17275429 147.28442955 C220.16956864 148.93871562 220.16760045 150.5930045 220.16686058 152.24729347 C220.1647056 154.54227201 220.15598497 156.83712772 220.14526367 159.13208008 C220.14145187 160.43776443 220.13764008 161.74344879 220.13371277 163.08869934 C220 166 220 166 219 167 C216.70848583 167.08790975 214.41427476 167.10694038 212.12109375 167.09765625 C211.09110008 167.09553383 211.09110008 167.09553383 210.04029846 167.09336853 C207.83932199 167.08775479 205.63844591 167.07520007 203.4375 167.0625 C201.94856917 167.05748676 200.45963676 167.05292355 198.97070312 167.04882812 C195.31376925 167.03778093 191.65689442 167.02050713 188 167 C187.99120064 165.55753151 187.99120064 165.55753151 187.98222351 164.08592224 C187.92492506 155.00807923 187.85212631 145.93047413 187.76428509 136.8528738 C187.71962317 132.18635738 187.68035787 127.51992742 187.65356445 122.85327148 C187.62748974 118.34677993 187.58705795 113.84062184 187.53681374 109.33433723 C187.52017317 107.61806459 187.50864142 105.9017343 187.50238609 104.18539238 C187.49271423 101.77485353 187.46461931 99.3651624 187.43237305 96.95483398 C187.43452568 95.89854797 187.43452568 95.89854797 187.4367218 94.82092285 C187.34211061 89.7959287 186.2774501 86.39297254 184 82 C180.57579341 79.22361628 177.39249278 78.17225462 173 78 C168.97447261 78.85714652 165.96075913 79.73850732 163.41053772 83.08699036 C161.65678523 86.70879914 161.57425218 89.85072756 161.59936523 93.7878418 C161.59238617 94.55589142 161.5854071 95.32394104 161.57821655 96.11526489 C161.55828741 98.64336212 161.5587402 101.17105009 161.55859375 103.69921875 C161.54682095 105.45849203 161.53345696 107.21775532 161.51856995 108.977005 C161.4824151 113.60071047 161.46218808 118.22432732 161.44702148 122.84814453 C161.42216746 130.25974239 161.38267431 137.67114461 161.32512093 145.08255959 C161.30875279 147.67403833 161.30501127 150.26533316 161.30210876 152.8568573 C161.29233704 154.43802208 161.28207452 156.01918394 161.27124023 157.6003418 C161.27379318 158.32400436 161.27634613 159.04766693 161.27897644 159.79325867 C161.22748258 164.77251742 161.22748258 164.77251742 159 167 C156.03491211 167.24291992 156.03491211 167.24291992 152.27734375 167.23046875 C151.61666397 167.23001053 150.95598419 167.22955231 150.27528381 167.2290802 C148.87906091 167.22605921 147.48284133 167.21817742 146.08666992 167.20581055 C143.94242502 167.18754196 141.79861151 167.18530094 139.65429688 167.18554688 C129.14743212 167.14743212 129.14743212 167.14743212 128 166 C127.89098744 163.59826509 127.84578127 161.22422572 127.84228516 158.8215332 C127.83720444 158.07024643 127.83212372 157.31895966 127.82688904 156.54490662 C127.81616116 154.90740958 127.80755053 153.26989767 127.80076981 151.63237953 C127.78900813 149.03879195 127.76956045 146.44537295 127.74765015 143.85185242 C127.68595686 136.4755924 127.63205277 129.09934682 127.59863281 121.72290039 C127.57765763 117.21528225 127.54232515 112.70796654 127.49787521 108.20052147 C127.48373035 106.4834163 127.47499619 104.76625756 127.47182083 103.04909706 C127.46689834 100.64089096 127.44370469 98.23348275 127.41650391 95.82543945 C127.41951004 95.11922455 127.42251617 94.41300964 127.4256134 93.68539429 C127.33493142 88.26468635 126.05361131 84.12695457 122.25 80.1875 C118.50304219 78.20993894 115.06597796 77.5746516 110.875 78.4375 C107.5240379 79.5216348 105.60172695 80.21088672 103.41372681 83.08026123 C101.64511142 86.73294354 101.56710775 89.9239293 101.58349609 93.89550781 C101.57061806 95.06462204 101.57061806 95.06462204 101.55747986 96.25735474 C101.53246984 98.8227041 101.52804639 101.38766501 101.5234375 103.953125 C101.50912607 105.73721497 101.4933688 107.52129387 101.47622681 109.30535889 C101.43441148 113.99354869 101.40938589 118.68166988 101.38873291 123.36999512 C101.3528818 130.88853025 101.29208018 138.40689654 101.23024368 145.92525482 C101.21109804 148.5560654 101.19940982 151.18683066 101.18881226 153.81768799 C101.17860637 155.41914979 101.16824898 157.02061064 101.15771484 158.62207031 C101.15667252 159.35867889 101.15563019 160.09528748 101.15455627 160.85421753 C101.1134295 165.8865705 101.1134295 165.8865705 100 167 C97.72052208 167.1002093 95.43792865 167.13081303 93.15625 167.1328125 C92.12981384 167.13424759 92.12981384 167.13424759 91.0826416 167.13571167 C89.63338123 167.1363933 88.18411782 167.13454023 86.73486328 167.13037109 C84.50937072 167.12502252 82.28407999 167.1303166 80.05859375 167.13671875 C78.65364539 167.13605797 77.24869715 167.1347768 75.84375 167.1328125 C74.55662109 167.13168457 73.26949219 167.13055664 71.94335938 167.12939453 C69 167 69 167 68 166 C67.89232174 164.55830537 67.85319047 163.11142142 67.84178162 161.66575623 C67.82709839 160.26273758 67.82709839 160.26273758 67.81211853 158.83137512 C67.80636307 157.79703842 67.8006076 156.76270172 67.79467773 155.69702148 C67.78477814 154.61422913 67.77487854 153.53143677 67.76467896 152.41583252 C67.73295588 148.81760891 67.70826397 145.21937207 67.68359375 141.62109375 C67.66303355 139.13387193 67.64203734 136.64665368 67.62062073 134.15943909 C67.57096517 128.26982112 67.52572497 122.38018203 67.48259836 116.49051291 C67.42843101 109.12970579 67.36745396 101.76895781 67.30664062 94.40820312 C67.19894121 81.27217533 67.09752259 68.13610701 67 55 C64.525 58.465 64.525 58.465 62 62 C57.1202446 60.74878067 53.56483194 58.5218145 49.48046875 55.703125 C46.89691941 53.9292234 44.27246931 52.23935645 41.625 50.5625 C40.68914062 49.96953125 39.75328125 49.3765625 38.7890625 48.765625 C37.86867188 48.18296875 36.94828125 47.6003125 36 47 C34.33312481 45.93782717 32.66646201 44.87532097 31 43.8125 C27.4722608 41.56572662 23.93795142 39.32972023 20.3984375 37.1015625 C19.57214844 36.58102295 18.74585938 36.0604834 17.89453125 35.52416992 C16.2597534 34.49467174 14.62437214 33.46613089 12.98828125 32.4387207 C12.21613281 31.95234131 11.44398438 31.46596191 10.6484375 30.96484375 C9.88370117 30.48515137 9.11896484 30.00545898 8.33105469 29.51123047 C6.71404232 28.462916 5.12203328 27.3754074 3.55175781 26.25830078 C2.76381836 25.69997559 1.97587891 25.14165039 1.1640625 24.56640625 C0.10759521 23.7940564 0.10759521 23.7940564 -0.97021484 23.00610352 C-2.93467105 21.80564973 -2.93467105 21.80564973 -5.06420898 22.22363281 C-8.18151266 23.47385676 -10.90132378 25.33904774 -13.6875 27.1875 C-14.3074585 27.59242676 -14.92741699 27.99735352 -15.56616211 28.41455078 C-19.74316658 31.14857033 -23.90163986 33.91160561 -28.03515625 36.7109375 C-30.31874909 38.20911968 -32.65076763 39.60718886 -35 41 C-39.74740264 43.81685074 -44.4739787 46.65784424 -49.13671875 49.61328125 C-49.85625732 50.06823975 -50.5757959 50.52319824 -51.31713867 50.99194336 C-52.76115748 51.90687083 -54.20277538 52.82559974 -55.6418457 53.74829102 C-60.77871165 57 -60.77871165 57 -63 57 C-63 57.66 -63 58.32 -63 59 C-68.75 62 -68.75 62 -71 62 C-71.66 60.02 -72.32 58.04 -73 56 C-73.66 56 -74.32 56 -75 56 C-78.98238748 49.84540117 -78.98238748 49.84540117 -79.05078125 46.5625 C-77.4887902 42.75333224 -74.52079046 41.22429648 -71.125 39.1875 C-70.16787109 38.57745117 -70.16787109 38.57745117 -69.19140625 37.95507812 C-64.43348214 35 -64.43348214 35 -61 35 C-61 34.34 -61 33.68 -61 33 C-59.12890625 31.703125 -59.12890625 31.703125 -56.5625 30.25 C-53.13069247 28.26138579 -49.78029658 26.2298975 -46.5 24 C-42.57416011 21.34591106 -38.54459394 18.91531493 -34.46875 16.5 C-32.09897201 15.06013489 -29.79694072 13.55286133 -27.5 12 C-23.53094947 9.32124152 -19.48155021 6.81754261 -15.3515625 4.39453125 C-13.88969805 3.52761164 -12.44316621 2.63354614 -11.0234375 1.69921875 C-6.84692405 -0.97779758 -4.75069987 -1.19216806 0 0 Z " fill="#868686" transform="translate(224,2)"/>
<path d="M0 0 C1.3912047 0.00025098 2.78241565 0.0058083 4.17358398 0.01586914 C4.82129761 0.01687622 5.46901123 0.0178833 6.13635254 0.0189209 C8.56414552 0.02416696 10.99191334 0.03812814 13.41967773 0.05102539 C21.55624023 0.08196289 21.55624023 0.08196289 29.85717773 0.11352539 C29.85717773 21.23352539 29.85717773 42.35352539 29.85717773 64.11352539 C49.98717773 64.11352539 70.11717773 64.11352539 90.85717773 64.11352539 C90.85717773 42.99352539 90.85717773 21.87352539 90.85717773 0.11352539 C102.07717773 0.11352539 113.29717773 0.11352539 124.85717773 0.11352539 C124.87972322 20.82728061 124.89815601 41.54102595 124.90898991 62.25479031 C124.91415325 71.87185034 124.92119668 81.48890223 124.93261719 91.10595703 C124.94256285 99.48503708 124.94903088 107.86411124 124.95126623 116.24319702 C124.95257354 120.68268664 124.95566065 125.12215938 124.96290779 129.5616436 C124.96966615 133.73529812 124.97179507 137.90892872 124.97028542 142.0825882 C124.97056183 143.61893659 124.97256804 145.15528573 124.97638321 146.69162941 C124.9813176 148.78012156 124.98017699 150.86852196 124.97743225 152.95701599 C124.97881494 154.71441432 124.97881494 154.71441432 124.98022556 156.50731564 C124.85717773 159.11352539 124.85717773 159.11352539 123.85717773 160.11352539 C121.40914006 160.20195369 118.98872979 160.22888511 116.54077148 160.21118164 C115.89305786 160.21017456 115.24534424 160.20916748 114.57800293 160.20812988 C112.15020995 160.20288382 109.72244213 160.18892264 107.29467773 160.17602539 C99.15811523 160.14508789 99.15811523 160.14508789 90.85717773 160.11352539 C90.85717773 139.32352539 90.85717773 118.53352539 90.85717773 97.11352539 C70.72717773 97.11352539 50.59717773 97.11352539 29.85717773 97.11352539 C29.85717773 117.90352539 29.85717773 138.69352539 29.85717773 160.11352539 C24.43280273 160.13415039 19.00842773 160.15477539 13.41967773 160.17602539 C11.70594971 160.18512939 9.99222168 160.1942334 8.2265625 160.20361328 C6.87557046 160.20653255 5.52457755 160.20908108 4.17358398 160.21118164 C3.11246399 160.21885559 3.11246399 160.21885559 2.02990723 160.22668457 C0.30525156 160.22699571 -1.41929064 160.175783 -3.14282227 160.11352539 C-4.96276269 158.29358497 -4.26901304 155.44730553 -4.26980591 153.00170898 C-4.2713659 152.35635885 -4.27292589 151.71100872 -4.27453315 151.04610252 C-4.27854476 148.86803324 -4.27535291 146.69003278 -4.2722168 144.51196289 C-4.27357077 142.95680704 -4.27535067 141.4016515 -4.27752686 139.84649658 C-4.2821017 135.61107859 -4.28031142 131.37568485 -4.27714777 127.14026642 C-4.27462443 122.71777784 -4.27696163 118.29529139 -4.27853394 113.87280273 C-4.28035571 106.44457627 -4.27794912 99.01635973 -4.27319336 91.58813477 C-4.26775072 82.98747398 -4.26951338 74.38683689 -4.27501976 65.78617668 C-4.27955068 58.41549921 -4.28020155 51.04482888 -4.2775811 43.67415047 C-4.2760182 39.26597836 -4.27582489 34.8578174 -4.27911758 30.449646 C-4.28199598 26.30634191 -4.28002119 22.16306852 -4.27422333 18.01976776 C-4.27289556 16.49470826 -4.27329013 14.9696462 -4.27548599 13.44458771 C-4.27819686 11.37147027 -4.27481719 9.29845277 -4.26980591 7.2253418 C-4.26942888 6.06241608 -4.26905186 4.89949036 -4.26866341 3.70132446 C-4.08404247 -0.09522319 -3.87335954 0.13991394 0 0 Z " fill="#898989" transform="translate(15.142822265625,8.886474609375)"/>
<path d="M0 0 C10.56 0 21.12 0 32 0 C32 55.11 32 110.22 32 167 C29.03 167 26.06 167 23 167 C23 166.34 23 165.68 23 165 C22.01 164.67 21.02 164.34 20 164 C18.4296875 162.0390625 18.4296875 162.0390625 16.875 159.625 C16.35679688 158.83351562 15.83859375 158.04203125 15.3046875 157.2265625 C14 155 14 155 13 152 C11.8553125 152.7734375 11.8553125 152.7734375 10.6875 153.5625 C10.13707031 153.92601562 9.58664062 154.28953125 9.01953125 154.6640625 C7.53101346 155.64872998 6.05036733 156.64532204 4.57421875 157.6484375 C-10.36941338 167.55318933 -25.99080077 171.67284715 -43.8125 168.375 C-49.81664205 166.74187336 -55.43712031 163.73415107 -61 161 C-61 160.34 -61 159.68 -61 159 C-61.56203125 158.91492188 -62.1240625 158.82984375 -62.703125 158.7421875 C-71.41861099 155.92595904 -78.4540663 145.49218472 -83 138 C-91.06273957 122.16174313 -92.74577457 103.15649481 -88.04296875 85.95703125 C-82.74441569 70.93454185 -72.53426795 56.292455 -58 49 C-48.17866532 44.48680182 -40.43144857 42.80436533 -29.6875 42.75 C-28.17639648 42.7190625 -28.17639648 42.7190625 -26.63476562 42.6875 C-16.33415151 42.63381602 -8.28468128 45.78648904 0 52 C0 34.84 0 17.68 0 0 Z M-51.53125 85.0390625 C-57.03899239 92.39248452 -58.80955935 100.97709303 -58 110 C-55.70636681 120.63740118 -50.01785565 128.20223032 -41.16015625 134.2578125 C-35.66452768 137.47202471 -30.24534423 138.13551713 -24 137 C-19.80129464 135.31662566 -15.8994627 133.28659593 -12 131 C-12 130.34 -12 129.68 -12 129 C-11.08927734 128.61714844 -11.08927734 128.61714844 -10.16015625 128.2265625 C-5.1052202 125.35630948 -2.32646331 118.47643228 -0.5078125 113.125 C1.7643372 103.6169274 -1.20515061 96.01145407 -5.8125 87.75 C-11.02750156 81.19399804 -17.56460281 75.745625 -26.046875 74.58203125 C-36.51009332 74.12764266 -44.40321063 77.33943507 -51.53125 85.0390625 Z " fill="#7C7C7C" transform="translate(1154,2)"/>
<path d="M0 0 C10.56 0 21.12 0 32 0 C32 17.49 32 34.98 32 53 C33.65 51.68 35.3 50.36 37 49 C38.63700526 48.05104851 40.30442732 47.15233834 42 46.3125 C42.825 45.89613281 43.65 45.47976562 44.5 45.05078125 C50.40744905 42.56780657 56.44726424 42.78361459 62.75 42.75 C63.70132813 42.729375 64.65265625 42.70875 65.6328125 42.6875 C72.01556372 42.65252602 77.08649432 43.64815736 83 46 C83.89589844 46.29261719 84.79179688 46.58523437 85.71484375 46.88671875 C98.5932342 51.52656065 110.02335365 62.48538146 116.0871582 74.68139648 C120.94218374 85.01861454 122.38831991 94.2114982 122.375 105.625 C122.37628906 106.76694824 122.37757813 107.90889648 122.37890625 109.08544922 C122.26836587 117.95003395 121.07578229 125.67891042 118 134 C117.34 134 116.68 134 116 134 C115.9175 134.70125 115.835 135.4025 115.75 136.125 C114.81706355 139.70125637 113.1439951 141.99840687 111 145 C110.46375 145.94875 109.9275 146.8975 109.375 147.875 C100.90049979 159.02565818 85.80261425 167.0032735 72 169 C68.74899561 169.16531799 65.50473514 169.18509265 62.25 169.1875 C61.3940625 169.19974609 60.538125 169.21199219 59.65625 169.22460938 C45.44910017 169.25689835 32.86790229 164.14798197 22 155 C21.45859375 154.57847656 20.9171875 154.15695313 20.359375 153.72265625 C9.18254803 144.88844705 2.12997587 130.07248188 0.45948792 116.0080719 C-0.11232203 110.59727832 -0.13296188 105.22507327 -0.11352539 99.78881836 C-0.11367142 98.70485779 -0.11381744 97.62089722 -0.1139679 96.50408936 C-0.11327561 92.9493199 -0.10551543 89.39460396 -0.09765625 85.83984375 C-0.09578964 83.36405974 -0.09436688 80.88827536 -0.09336853 78.41249084 C-0.08956251 71.91719532 -0.07974866 65.42192238 -0.06866455 58.92663574 C-0.05840917 52.29028589 -0.05386208 45.65393381 -0.04882812 39.01757812 C-0.03812459 26.01170726 -0.02054339 13.00585905 0 0 Z M40 85.375 C34.36723714 93.46030553 31.88644037 102.37472076 33.54296875 112.23046875 C35.70796716 121.25312708 38.24035295 126.48200001 45.875 132.125 C53.00350907 136.40210544 58.62174118 138.33215416 67 137 C77.00956302 133.58850099 84.25832473 127.48335055 89 118 C90.29323018 114.14763124 90.22030142 110.20794472 90.25 106.1875 C90.270625 105.50107422 90.29125 104.81464844 90.3125 104.10742188 C90.37432105 95.93931579 86.94973695 89.02735187 81.2109375 83.17578125 C74.16181398 76.68459994 67.99346736 74.26526642 58.3515625 74.53125 C50.66025297 75.60695763 44.90084935 79.45912119 40 85.375 Z " fill="#7C7C7C" transform="translate(579,2)"/>
<path d="M0 0 C0.69480469 0.30035156 1.38960937 0.60070313 2.10546875 0.91015625 C6.98951105 3.09238791 10.86924162 6.13985433 14.921875 9.609375 C17.13731042 11.37076093 17.13731042 11.37076093 21 11 C22.91321654 9.09454662 22.91321654 9.09454662 24.5625 6.625 C26.6576559 3.68524896 27.95442763 2.03038158 31 0 C33.64 0 36.28 0 39 0 C39 39.6 39 79.2 39 120 C30 120 30 120 27.44140625 117.69921875 C26.51134766 116.20841797 26.51134766 116.20841797 25.5625 114.6875 C24.92441406 113.70136719 24.28632812 112.71523437 23.62890625 111.69921875 C23.09136719 110.80847656 22.55382812 109.91773438 22 109 C21.34 108.01 20.68 107.02 20 106 C18.68 106 17.36 106 16 106 C15.505 107.485 15.505 107.485 15 109 C-0.68409142 120.52059204 -15.9564881 123.42337875 -35.08203125 121.7265625 C-50.31050021 119.11877945 -64.27883988 109.27346159 -73.125 96.8125 C-83.99617272 79.63372172 -85.42393546 59.06192373 -81.04296875 39.54296875 C-76.76996713 25.02756623 -66.47162004 10.77575617 -53.2421875 3.125 C-37.42116919 -4.8130719 -16.40345882 -8.66654406 0 0 Z M-44.53125 38.0625 C-50.04038152 45.32986498 -51.54555476 53.58973156 -50.78125 62.5703125 C-49.38085088 71.1612225 -46.01397118 79.39023042 -38.93359375 84.75 C-31.58444409 89.50096543 -24.79687151 91.46052784 -16 90 C-6.31286467 86.50293138 -0.18738079 80.08301471 4.9375 71.375 C8.03655851 64.59645731 8.61522656 57.28075756 6.41992188 50.10351562 C3.44576074 42.21834182 -0.53303949 36.10972245 -8 32 C-8.60328125 31.59265625 -9.2065625 31.1853125 -9.828125 30.765625 C-21.67891677 23.49581156 -35.76738592 28.47185629 -44.53125 38.0625 Z " fill="#7C7C7C" transform="translate(919,49)"/>
<path d="M0 0 C12.43383533 9.91295104 12.43383533 9.91295104 14.9375 17.125 C12.79064797 19.74893026 10.64367551 22.37276064 8.49609375 24.99609375 C6.90195166 26.94422299 5.31117631 28.89492525 3.72265625 30.84765625 C-0.66770709 36.23835554 -5.12141334 41.5701597 -9.62451172 46.86669922 C-14.08757172 52.12865464 -18.465681 57.45899078 -22.84130859 62.79370117 C-27.09687295 67.97446503 -31.40461531 73.10740818 -35.77539062 78.19140625 C-38.17247278 80.98360671 -38.17247278 80.98360671 -40.0625 84.125 C-32.98151002 83.95603928 -27.63946662 82.35606423 -21.3125 79.18359375 C-19.0625 78.125 -19.0625 78.125 -17.0625 78.125 C-16.0725 76.145 -16.0725 76.145 -15.0625 74.125 C-14.4025 74.125 -13.7425 74.125 -13.0625 74.125 C-12.4025 72.145 -11.7425 70.165 -11.0625 68.125 C-9.4125 67.795 -7.7625 67.465 -6.0625 67.125 C-5.505625 67.846875 -4.94875 68.56875 -4.375 69.3125 C-1.38085565 72.95402692 1.75387522 76.17810018 5.4375 79.125 C8.14152881 81.28822305 10.524319 83.64478619 12.9375 86.125 C13.2675 86.455 13.5975 86.785 13.9375 87.125 C14.35871226 90.33397234 14.16538664 91.77223609 12.390625 94.51953125 C1.85060396 106.08739122 -12.08108981 115.41718301 -28.16992188 116.23168945 C-30.57260436 116.29519759 -32.97151079 116.31060001 -35.375 116.3125 C-36.5805957 116.33086914 -36.5805957 116.33086914 -37.81054688 116.34960938 C-52.07854829 116.38404542 -64.25539473 111.31975489 -75.0625 102.125 C-75.805 101.60164063 -76.5475 101.07828125 -77.3125 100.5390625 C-77.89 100.07242188 -78.4675 99.60578125 -79.0625 99.125 C-79.0625 98.465 -79.0625 97.805 -79.0625 97.125 C-79.7225 97.125 -80.3825 97.125 -81.0625 97.125 C-92.66745125 83.88049714 -96.42762666 69.96944433 -96.375 52.75 C-96.39111328 51.70328125 -96.40722656 50.6565625 -96.42382812 49.578125 C-96.43008346 39.44447961 -94.67953301 30.09824709 -89.625 21.25 C-89.04878906 20.22132812 -88.47257812 19.19265625 -87.87890625 18.1328125 C-79.74171722 4.65832743 -67.75699343 -3.55492095 -53.0625 -8.875 C-34.87496748 -13.11011578 -15.3958108 -10.62794033 0 0 Z M-56.0390625 30.12890625 C-57.53262461 32.06759402 -58.82111565 34.01814346 -60.0625 36.125 C-60.660625 37.011875 -61.25875 37.89875 -61.875 38.8125 C-64.21705353 43.37334108 -64.22255008 48.00622565 -64.25 53.0625 C-64.26417969 54.24714844 -64.27835937 55.43179688 -64.29296875 56.65234375 C-64.06132699 60.14267466 -63.31780126 62.8751094 -62.0625 66.125 C-59.04687463 63.24400076 -56.53646039 60.22984022 -54.0625 56.875 C-53.28003906 55.82054687 -52.49757813 54.76609375 -51.69140625 53.6796875 C-51.27004395 53.10959961 -50.84868164 52.53951172 -50.41455078 51.95214844 C-47.95380322 48.62671782 -45.47799891 45.31258645 -43 42 C-42.49243164 41.32018066 -41.98486328 40.64036133 -41.46191406 39.93994141 C-37.88837931 35.17253692 -34.20689469 30.52173347 -30.390625 25.9453125 C-28.86603069 24.23127491 -28.86603069 24.23127491 -29.0625 22.125 C-39.37665452 21.22667041 -48.46098696 22.44599567 -56.0390625 30.12890625 Z " fill="#888888" transform="translate(554.0625,54.875)"/>
<path d="M0 0 C1.06968018 -0.0103125 2.13936035 -0.020625 3.24145508 -0.03125 C9.82480879 0.04233557 15.23372149 0.92093204 21.3125 3.4375 C22.46878906 3.89511719 23.62507813 4.35273437 24.81640625 4.82421875 C25.82574219 5.25347656 26.83507812 5.68273438 27.875 6.125 C28.90753906 6.56199219 29.94007813 6.99898437 31.00390625 7.44921875 C31.76574219 7.77535156 32.52757812 8.10148437 33.3125 8.4375 C33.3125 9.0975 33.3125 9.7575 33.3125 10.4375 C33.993125 10.64375 34.67375 10.85 35.375 11.0625 C39.22786774 12.86597001 42.47603968 15.25029458 45.3125 18.4375 C45.48265625 19.14132813 45.6528125 19.84515625 45.828125 20.5703125 C45.98796875 21.18648437 46.1478125 21.80265625 46.3125 22.4375 C47.7975 22.9325 47.7975 22.9325 49.3125 23.4375 C54.41739574 29.68589239 56.58633252 36.92859879 58.55078125 44.62890625 C59.03124289 47.32203125 59.03124289 47.32203125 60.3125 48.4375 C61.18468752 53.30209519 61.44769862 58.00136618 61.4375 62.9375 C61.44136719 64.80921875 61.44136719 64.80921875 61.4453125 66.71875 C61.06952106 77.24091041 57.86047364 85.60533453 53.3125 94.9375 C52.96823975 95.65671631 52.62397949 96.37593262 52.26928711 97.11694336 C51.3621595 98.93185041 50.34414199 100.69036437 49.3125 102.4375 C47.8275 102.9325 47.8275 102.9325 46.3125 103.4375 C46.01085937 104.20191406 45.70921875 104.96632813 45.3984375 105.75390625 C41.91918099 114.35192504 30.23262226 118.85272048 22.3125 122.4375 C21.61769531 122.7675 20.92289062 123.0975 20.20703125 123.4375 C13.60958393 126.46679149 7.12315507 126.61936905 0 126.625 C-1.2055957 126.64336914 -1.2055957 126.64336914 -2.43554688 126.66210938 C-17.10846707 126.6975227 -31.68732019 120.58659685 -42.625 110.8125 C-47.6875 104.98295455 -47.6875 104.98295455 -47.6875 102.4375 C-48.6775 102.1075 -49.6675 101.7775 -50.6875 101.4375 C-55.58059111 93.74200216 -58.47605166 85.82541565 -60.1796875 76.88671875 C-60.44056989 74.50148835 -60.44056989 74.50148835 -61.6875 73.4375 C-62.41488261 63.22296995 -62.22423629 53.46154423 -59.4375 43.5625 C-59.23302246 42.83297119 -59.02854492 42.10344238 -58.81787109 41.35180664 C-57.42215475 36.82759685 -55.48495634 33.30474025 -52.6875 29.4375 C-52.254375 28.65375 -51.82125 27.87 -51.375 27.0625 C-48.8939265 23.20305234 -45.9819842 19.63672201 -42.6875 16.4375 C-42.0275 16.4375 -41.3675 16.4375 -40.6875 16.4375 C-40.48898438 15.86 -40.29046875 15.2825 -40.0859375 14.6875 C-36.93484562 9.61758681 -29.90594322 7.07573655 -24.6875 4.4375 C-23.79160156 3.9734375 -22.89570313 3.509375 -21.97265625 3.03125 C-14.85655817 0.03499818 -7.60771854 0.06168569 0 0 Z M-21.07421875 41.0390625 C-28.0948086 50.18977745 -29.50149341 58.06872539 -28.6875 69.4375 C-27.54172947 78.08059511 -23.1509054 83.75814689 -16.6875 89.4375 C-10.55654408 93.96200313 -4.57961679 95.31140298 2.99609375 94.98046875 C10.48943733 93.75364336 17.11899181 90.50943892 21.875 84.5 C27.79472657 75.37665669 29.85056879 65.84659709 27.62890625 55.14453125 C25.53022796 47.57709792 23.18953799 41.41268147 16.2890625 37.203125 C14.32312004 36.19457459 12.34371599 35.30508416 10.3125 34.4375 C9.70792969 34.08300781 9.10335937 33.72851562 8.48046875 33.36328125 C-1.98415022 28.89460612 -13.7728516 33.0804528 -21.07421875 41.0390625 Z " fill="#898989" transform="translate(216.6875,44.5625)"/>
<path d="M0 0 C2.625 0.25 2.625 0.25 4.4375 1.5 C5.625 3.25 5.625 3.25 5.625 7.25 C6.71663452 7.24214478 6.71663452 7.24214478 7.83032227 7.23413086 C24.12739195 7.13309747 40.35112451 7.35384048 56.625 8.25 C56.955 5.94 57.285 3.63 57.625 1.25 C63.07236842 -0.08157895 63.07236842 -0.08157895 65.5 1.375 C66.94129907 3.77716512 66.70633504 5.493646 66.625 8.25 C67.57761719 8.20359375 68.53023437 8.1571875 69.51171875 8.109375 C70.76597656 8.07328125 72.02023437 8.0371875 73.3125 8 C74.55386719 7.95359375 75.79523438 7.9071875 77.07421875 7.859375 C81.1946687 8.31266982 82.73287892 9.35251321 85.625 12.25 C86.7727171 14.5454342 86.81526007 16.00989482 86.92382812 18.56689453 C86.96318481 19.46463593 87.0025415 20.36237732 87.04309082 21.287323 C87.08043335 22.26758453 87.11777588 23.24784607 87.15625 24.2578125 C87.21854797 25.79092575 87.21854797 25.79092575 87.28210449 27.35501099 C87.78460639 40.38930253 87.97367791 53.43048666 88.17724609 66.47216797 C88.22919766 69.72891173 88.28624215 72.98553782 88.34375 76.2421875 C88.35732544 77.21727264 88.37090088 78.19235779 88.3848877 79.19699097 C88.47637397 84.26516521 88.77842259 89.22219204 89.39447021 94.25338745 C89.95494616 99.1076552 89.93624008 103.99446773 90 108.875 C90.05607422 110.5146875 90.05607422 110.5146875 90.11328125 112.1875 C90.190099 119.23766195 89.5628692 123.08044192 84.625 128.25 C81.88430194 129.16356602 80.27735825 129.37729786 77.45680237 129.38371277 C76.60862946 129.38797775 75.76045654 129.39224274 74.88658142 129.39663696 C73.95922684 129.39618378 73.03187225 129.39573059 72.07641602 129.39526367 C70.60773071 129.40030159 70.60773071 129.40030159 69.109375 129.40544128 C65.86587259 129.41495679 62.62242176 129.41689464 59.37890625 129.41796875 C57.12833128 129.4211807 54.87775653 129.42454473 52.62718201 129.42805481 C47.90696732 129.43404743 43.18677095 129.43589455 38.46655273 129.43530273 C32.41244794 129.43520106 26.35846029 129.44885855 20.30438328 129.46607494 C15.65560871 129.47718219 11.00686258 129.47922234 6.3580761 129.47869301 C4.1257175 129.47987485 1.89335822 129.484308 -0.33898735 129.49202538 C-3.45841606 129.50180027 -6.57758883 129.49895714 -9.69702148 129.49291992 C-10.62235184 129.49853943 -11.54768219 129.50415894 -12.50105286 129.50994873 C-13.77754196 129.503657 -13.77754196 129.503657 -15.07981873 129.49723816 C-15.81704383 129.49778293 -16.55426893 129.49832769 -17.31383419 129.49888897 C-19.74954756 129.2047728 -21.29705109 128.54792116 -23.375 127.25 C-27.82207654 121.37767826 -27.89356959 116.57124064 -27.6875 109.375 C-27.67130615 108.25818848 -27.6551123 107.14137695 -27.63842773 105.99072266 C-27.59602356 103.34930325 -27.54483482 100.70927637 -27.48242188 98.06835938 C-27.37464153 93.43183599 -27.29868052 88.79503663 -27.2245636 84.15786743 C-27.13569018 78.6467888 -27.03726272 73.13589087 -26.9375 67.625 C-26.91821442 66.53866272 -26.89892883 65.45232544 -26.87905884 64.33306885 C-26.82123362 61.1880772 -26.75727752 58.04326984 -26.69140625 54.8984375 C-26.67466858 53.95865051 -26.65793091 53.01886353 -26.64068604 52.05059814 C-26.52941417 47.05641544 -26.19923263 42.16623551 -25.59544373 37.20776367 C-25.32397227 34.796822 -25.2491318 32.41356204 -25.234375 29.98828125 C-25.21503906 29.09689453 -25.19570313 28.20550781 -25.17578125 27.28710938 C-25.14171289 25.45921095 -25.12368146 23.63094843 -25.12109375 21.80273438 C-25.00468476 17.58444036 -24.81542693 14.15801091 -22.34765625 10.62890625 C-18.42040307 7.48607157 -15.92470424 7.5360796 -11.0625 7.875 C-10.32193359 7.90207031 -9.58136719 7.92914063 -8.81835938 7.95703125 C-7.00264002 8.02731716 -5.18843199 8.13492911 -3.375 8.25 C-3.4059375 6.5484375 -3.4059375 6.5484375 -3.4375 4.8125 C-3.35927382 0.35360777 -3.35927382 0.35360777 0 0 Z M-14.375 39.25 C-14.84372916 42.33381711 -14.84372916 42.33381711 -14.77905273 46.02294922 C-14.78591599 46.71907318 -14.79277924 47.41519714 -14.79985046 48.13241577 C-14.8181932 50.4400456 -14.81426995 52.74700022 -14.80859375 55.0546875 C-14.81315274 56.65650658 -14.81845747 58.25832369 -14.82447815 59.86013794 C-14.83342446 63.22112969 -14.8309699 66.58188404 -14.82104492 69.94287109 C-14.80956648 74.24962245 -14.82974096 78.55555255 -14.85896206 82.86219597 C-14.87731418 86.17193814 -14.8770334 89.48148329 -14.87132454 92.79126358 C-14.87117113 94.3788887 -14.8772317 95.96652702 -14.88961601 97.55410385 C-14.90450255 99.77601204 -14.89386763 101.99640093 -14.87670898 104.21826172 C-14.87654282 105.48241913 -14.87637665 106.74657654 -14.87620544 108.04904175 C-14.59099102 111.26396293 -14.59099102 111.26396293 -12.84524536 113.65812683 C-9.4105196 115.87152954 -6.30533918 115.80223127 -2.34936523 115.75170898 C-1.14139786 115.75981346 -1.14139786 115.75981346 0.0909729 115.76808167 C2.74982582 115.78057754 5.40759784 115.76407425 8.06640625 115.74609375 C9.91438351 115.7462487 11.76236111 115.74773707 13.6103363 115.75050354 C17.48150006 115.75188786 21.35229346 115.73932276 25.22338867 115.71655273 C30.18921074 115.6881481 35.1544183 115.69091034 40.12028599 115.70364285 C43.93524947 115.7105919 47.7500705 115.70281995 51.56501579 115.69038582 C53.39627474 115.68586518 55.22754894 115.68553985 57.05880928 115.68945122 C59.61577942 115.69235639 62.17189724 115.67589106 64.72875977 115.65405273 C65.48780106 115.65855438 66.24684235 115.66305603 67.02888489 115.66769409 C69.85110942 115.62757299 72.09453197 115.5426978 74.59524536 114.16287231 C76.19484532 111.19145527 75.99895969 108.59656673 75.99731445 105.23999023 C76.00096512 104.53075409 76.00461578 103.82151794 76.00837708 103.09078979 C76.01648323 100.74648089 76.00287391 98.40286299 75.98828125 96.05859375 C75.98776271 94.43099467 75.98828019 92.80339497 75.98979187 91.17579651 C75.98970215 87.76529589 75.97927181 84.35503166 75.96118164 80.94458008 C75.93847636 76.56724615 75.93795357 72.19025715 75.94469929 67.81288052 C75.9480361 64.45263081 75.94141495 61.09246015 75.93157005 57.73222542 C75.92771413 56.11784338 75.92657146 54.50345256 75.9281559 52.8890667 C75.92852563 50.63607817 75.91593353 48.38353677 75.8996582 46.13061523 C75.89505081 44.84726791 75.89044342 43.56392059 75.88569641 42.24168396 C75.93798615 39.13428457 75.93798615 39.13428457 73.625 37.25 C70.93038957 37.05148152 68.3385527 36.97727118 65.64282227 36.99121094 C64.81829559 36.9877063 63.99376892 36.98420166 63.14425659 36.98059082 C60.4098883 36.97176521 57.67577732 36.97762608 54.94140625 36.984375 C53.04573008 36.98302846 51.15005425 36.98108802 49.25437927 36.97857666 C45.27721882 36.97562417 41.30014809 36.97992658 37.32299805 36.98925781 C32.220473 37.00064465 27.11815851 36.99409853 22.01564121 36.98211288 C18.09948638 36.97489104 14.18338159 36.97718385 10.26722527 36.98236847 C8.38572095 36.98370447 6.50421213 36.98205898 4.62271309 36.97740936 C1.99387686 36.97233969 -0.63461704 36.98006091 -3.26342773 36.99121094 C-4.04431259 36.98716248 -4.82519745 36.98311401 -5.62974548 36.97894287 C-9.41786156 37.00876217 -11.14380061 37.09586707 -14.375 39.25 Z " fill="#888888" transform="translate(739.375,42.75)"/>
<path d="M0 0 C2.70332703 0.02422336 3.92823211 0.19685533 6.0703125 1.88671875 C8.89327128 5.15652779 11.24337386 8.70660208 13.3125 12.5 C16.34157854 11.05461777 19.1125468 9.37065408 21.9375 7.5625 C34.67965944 -0.0865269 48.54433432 0.34084949 63 0.4375 C67.393125 0.458125 71.78625 0.47875 76.3125 0.5 C76.3125 11.06 76.3125 21.62 76.3125 32.5 C61.75 32.875 61.75 32.875 57.19702148 32.97802734 C55.99634033 33.0136377 54.79565918 33.04924805 53.55859375 33.0859375 C52.33841553 33.1173584 51.1182373 33.1487793 49.86108398 33.18115234 C42.88446266 33.80801629 38.29379308 35.51870692 33.3125 40.5 C28.97163415 46.54126871 28.20183054 52.02154836 28.10717773 59.30981445 C28.09727814 59.97378738 28.08737854 60.63776031 28.07717896 61.32185364 C28.04575574 63.50229405 28.02088301 65.68275619 27.99609375 67.86328125 C27.97550762 69.38071742 27.95451073 70.89814807 27.93312073 72.41557312 C27.87807127 76.39884963 27.82858688 80.38217641 27.78027344 84.36553955 C27.72993293 88.43449347 27.67431253 92.50337486 27.61914062 96.57226562 C27.51176869 104.54811567 27.41027767 112.5240266 27.3125 120.5 C22.91593827 120.52465504 18.5194128 120.54283842 14.12280273 120.55493164 C12.62605082 120.55997121 11.12930384 120.56680287 9.63256836 120.57543945 C7.48550193 120.58752159 5.33850038 120.59323191 3.19140625 120.59765625 C1.25116577 120.60551147 1.25116577 120.60551147 -0.72827148 120.61352539 C-3.6875 120.5 -3.6875 120.5 -4.6875 119.5 C-4.78548388 117.9714651 -4.81381831 116.43841036 -4.81448364 114.90673828 C-4.81730347 113.9139386 -4.82012329 112.92113892 -4.82302856 111.89825439 C-4.82100433 110.80003357 -4.8189801 109.70181274 -4.81689453 108.5703125 C-4.81864685 107.42085144 -4.82039917 106.27139038 -4.82220459 105.08709717 C-4.8266259 101.266383 -4.82368413 97.44571468 -4.8203125 93.625 C-4.82098546 90.98323559 -4.82195542 88.34147123 -4.82321167 85.69970703 C-4.82503321 80.15461729 -4.82262747 74.60954085 -4.81787109 69.06445312 C-4.8124285 62.64505256 -4.81419117 56.22568375 -4.8196975 49.80628395 C-4.82477426 43.64199017 -4.82424711 37.47771052 -4.82131577 31.31341553 C-4.82064622 28.6850382 -4.82147588 26.05666008 -4.82379532 23.42828369 C-4.82632019 19.76206277 -4.82248357 16.09590378 -4.81689453 12.4296875 C-4.81891876 11.33146667 -4.82094299 10.23324585 -4.82302856 9.10174561 C-4.82020874 8.10894592 -4.81738892 7.11614624 -4.81448364 6.09326172 C-4.81410662 5.22530975 -4.81372959 4.35735779 -4.81334114 3.46310425 C-4.58813365 -0.05010115 -3.66944214 0.49755148 0 0 Z " fill="#7C7C7C" transform="translate(983.6875,48.5)"/>
<path d="M0 0 C2 1 2 1 2 1 Z M-2 1 C-1.34 1.33 -0.68 1.66 0 2 C-0.80824219 2.71285156 -1.61648438 3.42570312 -2.44921875 4.16015625 C-7.96129748 9.07993581 -13.06405693 13.6743772 -17 20 C-17.33 19.34 -17.66 18.68 -18 18 C-14.35400683 11.70237544 -8.56419666 4.28209833 -2 1 Z " fill="#828282" transform="translate(864,54)"/>
</svg>
