<?xml version="1.0" encoding="UTF-8"?>
<svg version="1.1" xmlns="http://www.w3.org/2000/svg" width="1200" height="174">
<path d="M0 0 C2.5703125 1.34765625 2.5703125 1.34765625 5.125 3.0625 C6.55005859 4.00609375 6.55005859 4.00609375 8.00390625 4.96875 C8.99261719 5.6390625 9.98132813 6.309375 11 7 C13.02002526 8.35537179 15.04086074 9.70953679 17.0625 11.0625 C18.04863281 11.72636719 19.03476563 12.39023438 20.05078125 13.07421875 C23.69734001 15.45534918 27.43990377 17.63755589 31.234375 19.7734375 C31.81703125 20.17820312 32.3996875 20.58296875 33 21 C33 21.66 33 22.32 33 23 C33.99 23 34.98 23 36 23 C36 20.69 36 18.38 36 16 C39.28353549 14.35823226 42.89519638 14.81545961 46.5 14.8125 C47.28503906 14.80025391 48.07007813 14.78800781 48.87890625 14.77539062 C50.92063726 14.77013746 52.96192251 14.8777982 55 15 C57 17 57 17 57.24291992 18.84765625 C57.23881104 19.57855469 57.23470215 20.30945313 57.23046875 21.0625 C57.22853516 21.85914062 57.22660156 22.65578125 57.22460938 23.4765625 C57.21236328 24.30929688 57.20011719 25.14203125 57.1875 26 C57.1865332 27.24910156 57.1865332 27.24910156 57.18554688 28.5234375 C57.14043257 34.71913485 57.14043257 34.71913485 56 37 C56.73605469 37.26941406 57.47210938 37.53882813 58.23046875 37.81640625 C60.89842073 38.95658883 62.96430608 40.25040638 65.3125 41.9375 C68.27124773 43.97256522 70.98124989 45.51249996 74.375 46.6875 C77.69449607 47.88938651 78.85969094 48.40668073 81 51 C81 51.66 81 52.32 81 53 C83.99820127 53.91272676 85.44355098 54.2655992 88.32421875 52.890625 C89.49404297 52.07851562 89.49404297 52.07851562 90.6875 51.25 C101.27581486 44.55444796 112.15905991 43.43112782 124.5 45.62109375 C132.43983437 47.7277715 138.01854746 51.43711411 144 57 C144.58265625 56.46890625 145.1653125 55.9378125 145.765625 55.390625 C155.57161037 46.94144264 165.25493578 44.04124325 178.10546875 44.62109375 C189.80068404 45.75894318 200.7018497 51.13218685 208.8125 59.6875 C220.46424986 74.30820535 220.31635587 91.06743803 220.23046875 108.8359375 C220.2292731 110.49362146 220.2288246 112.15130611 220.2290802 113.80899048 C220.22753186 117.24607718 220.21936076 120.68305726 220.20581055 124.12011719 C220.18863418 128.53300442 220.18500241 132.9457773 220.18575573 137.35869408 C220.18548484 140.76432391 220.18001974 144.16992858 220.17275429 147.57555008 C220.16956932 149.20471634 220.16760061 150.83388545 220.16686058 152.46305466 C220.16470579 154.72200228 220.15598607 156.98082507 220.14526367 159.23974609 C220.14145187 160.52464935 220.13764008 161.80955261 220.13371277 163.13339233 C220 166 220 166 219 167 C216.79349344 167.10012401 214.58377614 167.1308118 212.375 167.1328125 C211.71290527 167.13376923 211.05081055 167.13472595 210.36865234 167.13571167 C208.96647039 167.13639326 207.5642853 167.13454042 206.16210938 167.13037109 C204.00904287 167.12502246 201.85618498 167.1303167 199.703125 167.13671875 C198.34374954 167.13605796 196.9843742 167.13477679 195.625 167.1328125 C194.37976563 167.13168457 193.13453125 167.13055664 191.8515625 167.12939453 C189 167 189 167 188 166 C187.88567664 163.60365614 187.83518205 161.23493934 187.82641602 158.83740234 C187.819729 158.08772186 187.81304199 157.33804138 187.80615234 156.56564331 C187.79206679 154.93142724 187.78018401 153.29719109 187.77020454 151.66294479 C187.75382625 149.07328851 187.73058628 146.4837793 187.70530701 143.89419556 C187.63446894 136.52898477 187.57458193 129.16371137 187.52319336 121.79833984 C187.49130594 117.29726011 187.44999655 112.79634477 187.40299797 108.29539871 C187.3870252 106.58190513 187.37468192 104.86837361 187.36609077 103.15482712 C187.35386429 100.74937131 187.32968142 98.34429752 187.30297852 95.93896484 C187.3020948 94.8850354 187.3020948 94.8850354 187.30119324 93.80981445 C187.23313504 89.15639659 186.54714967 85.35072058 185 81 C181.26263279 78.27063639 176.29949003 77.72322494 171.75 78 C167.36833523 79.16844394 165.75193348 80.43867432 163 84 C160.88513856 88.16870973 160.70087863 92.03417292 160.69702148 96.62011719 C160.68436249 97.74534035 160.68436249 97.74534035 160.67144775 98.89329529 C160.64575346 101.36116192 160.63355214 103.82890926 160.62109375 106.296875 C160.60491542 108.01370181 160.58773507 109.73051945 160.56959534 111.44732666 C160.52397686 115.95794447 160.48912876 120.46857451 160.45739746 124.97930908 C160.40544526 132.21357366 160.34053853 139.44770422 160.26918221 146.68180084 C160.24628814 149.21288343 160.23006083 151.7439487 160.21446228 154.27508545 C160.20106269 155.81587927 160.18744851 157.35667124 160.17358398 158.89746094 C160.16966393 159.96029549 160.16966393 159.96029549 160.16566467 161.04460144 C160.11364156 165.88635844 160.11364156 165.88635844 159 167 C156.79349344 167.10012401 154.58377614 167.1308118 152.375 167.1328125 C151.71290527 167.13376923 151.05081055 167.13472595 150.36865234 167.13571167 C148.96647039 167.13639326 147.5642853 167.13454042 146.16210938 167.13037109 C144.00904287 167.12502246 141.85618498 167.1303167 139.703125 167.13671875 C138.34374954 167.13605796 136.9843742 167.13477679 135.625 167.1328125 C134.37976563 167.13168457 133.13453125 167.13055664 131.8515625 167.12939453 C129 167 129 167 128 166 C127.88567664 163.60365614 127.83518205 161.23493934 127.82641602 158.83740234 C127.819729 158.08772186 127.81304199 157.33804138 127.80615234 156.56564331 C127.79206679 154.93142724 127.78018401 153.29719109 127.77020454 151.66294479 C127.75382625 149.07328851 127.73058628 146.4837793 127.70530701 143.89419556 C127.63446894 136.52898477 127.57458193 129.16371137 127.52319336 121.79833984 C127.49130594 117.29726011 127.44999655 112.79634477 127.40299797 108.29539871 C127.3870252 106.58190513 127.37468192 104.86837361 127.36609077 103.15482712 C127.35386429 100.74937131 127.32968142 98.34429752 127.30297852 95.93896484 C127.30238937 95.23634521 127.30180023 94.53372559 127.30119324 93.80981445 C127.23313504 89.15639659 126.54714967 85.35072058 125 81 C121.26263279 78.27063639 116.29949003 77.72322494 111.75 78 C107.36833523 79.16844394 105.75193348 80.43867432 103 84 C100.88513856 88.16870973 100.70087863 92.03417292 100.69702148 96.62011719 C100.68436249 97.74534035 100.68436249 97.74534035 100.67144775 98.89329529 C100.64575346 101.36116192 100.63355214 103.82890926 100.62109375 106.296875 C100.60491542 108.01370181 100.58773507 109.73051945 100.56959534 111.44732666 C100.52397686 115.95794447 100.48912876 120.46857451 100.45739746 124.97930908 C100.40544526 132.21357366 100.34053853 139.44770422 100.26918221 146.68180084 C100.24628814 149.21288343 100.23006083 151.7439487 100.21446228 154.27508545 C100.20106269 155.81587927 100.18744851 157.35667124 100.17358398 158.89746094 C100.16966393 159.96029549 100.16966393 159.96029549 100.16566467 161.04460144 C100.11364156 165.88635844 100.11364156 165.88635844 99 167 C96.79349344 167.10012401 94.58377614 167.1308118 92.375 167.1328125 C91.71290527 167.13376923 91.05081055 167.13472595 90.36865234 167.13571167 C88.96647039 167.13639326 87.5642853 167.13454042 86.16210938 167.13037109 C84.00904287 167.12502246 81.85618498 167.1303167 79.703125 167.13671875 C78.34374954 167.13605796 76.9843742 167.13477679 75.625 167.1328125 C74.37976563 167.13168457 73.13453125 167.13055664 71.8515625 167.12939453 C69 167 69 167 68 166 C67.89228095 164.5456272 67.85318741 163.08610424 67.84178162 161.62779236 C67.82709839 160.21215248 67.82709839 160.21215248 67.81211853 158.76791382 C67.80636307 157.72422638 67.8006076 156.68053894 67.79467773 155.60522461 C67.78477814 154.51267868 67.77487854 153.42013275 67.76467896 152.29447937 C67.7329555 148.66378994 67.70826382 145.03308741 67.68359375 141.40234375 C67.66303358 138.89270171 67.64203737 136.38306322 67.62062073 133.87342834 C67.5709649 127.93068679 67.52572477 121.98792189 67.48259836 116.04513031 C67.42843131 108.61794064 67.36745412 101.19080958 67.30664062 93.76367188 C67.1989408 80.50915415 67.09752227 67.25459624 67 54 C64.525 57.96 64.525 57.96 62 62 C58.05845552 60.8613316 55.83527182 59.87866884 53 57 C51.79723915 56.26728362 50.56371597 55.58400255 49.3125 54.9375 C41.99366933 50.98557023 35.02484193 46.44603338 28 42 C26.52273437 41.06607422 26.52273437 41.06607422 25.015625 40.11328125 C22.33969923 38.41509759 19.66872509 36.70947705 17 35 C16.14462646 34.45230957 16.14462646 34.45230957 15.27197266 33.89355469 C13.40990451 32.70076732 11.5485546 31.50686807 9.6875 30.3125 C9.11241699 29.94374756 8.53733398 29.57499512 7.94482422 29.19506836 C5.17850648 27.41706518 2.48186585 25.61858682 -0.16796875 23.66796875 C-2.73697059 21.76424499 -2.73697059 21.76424499 -4.93457031 22.25195312 C-7.14111541 23.05110847 -8.90608181 24.03067984 -10.87890625 25.30078125 C-11.99942383 26.01584839 -11.99942383 26.01584839 -13.14257812 26.74536133 C-13.94115234 27.26251709 -14.73972656 27.77967285 -15.5625 28.3125 C-17.2720333 29.4064096 -18.98167178 30.50015484 -20.69140625 31.59375 C-21.56812988 32.15707031 -22.44485352 32.72039063 -23.34814453 33.30078125 C-27.55118701 35.99394786 -31.77630912 38.65188397 -36 41.3125 C-40.96604598 44.44639306 -45.92703525 47.58760514 -50.875 50.75 C-56.87099761 54.57421895 -62.93446365 58.28739031 -69 62 C-71.75113045 59.35675702 -74.12739346 56.69105205 -76.3125 53.5625 C-76.84488281 52.82128906 -77.37726563 52.08007812 -77.92578125 51.31640625 C-79 49 -79 49 -79.08984375 46.50390625 C-77.48371904 42.81384913 -74.59314176 41.3375731 -71.25 39.375 C-70.62867188 38.9934375 -70.00734375 38.611875 -69.3671875 38.21875 C-67.58722477 37.12974327 -65.79624466 36.06187845 -64 35 C-55.13292035 29.687801 -46.35385968 24.25568131 -37.66992188 18.64916992 C-32.48334811 15.30343044 -27.27713121 11.98932752 -22.0625 8.6875 C-21.26956543 8.18379883 -20.47663086 7.68009766 -19.65966797 7.16113281 C-18.14752639 6.20498669 -16.63106512 5.25562961 -15.10986328 4.31396484 C-13.75622634 3.47095697 -12.41458964 2.60818049 -11.08935547 1.72119141 C-6.99371446 -0.89880598 -4.64615051 -1.51723885 0 0 Z " fill="#6A8EB7" transform="translate(224,2)"/>
<path d="M0 0 C1.3912047 0.00025098 2.78241565 0.0058083 4.17358398 0.01586914 C4.82129761 0.01687622 5.46901123 0.0178833 6.13635254 0.0189209 C8.56414552 0.02416696 10.99191334 0.03812814 13.41967773 0.05102539 C21.55624023 0.08196289 21.55624023 0.08196289 29.85717773 0.11352539 C29.85717773 21.23352539 29.85717773 42.35352539 29.85717773 64.11352539 C49.98717773 64.11352539 70.11717773 64.11352539 90.85717773 64.11352539 C90.85717773 42.99352539 90.85717773 21.87352539 90.85717773 0.11352539 C96.28155273 0.09290039 101.70592773 0.07227539 107.29467773 0.05102539 C109.00840576 0.04192139 110.72213379 0.03281738 112.48779297 0.0234375 C113.83878501 0.02051823 115.18977792 0.0179697 116.54077148 0.01586914 C117.24818481 0.01075317 117.95559814 0.00563721 118.68444824 0.00036621 C120.40910391 0.00005507 122.13364611 0.05126778 123.85717773 0.11352539 C124.85717773 1.11352539 124.85717773 1.11352539 124.98022556 3.70411777 C124.97930377 4.86834231 124.97838198 6.03256685 124.97743225 7.23207092 C124.97871389 8.20115447 124.97871389 8.20115447 124.98002142 9.18981546 C124.98167797 11.37022356 124.97615202 13.55055594 124.97070312 15.73095703 C124.97042126 17.28773497 124.97057896 18.84451304 124.97114563 20.40129089 C124.97143365 24.64077743 124.96553619 28.88023593 124.95857167 33.11971593 C124.95233889 37.54533959 124.9517344 41.97096382 124.95054626 46.39659119 C124.94743273 54.78306517 124.93921904 63.16952619 124.92919677 71.55599445 C124.91803634 81.10117888 124.91252536 90.64636391 124.90750134 100.19155324 C124.89703644 119.83221787 124.87943656 139.47287082 124.85717773 159.11352539 C121.89467686 160.59477583 119.21804878 160.24343224 115.91577148 160.24633789 C115.23289566 160.24729462 114.55001984 160.24825134 113.84645081 160.24923706 C112.40316679 160.24991762 110.9598797 160.24807199 109.51660156 160.24389648 C107.29997945 160.23853821 105.08355922 160.24384982 102.86694336 160.25024414 C101.46655228 160.2495835 100.06616134 160.24830262 98.66577148 160.24633789 C97.38500732 160.24520996 96.10424316 160.24408203 94.78466797 160.24291992 C91.85717773 160.11352539 91.85717773 160.11352539 90.85717773 159.11352539 C90.76321716 157.18046041 90.73974256 155.24393701 90.74365234 153.30859375 C90.74376564 151.44677711 90.74376564 151.44677711 90.74388123 149.54734802 C90.74898863 148.18268799 90.75420464 146.81802837 90.75952148 145.45336914 C90.76138573 144.06474356 90.7628096 142.67611732 90.7638092 141.28749084 C90.76763387 137.62631424 90.7774637 133.96517709 90.78851318 130.30401611 C90.79872841 126.57060286 90.80336176 122.83718306 90.80834961 119.10375977 C90.81855584 111.77364676 90.83812747 104.44364219 90.85717773 97.11352539 C70.72717773 97.11352539 50.59717773 97.11352539 29.85717773 97.11352539 C29.8687793 101.57754883 29.88038086 106.04157227 29.89233398 110.64086914 C29.89876084 114.19088971 29.90418509 117.74090864 29.90892792 121.2909317 C29.91421782 125.04357563 29.92129165 128.79619714 29.93261719 132.54882812 C29.94344914 136.16034226 29.94945522 139.7718346 29.95205498 143.38336372 C29.95390867 144.76412868 29.95752823 146.14489239 29.96290779 147.52564812 C29.9701222 149.45328491 29.97058582 151.38094346 29.97070312 153.30859375 C29.97292374 154.40779648 29.97514435 155.50699921 29.97743225 156.63951111 C29.85717773 159.11352539 29.85717773 159.11352539 28.85717773 160.11352539 C26.49319305 160.21430659 24.15906462 160.25325754 21.79467773 160.24633789 C21.08819092 160.24729462 20.3817041 160.24825134 19.65380859 160.24923706 C18.1574698 160.24991872 16.66112806 160.24806544 15.16479492 160.24389648 C12.86687616 160.23854796 10.56915287 160.2438419 8.27124023 160.25024414 C6.82071897 160.24958336 5.37019782 160.24830219 3.91967773 160.24633789 C2.88218384 160.24937424 2.88218384 160.24937424 1.82373047 160.25247192 C-3.02787003 160.22847763 -3.02787003 160.22847763 -4.14282227 159.11352539 C-4.24179646 157.07821865 -4.26914527 155.03942068 -4.26980591 153.00170898 C-4.2713659 152.35635885 -4.27292589 151.71100872 -4.27453315 151.04610252 C-4.27854476 148.86803324 -4.27535291 146.69003278 -4.2722168 144.51196289 C-4.27357077 142.95680704 -4.27535067 141.4016515 -4.27752686 139.84649658 C-4.2821017 135.61107859 -4.28031142 131.37568485 -4.27714777 127.14026642 C-4.27462443 122.71777784 -4.27696163 118.29529139 -4.27853394 113.87280273 C-4.28035571 106.44457627 -4.27794912 99.01635973 -4.27319336 91.58813477 C-4.26775072 82.98747398 -4.26951338 74.38683689 -4.27501976 65.78617668 C-4.27955068 58.41549921 -4.28020155 51.04482888 -4.2775811 43.67415047 C-4.2760182 39.26597836 -4.27582489 34.8578174 -4.27911758 30.449646 C-4.28199598 26.30634191 -4.28002119 22.16306852 -4.27422333 18.01976776 C-4.27289556 16.49470826 -4.27329013 14.9696462 -4.27548599 13.44458771 C-4.27819686 11.37147027 -4.27481719 9.29845277 -4.26980591 7.2253418 C-4.26942888 6.06241608 -4.26905186 4.89949036 -4.26866341 3.70132446 C-4.08404247 -0.09522319 -3.87335954 0.13991394 0 0 Z " fill="#6A8EB7" transform="translate(15.142822265625,8.886474609375)"/>
<path d="M0 0 C10.56 0 21.12 0 32 0 C32.02254525 21.62644188 32.04097813 43.25287428 32.05181217 64.87932491 C32.05697558 74.92012387 32.06401912 84.96091503 32.07543945 95.00170898 C32.08538493 103.74995302 32.0918531 112.49819141 32.09408849 121.24644095 C32.09539583 125.88154999 32.09848315 130.51664287 32.10573006 135.15174675 C32.11248813 139.50925479 32.1146174 143.86673992 32.11310768 148.2242527 C32.11338411 149.82832844 32.11539049 151.43240491 32.11920547 153.03647614 C32.12413941 155.2169273 32.12299942 157.39729057 32.12025452 159.57774353 C32.12117631 160.80096282 32.1220981 162.02418211 32.12304783 163.28446865 C32 166 32 166 31 167 C28.32941149 167.14115161 25.67567762 167.04247107 23 167 C23 166.34 23 165.68 23 165 C22.34 165 21.68 165 21 165 C19.5368217 163.02559073 18.19286936 161.06761129 16.875 159 C16.50246094 158.42765625 16.12992188 157.8553125 15.74609375 157.265625 C14.82449592 155.84778218 13.91144179 154.42439275 13 153 C9.05150783 153.83430483 7.16490287 155.45431726 4 158 C-10.32692755 167.52574684 -25.67871806 171.65721618 -42.8125 168.3125 C-44.22134022 167.91889339 -45.6173564 167.4775496 -47 167 C-47.92941406 166.68160156 -48.85882812 166.36320313 -49.81640625 166.03515625 C-63.60452049 160.80518188 -76.01449588 151.16216039 -83 138 C-90.62155265 120.75691281 -93.40157141 101.19393979 -87 83 C-80.32711131 66.74241664 -68.75007155 53.40113646 -52.46850586 46.44506836 C-44.70137734 43.40252787 -37.38965934 42.43281816 -29.0625 42.375 C-27.64300049 42.35880615 -27.64300049 42.35880615 -26.19482422 42.34228516 C-17.14327272 42.52480811 -7.57867022 45.42132978 -1 52 C-0.67 34.84 -0.34 17.68 0 0 Z M-53 87 C-57.83895075 94.61249569 -59.41739917 103.43755347 -57.50390625 112.296875 C-54.82061321 121.08958666 -49.88112461 129.22764517 -42.0390625 134.2578125 C-35.89236927 137.43101514 -29.80763994 138.13025951 -23 137 C-12.86639873 133.34175659 -6.28103116 126.44356122 -1.7265625 116.859375 C0.85035193 110.26469077 0.97357701 103.02321281 -1.1875 96.3125 C-1.785625 95.219375 -2.38375 94.12625 -3 93 C-3.35191406 92.34257813 -3.70382812 91.68515625 -4.06640625 91.0078125 C-6.94475606 85.9730752 -10.27274234 82.34971298 -15 79 C-15.58394531 78.58492188 -16.16789062 78.16984375 -16.76953125 77.7421875 C-29.51074839 70.0706336 -44.50457076 76.06439428 -53 87 Z " fill="#ED6600" transform="translate(1154,2)"/>
<path d="M0 0 C1.29349365 0.00523682 2.5869873 0.01047363 3.91967773 0.01586914 C5.17594971 0.0183667 6.43222168 0.02086426 7.7265625 0.0234375 C9.33587646 0.0325415 10.94519043 0.04164551 12.60327148 0.05102539 C17.69764648 0.07165039 22.79202148 0.09227539 28.04077148 0.11352539 C28.37077148 17.60352539 28.70077148 35.09352539 29.04077148 53.11352539 C31.02077148 51.46352539 33.00077148 49.81352539 35.04077148 48.11352539 C37.20092773 46.78540039 37.20092773 46.78540039 39.10327148 45.86352539 C40.04879883 45.39172852 40.04879883 45.39172852 41.01342773 44.91040039 C53.74066055 39.90778865 70.99017586 41.95884128 83.26733398 47.21899414 C96.20803302 53.40788182 106.02785696 63.5097837 112.47827148 76.17602539 C112.80859375 76.82450439 113.13891602 77.4729834 113.47924805 78.14111328 C117.83222153 87.2196839 118.38220816 95.95444535 118.35327148 105.92602539 C118.36938477 107.02495117 118.38549805 108.12387695 118.40209961 109.25610352 C118.41236497 126.67642082 112.15719181 141.13489195 99.92358398 153.45336914 C88.05373971 164.40643683 73.65671438 169.28843374 57.72827148 169.30102539 C56.92454102 169.31327148 56.12081055 169.32551758 55.29272461 169.33813477 C41.22780501 169.37208067 28.80886338 164.07834831 18.04077148 155.11352539 C16.74139648 154.18540039 16.74139648 154.18540039 15.41577148 153.23852539 C3.78875432 142.83540477 -2.79300352 126.38181943 -3.95922852 111.11352539 C-4.0904699 107.41156144 -4.09616113 103.71402369 -4.08862305 100.01000977 C-4.09037537 98.93740906 -4.09212769 97.86480835 -4.09393311 96.75970459 C-4.09830692 93.24221136 -4.09543112 89.72476906 -4.09204102 86.20727539 C-4.09271494 83.75630687 -4.09368571 81.30533841 -4.09494019 78.85437012 C-4.09641075 73.73371744 -4.09428173 68.61308227 -4.08959961 63.49243164 C-4.08387854 56.91360852 -4.08720035 50.33482599 -4.09317207 43.75600433 C-4.09677445 38.7033253 -4.09564102 33.650656 -4.09304428 28.59797668 C-4.09237536 26.17055761 -4.09320223 23.74313766 -4.09552383 21.3157196 C-4.09804763 17.93775055 -4.09421474 14.55984877 -4.08862305 11.18188477 C-4.09064728 10.17103821 -4.09267151 9.16019165 -4.09475708 8.11871338 C-4.09193726 7.20478821 -4.08911743 6.29086304 -4.08621216 5.34924316 C-4.08583513 4.5506765 -4.08545811 3.75210983 -4.08506966 2.92934418 C-3.86911643 -0.18674269 -3.16539312 0.12143452 0 0 Z M35.47827148 86.11352539 C29.9257233 94.55666483 27.5222049 103.69934737 29.57202148 113.70727539 C32.15746068 123.03733856 36.88624161 129.27877986 45.07202148 134.37915039 C51.21598248 137.5401738 57.23558507 138.23612008 64.04077148 137.11352539 C72.89774298 133.98406213 79.16278115 128.12703067 84.19702148 120.32055664 C87.65930321 113.05938247 87.43217708 101.16274218 84.91577148 93.61352539 C80.85384894 86.03126997 76.71783715 81.12300503 69.04077148 77.11352539 C68.43491211 76.75129883 67.82905273 76.38907227 67.20483398 76.01586914 C55.61668974 71.1839895 42.86394007 76.82246319 35.47827148 86.11352539 Z " fill="#ED6600" transform="translate(582.959228515625,1.886474609375)"/>
<path d="M0 0 C2.44921875 1.8671875 2.44921875 1.8671875 3.44921875 4.8671875 C7.08858789 4.61463341 8.29040847 4.0308489 10.87890625 1.36328125 C12.50835767 -0.67483451 14.13336954 -2.71650763 15.75390625 -4.76171875 C18.44921875 -7.1328125 18.44921875 -7.1328125 22.20703125 -7.53515625 C25.44921875 -7.1328125 25.44921875 -7.1328125 26.44921875 -6.1328125 C26.54506873 -4.58928119 26.57109945 -3.04136142 26.56947327 -1.49485779 C26.57153526 0.00913071 26.57153526 0.00913071 26.57363892 1.54350281 C26.568246 3.20721672 26.568246 3.20721672 26.56274414 4.90454102 C26.56289017 6.06536194 26.56303619 7.22618286 26.56318665 8.42218018 C26.56248692 12.28017002 26.55469173 16.13811228 26.546875 19.99609375 C26.54501103 22.66267478 26.54353787 25.32925314 26.54258728 27.99583435 C26.53947423 34.3104763 26.53126119 40.62510101 26.52123779 46.93973535 C26.51007585 54.12704383 26.504566 61.31435311 26.49954236 68.5016681 C26.48907855 83.29018339 26.47147961 98.07868515 26.44921875 112.8671875 C25.16877686 112.89369385 23.88833496 112.9202002 22.5690918 112.94750977 C21.84884323 112.96241959 21.12859467 112.97732941 20.38652039 112.99269104 C18.44921875 112.8671875 18.44921875 112.8671875 16.53125 111.58203125 C16.11230469 110.99550781 15.69335938 110.40898437 15.26171875 109.8046875 C14.79121094 109.17304688 14.32070313 108.54140625 13.8359375 107.890625 C13.37832031 107.22289062 12.92070313 106.55515625 12.44921875 105.8671875 C11.96066406 105.19945312 11.47210937 104.53171875 10.96875 103.84375 C9.77231837 102.20158894 8.60750067 100.53647615 7.44921875 98.8671875 C4.0769269 99.44861713 2.78835767 100.44798026 0.44921875 102.8671875 C-14.98069231 112.98939704 -31.00305204 117.78265668 -49.42578125 114.1796875 C-50.81410492 113.7865099 -52.18933372 113.34519573 -53.55078125 112.8671875 C-54.47890625 112.54878906 -55.40703125 112.23039062 -56.36328125 111.90234375 C-71.32472518 106.23455185 -82.54914322 96.22180023 -89.55078125 81.8671875 C-90.10572266 80.82304687 -90.10572266 80.82304687 -90.671875 79.7578125 C-97.51918069 66.01303771 -97.52200274 46.53015917 -93.55078125 31.8671875 C-90.39236571 22.55817328 -86.20452537 15.08587216 -79.55078125 7.8671875 C-78.55691406 6.77083984 -78.55691406 6.77083984 -77.54296875 5.65234375 C-56.04089973 -16.9880701 -24.91833579 -15.44996936 0 0 Z M-57.08203125 30.9296875 C-62.14280411 37.60560064 -63.43097724 44.62467167 -63.55078125 52.8671875 C-63.56367187 53.6303125 -63.5765625 54.3934375 -63.58984375 55.1796875 C-63.22061537 63.13229876 -59.01237096 70.42494526 -53.80078125 76.3046875 C-47.58124034 81.86360359 -39.75160808 83.68371896 -31.57421875 83.37890625 C-23.23431192 81.96737163 -15.5612882 76.60859685 -10.55078125 69.8671875 C-5.51065278 61.99278831 -3.99449043 54.09589292 -5.55078125 44.8671875 C-8.08441917 36.82636283 -12.27239839 29.38042054 -19.55078125 24.8671875 C-20.12054687 24.45984375 -20.6903125 24.0525 -21.27734375 23.6328125 C-33.30900522 16.15782282 -48.16320605 21.1694637 -57.08203125 30.9296875 Z " fill="#ED6600" transform="translate(931.55078125,56.1328125)"/>
<path d="M0 0 C5.54412698 4.38941915 10.50509087 8.80447926 14 15 C11.49857545 19.60788732 8.27185489 23.29313049 4.8125 27.1875 C0.41818905 32.19243481 -3.85823726 37.24740435 -7.98046875 42.48046875 C-10.87035037 46.08583363 -13.86969725 49.59488896 -16.86376953 53.11376953 C-19.78029608 56.5461032 -22.6570795 60.00610664 -25.5 63.5 C-30.57933722 69.74085535 -35.78688808 75.87093944 -41 82 C-31.99503582 82.9572206 -25.55198534 80.9743616 -18 76 C-14.83843927 73.19583309 -12.6490855 69.89783844 -11 66 C-4.85178011 66.83706915 -0.85951604 72.58670594 3.3125 76.75 C4.25673828 77.6575 5.20097656 78.565 6.17382812 79.5 C7.06134766 80.38171875 7.94886719 81.2634375 8.86328125 82.171875 C9.68094971 82.9772168 10.49861816 83.78255859 11.34106445 84.61230469 C13 87 13 87 12.82910156 89.6887207 C9.61537094 98.64760994 -0.86550523 105.00247685 -9 109 C-24.49437503 116.06760966 -40.72150561 117.56698421 -57.0546875 112.12890625 C-72.73004453 106.12071237 -84.54690203 95.01969489 -92 80 C-99.32800764 62.72366685 -99.65062724 42.00582821 -92.62890625 24.6015625 C-85.83834333 9.58741618 -74.6144478 -1.74933906 -59.1875 -7.875 C-39.23401303 -15.21477231 -17.28414409 -12.02580284 0 0 Z M-58 29.9375 C-62.96988428 37.54763531 -65.17522689 42.75435114 -65.125 51.9375 C-65.12886719 52.64068359 -65.13273437 53.34386719 -65.13671875 54.06835938 C-65.12965265 57.83812512 -64.903467 61.33593938 -64 65 C-60.70559975 63.90186658 -60.34259861 63.45694609 -58.4375 60.75 C-55.69327081 56.94503383 -52.87085911 53.20995115 -50 49.5 C-46.2959402 44.69395676 -42.60931503 39.8777048 -39 35 C-38.30519531 34.06800781 -37.61039063 33.13601562 -36.89453125 32.17578125 C-35.80205078 30.69658203 -35.80205078 30.69658203 -34.6875 29.1875 C-34.01074219 28.27355469 -33.33398438 27.35960937 -32.63671875 26.41796875 C-30.85845168 24.02520899 -30.85845168 24.02520899 -30 21 C-40.54440243 20.08161656 -50.61379712 21.58298394 -58 29.9375 Z " fill="#6A8EB7" transform="translate(555,56)"/>
<path d="M0 0 C15.30047311 11.85721943 23.6468114 27.42320766 26.375 46.5625 C27.94466967 63.4077355 23.16140197 81.07311133 12.453125 94.30078125 C2.23358405 106.19736709 -10.80998502 114.55454767 -26.625 116.5625 C-46.05949866 117.60665748 -62.29878189 113.71609205 -77.44140625 100.76953125 C-83.03618316 95.11470306 -87.19133553 88.7037395 -90.625 81.5625 C-91.12 80.5725 -91.615 79.5825 -92.125 78.5625 C-99.19936292 61.49419581 -97.87851907 43.53907785 -91.625 26.5625 C-83.88612805 9.84293711 -70.94496365 -1.01794399 -53.94921875 -7.67578125 C-36.26143551 -13.47261778 -15.33285328 -10.14539094 0 0 Z M-57.625 32.875 C-64.0597797 42.16453808 -65.05646104 52.03821399 -63.19140625 63.14453125 C-60.80908934 71.59361794 -55.59954294 77.84837478 -48 82.125 C-40.18703318 85.58878105 -33.20467749 86.26454532 -25.125 83.26171875 C-16.31346199 78.9060153 -11.01860856 74.09831978 -7.75 64.8125 C-5.42162697 55.77619513 -5.59306203 46.07436906 -9.625 37.5625 C-14.05100494 30.31319215 -19.2759509 24.82416964 -27.625 22.5625 C-39.87179072 20.84154575 -49.53021736 23.26244562 -57.625 32.875 Z " fill="#6A8EB7" transform="translate(251.625,54.4375)"/>
<path d="M0 0 C2 3 2 3 2 6 C2.65669678 5.99476318 3.31339355 5.98952637 3.98999023 5.98413086 C20.35580587 5.87214303 36.65334263 6.20280893 53 7 C53.185625 5.576875 53.185625 5.576875 53.375 4.125 C54 1 54 1 56 -1 C58.5 -0.8125 58.5 -0.8125 61 0 C63 3 63 3 63 7 C63.95261719 6.95359375 64.90523437 6.9071875 65.88671875 6.859375 C67.14097656 6.82328125 68.39523437 6.7871875 69.6875 6.75 C70.92886719 6.70359375 72.17023438 6.6571875 73.44921875 6.609375 C77.5696687 7.06266982 79.10787892 8.10251321 82 11 C83.17898214 13.35796427 83.19337647 14.93234304 83.29882812 17.56420898 C83.33818481 18.51119156 83.3775415 19.45817413 83.41809082 20.43385315 C83.45543335 21.46501755 83.49277588 22.49618195 83.53125 23.55859375 C83.59354797 25.16727577 83.59354797 25.16727577 83.65710449 26.80845642 C84.13291128 39.66746249 84.34776213 52.53101373 84.55325317 65.39663696 C84.80873877 81.6624642 84.80873877 81.6624642 85.49609375 97.9140625 C85.57038289 99.35277957 85.64460469 100.79150012 85.71875 102.23022461 C85.85952815 104.77695797 86.02549647 107.32248868 86.22265625 109.86547852 C86.58275511 116.60901457 86.00492042 120.42594221 81.51000977 125.6027832 C79.00058489 127.92476195 77.27486644 128.12792898 73.95878601 128.14717102 C72.69075638 128.15790398 72.69075638 128.15790398 71.39710999 128.16885376 C70.46773117 128.17154266 69.53835236 128.17423157 68.58081055 128.17700195 C67.60343933 128.18357315 66.62606812 128.19014435 65.61907959 128.19691467 C62.37495859 128.21667411 59.13088393 128.22831578 55.88671875 128.23828125 C54.22739791 128.24439454 54.22739791 128.24439454 52.53455544 128.25063133 C46.68034679 128.27150272 40.82616166 128.28580018 34.97192383 128.29516602 C28.91889255 128.30623653 22.86622827 128.34064108 16.81332684 128.38033772 C12.16450812 128.40645637 7.5157775 128.41485361 2.86689186 128.41844749 C0.63533866 128.42332524 -1.59621029 128.43497279 -3.82769203 128.45348549 C-6.94963466 128.47777682 -10.07061918 128.47693004 -13.19262695 128.4699707 C-14.57758614 128.48918579 -14.57758614 128.48918579 -15.99052429 128.50878906 C-20.17520232 128.47475625 -22.39285442 128.38404194 -26.00065613 126.10197449 C-31.36404778 120.46326843 -31.41059818 116.12662552 -31.25 108.625 C-31.23759277 107.543396 -31.22518555 106.46179199 -31.21240234 105.34741211 C-31.16997393 102.24820952 -31.11124347 99.14982851 -31.0435791 96.05108643 C-30.99850823 93.92978878 -30.95913309 91.80844304 -30.92089844 89.68701172 C-30.72458664 79.03308982 -30.43597568 68.38336342 -30.08856201 57.7333374 C-30.02817204 55.86948901 -29.96918959 54.00559461 -29.91143799 52.1416626 C-29.73081677 46.32176735 -29.52824351 40.50333799 -29.2958374 34.68527222 C-29.22405135 32.8231421 -29.15858295 30.96075689 -29.09967041 29.09817505 C-29.01564802 26.49925637 -28.90739505 23.90242151 -28.79296875 21.3046875 C-28.7730336 20.53562576 -28.75309845 19.76656403 -28.7325592 18.97419739 C-28.48311553 14.08593318 -27.49578182 11.44191199 -24 8 C-20.93466836 6.46733418 -17.73245728 6.89723529 -14.375 6.9375 C-13.31539062 6.94426758 -13.31539062 6.94426758 -12.234375 6.95117188 C-10.48954725 6.96296125 -8.744763 6.98089676 -7 7 C-7 4.69 -7 2.38 -7 0 C-4.27584084 -1.36207958 -2.87220643 -0.86166193 0 0 Z M-18 38 C-18.46872916 41.08381711 -18.46872916 41.08381711 -18.40405273 44.77294922 C-18.41091599 45.46907318 -18.41777924 46.16519714 -18.42485046 46.88241577 C-18.4431932 49.1900456 -18.43926995 51.49700022 -18.43359375 53.8046875 C-18.43815274 55.40650658 -18.44345747 57.00832369 -18.44947815 58.61013794 C-18.45842446 61.97112969 -18.4559699 65.33188404 -18.44604492 68.69287109 C-18.43456648 72.99962245 -18.45474096 77.30555255 -18.48396206 81.61219597 C-18.50231418 84.92193814 -18.5020334 88.23148329 -18.49632454 91.54126358 C-18.49617113 93.1288887 -18.5022317 94.71652702 -18.51461601 96.30410385 C-18.52950255 98.52601204 -18.51886763 100.74640093 -18.50170898 102.96826172 C-18.50154282 104.23241913 -18.50137665 105.49657654 -18.50120544 106.79904175 C-18.21588449 110.01404684 -18.21588449 110.01404684 -16.47024536 112.40911865 C-13.03381109 114.62224261 -9.93076341 114.5445783 -5.97436523 114.48583984 C-4.76639786 114.49153488 -4.76639786 114.49153488 -3.5340271 114.49734497 C-0.87515169 114.50474765 1.78262817 114.48337445 4.44140625 114.4609375 C6.28938163 114.45855301 8.13735946 114.45764776 9.9853363 114.4581604 C13.85650833 114.45503299 17.72730984 114.43847103 21.59838867 114.41162109 C26.56412241 114.37761759 31.52944946 114.36999322 36.49528599 114.37151146 C40.31023552 114.37096804 44.12509589 114.36000583 47.94001579 114.34550858 C49.77127342 114.3391383 51.60254117 114.33520114 53.43380928 114.33372116 C55.99063515 114.32939192 58.54702695 114.31189994 61.10375977 114.29052734 C61.86280106 114.29143372 62.62184235 114.29234009 63.40388489 114.29327393 C67.1438013 114.24748587 68.80720473 114.12853018 72 112 C72.44805695 108.81949529 72.44805695 108.81949529 72.35644531 105.01171875 C72.35848969 104.29287506 72.36053406 103.57403137 72.36264038 102.83340454 C72.36565477 100.45117975 72.34715215 98.06964281 72.328125 95.6875 C72.32506836 94.03605318 72.32319152 92.38460378 72.32244873 90.7331543 C72.31784152 87.26959389 72.3034 83.80626544 72.28125 80.34277344 C72.25296728 75.89709651 72.24203896 71.45160246 72.2375679 67.00584412 C72.23341602 63.59499268 72.22360048 60.18417843 72.21169281 56.77334595 C72.20598463 55.13384296 72.20122774 53.49433639 72.19742584 51.85482788 C72.1905705 49.56591475 72.17694154 47.27714785 72.16113281 44.98828125 C72.15430481 43.68415283 72.14747681 42.38002441 72.14044189 41.03637695 C72.20934102 38.08084028 72.20934102 38.08084028 71 36 C59.83882244 35.95370614 48.67766763 35.91814581 37.51641369 35.89637566 C32.33406883 35.88592829 27.15178954 35.8717517 21.96948242 35.84912109 C16.97040981 35.8274267 11.97140036 35.81543855 6.97228432 35.81024551 C5.06285927 35.80654363 3.15343777 35.799315 1.24403954 35.78853989 C-1.42568114 35.77407021 -4.09513915 35.77202016 -6.76489258 35.77294922 C-7.95495911 35.76216339 -7.95495911 35.76216339 -9.16906738 35.75115967 C-12.98692567 35.76558313 -14.7444051 35.8296034 -18 38 Z " fill="#6A8EB7" transform="translate(743,44)"/>
<path d="M0 0 C3.10774099 0.00558946 4.09603505 0.36171331 6.390625 2.52734375 C8.17074144 4.83476359 9.80608979 7.16986753 11.375 9.625 C12.365 11.11 12.365 11.11 13.375 12.625 C15.87935681 11.40769239 18.30438922 10.1068736 20.73828125 8.75 C38.70821985 -1.07515805 56.25872453 0.43249976 76.375 0.625 C76.375 11.185 76.375 21.745 76.375 32.625 C61.8125 33 61.8125 33 57.25952148 33.10302734 C56.05884033 33.1386377 54.85815918 33.17424805 53.62109375 33.2109375 C52.40091553 33.2423584 51.1807373 33.2737793 49.92358398 33.30615234 C42.38926806 33.98312631 37.42392277 36.11827335 32.375 41.625 C28.81150289 47.44537861 28.25702407 52.7091466 28.16967773 59.43481445 C28.15977814 60.09878738 28.14987854 60.76276031 28.13967896 61.44685364 C28.10825574 63.62729405 28.08338301 65.80775619 28.05859375 67.98828125 C28.03800762 69.50571742 28.01701073 71.02314807 27.99562073 72.54057312 C27.94057127 76.52384963 27.89108688 80.50717641 27.84277344 84.49053955 C27.79243293 88.55949347 27.73681253 92.62837486 27.68164062 96.69726562 C27.57426869 104.67311567 27.47277767 112.6490266 27.375 120.625 C22.97843827 120.64965504 18.5819128 120.66783842 14.18530273 120.67993164 C12.68855082 120.68497121 11.19180384 120.69180287 9.69506836 120.70043945 C7.54800193 120.71252159 5.40100038 120.71823191 3.25390625 120.72265625 C1.31366577 120.73051147 1.31366577 120.73051147 -0.66577148 120.73852539 C-3.625 120.625 -3.625 120.625 -4.625 119.625 C-4.72298388 118.0964651 -4.75131831 116.56341036 -4.75198364 115.03173828 C-4.75480347 114.0389386 -4.75762329 113.04613892 -4.76052856 112.02325439 C-4.75850433 110.92503357 -4.7564801 109.82681274 -4.75439453 108.6953125 C-4.75614685 107.54585144 -4.75789917 106.39639038 -4.75970459 105.21209717 C-4.7641259 101.391383 -4.76118413 97.57071468 -4.7578125 93.75 C-4.75848546 91.10823559 -4.75945542 88.46647123 -4.76071167 85.82470703 C-4.76253321 80.27961729 -4.76012747 74.73454085 -4.75537109 69.18945312 C-4.7499285 62.77005256 -4.75169117 56.35068375 -4.7571975 49.93128395 C-4.76227426 43.76699017 -4.76174711 37.60271052 -4.75881577 31.43841553 C-4.75814622 28.8100382 -4.75897588 26.18166008 -4.76129532 23.55328369 C-4.76382019 19.88706277 -4.75998357 16.22090378 -4.75439453 12.5546875 C-4.75641876 11.45646667 -4.75844299 10.35824585 -4.76052856 9.22674561 C-4.75770874 8.23394592 -4.75488892 7.24114624 -4.75198364 6.21826172 C-4.75160662 5.35030975 -4.75122959 4.48235779 -4.75084114 3.58810425 C-4.52813234 0.11387803 -3.61139453 0.62265423 0 0 Z " fill="#EC6600" transform="translate(983.625,48.375)"/>
<path d="M0 0 C2.5703125 1.34765625 2.5703125 1.34765625 5.125 3.0625 C6.55005859 4.00609375 6.55005859 4.00609375 8.00390625 4.96875 C8.99261719 5.6390625 9.98132813 6.309375 11 7 C13.02002526 8.35537179 15.04086074 9.70953679 17.0625 11.0625 C18.04863281 11.72636719 19.03476563 12.39023438 20.05078125 13.07421875 C23.69734001 15.45534918 27.43990377 17.63755589 31.234375 19.7734375 C31.81703125 20.17820312 32.3996875 20.58296875 33 21 C33 21.66 33 22.32 33 23 C33.99 23 34.98 23 36 23 C36 20.69 36 18.38 36 16 C39.28353549 14.35823226 42.89519638 14.81545961 46.5 14.8125 C47.28503906 14.80025391 48.07007813 14.78800781 48.87890625 14.77539062 C50.92063726 14.77013746 52.96192251 14.8777982 55 15 C57 17 57 17 57.24291992 18.84765625 C57.23881104 19.57855469 57.23470215 20.30945313 57.23046875 21.0625 C57.22853516 21.85914062 57.22660156 22.65578125 57.22460938 23.4765625 C57.21236328 24.30929688 57.20011719 25.14203125 57.1875 26 C57.1865332 27.24910156 57.1865332 27.24910156 57.18554688 28.5234375 C57.14043257 34.71913485 57.14043257 34.71913485 56 37 C56.72574219 37.26941406 57.45148438 37.53882813 58.19921875 37.81640625 C60.95246381 38.97991148 63.31134214 40.30739214 65.8125 41.9375 C66.60269531 42.44152344 67.39289063 42.94554687 68.20703125 43.46484375 C69.09455078 44.22474609 69.09455078 44.22474609 70 45 C70 48.36049511 69.34150437 49.51586559 67.6875 52.375 C67.23375 53.16519531 66.78 53.95539062 66.3125 54.76953125 C63.44803695 59.63741339 63.44803695 59.63741339 62 62 C58.05845552 60.8613316 55.83527182 59.87866884 53 57 C51.79723915 56.26728362 50.56371597 55.58400255 49.3125 54.9375 C41.99366933 50.98557023 35.02484193 46.44603338 28 42 C26.52273437 41.06607422 26.52273437 41.06607422 25.015625 40.11328125 C22.33969923 38.41509759 19.66872509 36.70947705 17 35 C16.14462646 34.45230957 16.14462646 34.45230957 15.27197266 33.89355469 C13.40990451 32.70076732 11.5485546 31.50686807 9.6875 30.3125 C9.11241699 29.94374756 8.53733398 29.57499512 7.94482422 29.19506836 C5.17850648 27.41706518 2.48186585 25.61858682 -0.16796875 23.66796875 C-2.73697059 21.76424499 -2.73697059 21.76424499 -4.93457031 22.25195312 C-7.14111541 23.05110847 -8.90608181 24.03067984 -10.87890625 25.30078125 C-11.99942383 26.01584839 -11.99942383 26.01584839 -13.14257812 26.74536133 C-13.94115234 27.26251709 -14.73972656 27.77967285 -15.5625 28.3125 C-17.2720333 29.4064096 -18.98167178 30.50015484 -20.69140625 31.59375 C-21.56812988 32.15707031 -22.44485352 32.72039063 -23.34814453 33.30078125 C-27.55118701 35.99394786 -31.77630912 38.65188397 -36 41.3125 C-40.96604598 44.44639306 -45.92703525 47.58760514 -50.875 50.75 C-56.87099761 54.57421895 -62.93446365 58.28739031 -69 62 C-71.75113045 59.35675702 -74.12739346 56.69105205 -76.3125 53.5625 C-76.84488281 52.82128906 -77.37726563 52.08007812 -77.92578125 51.31640625 C-79 49 -79 49 -79.08984375 46.50390625 C-77.48371904 42.81384913 -74.59314176 41.3375731 -71.25 39.375 C-70.62867188 38.9934375 -70.00734375 38.611875 -69.3671875 38.21875 C-67.58722477 37.12974327 -65.79624466 36.06187845 -64 35 C-55.13292035 29.687801 -46.35385968 24.25568131 -37.66992188 18.64916992 C-32.48334811 15.30343044 -27.27713121 11.98932752 -22.0625 8.6875 C-21.26956543 8.18379883 -20.47663086 7.68009766 -19.65966797 7.16113281 C-18.14752639 6.20498669 -16.63106512 5.25562961 -15.10986328 4.31396484 C-13.75622634 3.47095697 -12.41458964 2.60818049 -11.08935547 1.72119141 C-6.99371446 -0.89880598 -4.64615051 -1.51723885 0 0 Z " fill="#ED6600" transform="translate(224,2)"/>
</svg>
