<?xml version="1.0" encoding="UTF-8"?>
<svg version="1.1" xmlns="http://www.w3.org/2000/svg" width="800" height="800">
<path d="M0 0 C5.27441728 2.38841537 7.01190024 5.32312038 9.1862793 10.41943359 C10.56648029 14.79648863 10.4234474 19.01617685 10.25 23.5625 C10.23195313 24.47580078 10.21390625 25.38910156 10.1953125 26.33007812 C10.14872701 28.55453514 10.08335485 30.77666967 10 33 C10.68347818 32.99907821 11.36695637 32.99815641 12.07114601 32.99720669 C34.25575825 32.967796 56.44037127 32.94860329 78.625 32.9375 C79.46803366 32.9370657 80.31106731 32.93663139 81.17964745 32.93618393 C124.20546058 32.91461354 167.22710234 32.92889959 210.25 33.5 C211.15168159 33.51195782 212.05336319 33.52391563 212.98236847 33.53623581 C223.32184399 33.67472381 233.66104045 33.82701189 244 34 C243.98912354 32.59609009 243.98912354 32.59609009 243.97802734 31.16381836 C243.9723877 29.92253174 243.96674805 28.68124512 243.9609375 27.40234375 C243.95006104 25.56530884 243.95006104 25.56530884 243.93896484 23.69116211 C244.07501169 15.46359289 244.51554945 8.46269403 250.3671875 2.3046875 C254.45987264 -0.96554417 257.77145104 -1.54088437 263 -1 C267.82567006 1.50934843 270.92329063 4.6047009 274 9 C275.28725745 14.2443822 275.11500114 19.51180684 275.0625 24.875 C275.05798828 25.75414062 275.05347656 26.63328125 275.04882812 27.5390625 C275.03712337 29.69273803 275.01919069 31.84637817 275 34 C275.56439285 33.99777939 276.12878571 33.99555878 276.71028137 33.99327087 C282.6322872 33.97099273 288.55428095 33.95600028 294.47631836 33.94506836 C296.68075037 33.94006745 298.88517911 33.93326458 301.08959961 33.92456055 C304.27458508 33.91230783 307.45952635 33.90672911 310.64453125 33.90234375 C311.61582474 33.89718246 312.58711823 33.89202118 313.58784485 33.88670349 C328.49649568 33.88550573 340.63747303 34.83577289 351.78125 45.64453125 C360.69630903 55.1089337 365.70179395 64.45193191 365.890625 77.58203125 C365.92525345 78.68936615 365.9598819 79.79670105 365.99555969 80.93759155 C366.10301144 84.56233904 366.17685089 88.1869118 366.25 91.8125 C366.31836795 94.35527539 366.38862709 96.89800057 366.46069336 99.44067383 C366.67463097 107.29315462 366.84136934 115.14623457 367 123 C367.05151854 125.45800942 367.10311177 127.91601727 367.15478516 130.37402344 C367.36736492 140.65231202 367.55996777 150.93080091 367.73147583 161.20985413 C367.9174358 172.29635592 368.20789692 183.3697487 368.62524414 194.45019531 C369.068677 206.77606677 369.27330288 219.10608419 369.5 231.4375 C369.75132956 245.10784005 370.0078758 258.77336387 370.5 272.4375 C371.07288282 288.37975461 371.3380773 304.32727694 371.60742188 320.27709961 C371.80711199 331.778189 372.08795838 343.27283015 372.46484375 354.76953125 C373.48648762 386.14934604 374.08826477 417.54234635 374.67333984 448.93287659 C374.71041834 450.9196071 374.7475272 452.90633705 374.78466797 454.89306641 C374.81154757 456.33092892 374.81154757 456.33092892 374.83897018 457.79783916 C374.96227079 464.28739163 375.10980651 470.77603727 375.27128506 477.26473808 C375.40594644 482.75845826 375.50059916 488.25208309 375.57321167 493.74694824 C375.60713681 495.8369929 375.65490154 497.92686939 375.7180481 500.01623535 C376.10571215 513.17693302 374.45347317 522.01847385 367 533 C366.34 533.99 365.68 534.98 365 536 C364.34 536 363.68 536 363 536 C362.74605469 536.5775 362.49210937 537.155 362.23046875 537.75 C358.46142103 544.64197297 351.44530117 550.22786057 344.01953125 552.64453125 C319.750838 558.78906379 291.98552484 556.15185265 267.11823404 556.13072467 C263.0886325 556.1284208 259.0590349 556.13197462 255.0294342 556.13470459 C247.17054082 556.13911026 239.31165708 556.13820885 231.45276334 556.13529195 C225.04876234 556.13301546 218.644764 556.13273502 212.24076271 556.13381577 C210.86328887 556.13404561 210.86328887 556.13404561 209.45798728 556.13428011 C207.59116723 556.1345999 205.72434717 556.13492412 203.85752711 556.1352527 C186.42012705 556.13809272 168.98273227 556.13484468 151.54533307 556.12945233 C136.66946093 556.12499391 121.7935966 556.12575517 106.91772461 556.13037109 C89.55145461 556.13575743 72.18518924 556.13780958 54.81891853 556.13475883 C52.95634925 556.13444036 51.09377998 556.13412599 49.23121071 556.13381577 C48.31534569 556.13366149 47.39948067 556.13350721 46.45586216 556.13334826 C40.08495541 556.13249459 33.71405166 556.133921 27.34314537 556.13629532 C19.54181253 556.13913935 11.74048972 556.13826071 3.93915799 556.13301457 C-0.02095811 556.13043696 -3.98105769 556.12926735 -7.94117355 556.13266373 C-23.77151726 556.14493509 -39.59642225 556.04300556 -55.42296823 555.67289458 C-57.01222001 555.63626681 -58.60153343 555.60220119 -60.19090114 555.57100655 C-79.62444066 555.17716094 -93.9256131 553.40610646 -108 539 C-115.8988029 530.64017748 -121.11940855 519.33926524 -121.12939453 507.72949219 C-121.13250137 506.67060791 -121.13560822 505.61172363 -121.1388092 504.52075195 C-121.13683029 503.37437256 -121.13485138 502.22799316 -121.1328125 501.046875 C-121.13417709 499.85247803 -121.13554169 498.65808105 -121.13694763 497.42749023 C-121.13897879 493.5349655 -121.13264183 489.64251702 -121.125 485.75 C-121.12362224 484.40694187 -121.12239177 483.06388359 -121.12130737 481.7208252 C-121.10650447 466.21426337 -121.02582895 450.72514361 -120.42626953 435.22900391 C-119.92791637 422.19767235 -119.72304408 409.16350393 -119.5 396.125 C-119.24643673 381.47590748 -118.97919791 366.83111423 -118.5 352.1875 C-117.96251235 335.69544741 -117.70895859 319.19974402 -117.4375 302.70147705 C-117.20777767 288.81830697 -116.95782013 274.94017259 -116.5 261.0625 C-115.99408256 245.71106771 -115.74805112 230.35748927 -115.5 215 C-115.23114153 198.35742442 -114.93139223 181.72237395 -114.37280273 165.08691406 C-114.08941443 156.24345178 -113.91535098 147.40177764 -113.78515625 138.5546875 C-113.12522486 93.88367547 -113.12522486 93.88367547 -112.1875 78.125 C-112.12957275 76.99416992 -112.07164551 75.86333984 -112.01196289 74.69824219 C-111.09131779 61.54851532 -105.64973991 52.17184901 -96.1875 43.1875 C-91.91751398 39.59303911 -87.25616908 37.73649636 -82 36 C-81.01 35.67 -80.02 35.34 -79 35 C-71.49633615 33.97551306 -63.98591077 33.86305532 -56.42578125 33.90234375 C-54.85101265 33.90446617 -54.85101265 33.90446617 -53.24443054 33.90663147 C-49.93375643 33.9121712 -46.62315322 33.92471197 -43.3125 33.9375 C-41.05013119 33.94252281 -38.78776131 33.94708434 -36.52539062 33.95117188 C-31.01690342 33.96212079 -25.50845678 33.97879754 -20 34 C-20.00523682 33.43079834 -20.01047363 32.86159668 -20.01586914 32.27514648 C-20.03682887 29.66260917 -20.04972004 27.05008963 -20.0625 24.4375 C-20.07087891 23.54224609 -20.07925781 22.64699219 -20.08789062 21.72460938 C-20.13672053 8.39404408 -20.13672053 8.39404408 -17.22265625 4.8203125 C-16.50980469 4.26085937 -15.79695313 3.70140625 -15.0625 3.125 C-14.35222656 2.55007812 -13.64195312 1.97515625 -12.91015625 1.3828125 C-8.58853976 -1.74571969 -5.06302113 -1.06724729 0 0 Z M-22 64 C-25.57668493 67.78707816 -26.32881982 70.67375601 -26.5 75.875 C-26.2822885 81.37221543 -25.49139294 85.65751959 -22 90 C-15.92983231 95.58162301 -11.07457463 97.37506099 -2.85546875 97.27734375 C2.97577814 96.71097093 6.64317526 94.29652142 10.8125 90.3125 C15.17749681 83.70264769 16.45290658 78.12507558 15.6171875 70.26171875 C14.89153131 67.6025103 13.85980408 66.02172732 12 64 C11.34 64 10.68 64 10 64 C9.89042969 65.09699219 9.78085937 66.19398438 9.66796875 67.32421875 C9.50844334 68.77871516 9.34825187 70.23313863 9.1875 71.6875 C9.11724609 72.40873047 9.04699219 73.12996094 8.97460938 73.87304688 C8.37312438 79.14205545 7.28143682 82.90573206 3.23828125 86.6171875 C-0.27046609 88.90890483 -2.91641212 90.41033481 -7.1875 90.0625 C-12.52303873 88.57554658 -14.87657601 86.84562513 -17.75 82.125 C-19.96154864 76.43994559 -19.75784729 70.02041746 -20 64 C-20.66 64 -21.32 64 -22 64 Z M244 63 C240.10132866 66.61661799 240.10132866 66.61661799 238.796875 71.57421875 C238.67816015 79.4588631 239.42546419 84.04624858 243.75 90.6875 C248.65216874 95.7258401 252.42457773 97.27626236 259.375 97.625 C266.00070424 97.39652744 270.28291806 95.65811842 275 91 C279.78932466 84.99031858 281.52323275 79.71768313 281 72 C280.17494714 69.53443507 279.14825059 67.34434495 278 65 C277.01 65 276.02 65 275 65 C274.79503906 66.26457031 274.59007812 67.52914062 274.37890625 68.83203125 C274.10689979 70.49220863 273.83475728 72.15236373 273.5625 73.8125 C273.42779297 74.64587891 273.29308594 75.47925781 273.15429688 76.33789062 C273.02216797 77.14033203 272.89003906 77.94277344 272.75390625 78.76953125 C272.57323608 79.87711792 272.57323608 79.87711792 272.38891602 81.00708008 C272 83 272 83 271 86 C269.1875 87.0625 269.1875 87.0625 267 88 C266.401875 88.37125 265.80375 88.7425 265.1875 89.125 C261.93797947 90.42480821 259.47107783 90.35907702 256 90 C251.67019361 87.66856579 248.06405646 85.11928881 246.4296875 80.328125 C245.83660596 77.11470141 245.90727155 74.01467265 245.9375 70.75 C245.94652344 69.48671875 245.95554687 68.2234375 245.96484375 66.921875 C245.97644531 65.95765625 245.98804688 64.9934375 246 64 C245.34 63.67 244.68 63.34 244 63 Z M16.02292252 151.40616608 C12.47364345 151.43236191 8.92435716 151.45738051 5.37506753 151.48209733 C-1.96430148 151.53332288 -9.30360372 151.59005615 -16.64288521 151.65281487 C-19.05784555 151.67298446 -21.47281768 151.69179854 -23.88780022 151.70910835 C-46.05827753 150.11223589 -46.05827753 150.11223589 -65.25390625 157.72265625 C-65.83011719 158.47417969 -66.40632813 159.22570312 -67 160 C-67.41015433 160.51268267 -67.82030866 161.02536535 -68.24289191 161.55358386 C-72.55377853 167.53903593 -72.69913592 172.69671178 -72.60800171 179.91290283 C-72.6129794 181.0980242 -72.61795709 182.28314558 -72.62308562 183.50417972 C-72.63180572 186.77711435 -72.61820428 190.04906175 -72.59498715 193.32189703 C-72.57538799 196.85864988 -72.58479614 200.395343 -72.59057617 203.93212891 C-72.59738694 210.85745436 -72.57774615 217.7824643 -72.54941289 224.7077252 C-72.51749411 232.78870245 -72.51315814 240.86962485 -72.51022096 248.95065603 C-72.50415722 263.3874203 -72.47505428 277.8240442 -72.43212891 292.26074219 C-72.39062372 306.23209913 -72.36221997 320.20339043 -72.35009766 334.17480469 C-72.34934944 335.03359754 -72.34860123 335.8923904 -72.34783034 336.77720729 C-72.34485516 340.23045533 -72.34191789 343.68370339 -72.33904406 347.13695152 C-72.32625285 362.1056462 -72.30256811 377.07432661 -72.2774058 392.04300487 C-72.2734381 394.45276259 -72.26971588 396.86252059 -72.26605177 399.27227879 C-72.25294677 407.7307557 -72.23642454 416.18920711 -72.21106736 424.64765707 C-72.20059986 428.14175044 -72.19144967 431.63583028 -72.18649673 435.12993622 C-72.1664525 447.21500629 -72.139771 459.29628769 -71.61294556 471.37176514 C-71.582828 472.15640805 -71.55271044 472.94105097 -71.52168024 473.74947095 C-71.20878299 479.79319772 -70.52725086 485.91602277 -66.375 490.625 C-65.70597656 491.41777344 -65.70597656 491.41777344 -65.0234375 492.2265625 C-57.55991746 498.76794879 -51.77284052 499.72024268 -41.9039917 499.60800171 C-39.93498205 499.61546824 -39.93498205 499.61546824 -37.92619443 499.62308562 C-34.2965913 499.63616333 -30.66771396 499.61818647 -27.03818607 499.59498715 C-23.11666622 499.5754023 -19.19520072 499.5847949 -15.27365112 499.59057617 C-7.58898051 499.59739241 0.0954061 499.5777253 7.7800186 499.54941289 C16.76054409 499.51747418 25.74102035 499.51315663 34.72159442 499.51022096 C50.78385916 499.50415377 66.84599793 499.47504314 82.90820312 499.43212891 C98.41927329 499.39072405 113.93028473 499.36224703 129.44140625 499.35009766 C130.39271051 499.34934944 131.34401476 499.34860123 132.32414642 499.34783034 C136.15052284 499.34485447 139.97689928 499.34191723 143.80327578 499.33904406 C160.46089136 499.32620514 177.1184944 499.30257134 193.77609527 499.2774058 C196.44552551 499.27344877 199.11495599 499.26972383 201.78438663 499.26605177 C211.17674246 499.25287913 220.56907578 499.23621049 229.96140793 499.21106736 C233.83823363 499.20069252 237.71504793 499.191512 241.59188461 499.18649673 C257.13727393 499.1649748 272.67856746 499.03734018 288.22002873 498.66869505 C289.7975413 498.63201792 291.37512238 498.59816077 292.95276061 498.56735902 C307.27696323 498.89106409 307.27696323 498.89106409 319.375 492.4375 C320.02210938 491.81746094 320.66921875 491.19742187 321.3359375 490.55859375 C326.02167196 483.35400203 325.42160051 473.66117871 325.61669922 465.37719727 C325.63516395 464.68508876 325.65362869 463.99298025 325.67265296 463.27989876 C326.27594925 440.47442313 326.14605575 417.65228122 326.1343255 394.8409698 C326.13201445 388.92033912 326.13379903 382.99971033 326.1352527 377.07907958 C326.13807908 364.64059171 326.13486554 352.20211131 326.12945233 339.76362468 C326.12498586 329.17403708 326.12576453 318.58446045 326.13037109 307.99487305 C326.13576589 295.58814218 326.13780575 283.18141779 326.13475883 270.77468592 C326.13321814 264.24716178 326.1329404 257.71964513 326.13629532 251.19212151 C326.19422823 218.12620758 326.19422823 218.12620758 325.55419922 185.06860352 C325.51547762 183.81896033 325.47675602 182.56931715 325.43686104 181.28180599 C325.56014902 169.25577123 325.56014902 169.25577123 320.1875 159.125 C319.15689453 158.01511719 319.15689453 158.01511719 318.10546875 156.8828125 C310.32491285 149.92506121 297.67747762 151.81217621 287.92895508 151.68798828 C286.54309629 151.66756497 285.15724164 151.64685981 283.77139091 151.62589645 C280.03226125 151.57083639 276.29307603 151.52198401 272.55383658 151.47503424 C270.1858424 151.44504415 267.8178708 151.41362485 265.44989967 151.38187027 C232.3684673 150.94171573 199.28980227 150.84082675 166.20585632 150.87122726 C161.59406568 150.87535392 156.98227551 150.87711287 152.3704834 150.87869263 C106.92036586 150.89627774 61.47179824 151.07000522 16.02292252 151.40616608 Z " fill="#6B8EB7" transform="translate(273,237)"/>
<path d="M0 0 C2.50114086 1.26284611 4.84041448 2.6107202 7.19458008 4.12939453 C8.51292847 4.97473755 8.51292847 4.97473755 9.85791016 5.8371582 C11.25819458 6.74365112 11.25819458 6.74365112 12.68676758 7.66845703 C14.67222259 8.94354248 16.65790361 10.21827605 18.64379883 11.49267578 C19.63847168 12.13253418 20.63314453 12.77239258 21.65795898 13.43164062 C25.88123852 16.13945378 30.12732515 18.81047751 34.37426758 21.48095703 C40.25800633 25.18663957 46.11000977 28.93639 51.93676758 32.73095703 C59.22027697 37.47115582 66.59071851 42.06315999 73.99291992 46.61547852 C83.21884147 52.29220589 92.33228992 58.1423786 101.4519043 63.98779297 C113.91551804 71.97593417 126.41398854 79.90635001 138.94262695 87.79199219 C147.24223257 93.01698642 155.52963259 98.25584034 163.74926758 103.60595703 C170.53356595 108.01884901 177.38079938 112.32540121 184.24926758 116.60595703 C199.23486948 125.94663069 214.14594635 135.39702213 228.93676758 145.04345703 C236.65113563 150.07365591 244.42181967 154.99993455 252.24731445 159.85498047 C257.02505558 162.8244373 261.79221794 165.81086854 266.56176758 168.79345703 C268.63075016 170.08647032 270.69976008 171.37943987 272.76879883 172.67236328 C276.24612668 174.84562231 279.72287431 177.01979882 283.19848633 179.19580078 C284.54872433 180.04088868 285.89898352 180.88594272 287.24926758 181.73095703 C287.88316406 182.12782715 288.51706055 182.52469727 289.17016602 182.93359375 C292.10621385 184.76920283 295.04749377 186.59507297 298.00317383 188.39892578 C303.4786512 191.74110028 308.92689304 195.11975878 314.31176758 198.60595703 C315.29661133 199.24146484 316.28145508 199.87697266 317.29614258 200.53173828 C319.56176758 202.29345703 319.56176758 202.29345703 320.56176758 205.29345703 C319.82763672 206.98144531 319.82763672 206.98144531 318.59692383 208.86376953 C318.13471436 209.58258301 317.67250488 210.30139648 317.19628906 211.04199219 C316.41813843 212.21834229 316.41813843 212.21834229 315.62426758 213.41845703 C315.08938721 214.24522949 314.55450684 215.07200195 314.00341797 215.92382812 C312.8277842 217.74091445 311.64813267 219.55540579 310.46508789 221.36767578 C307.80004423 225.46437707 305.17547899 229.58651324 302.54785156 233.70727539 C295.59914982 244.5994544 288.5971839 255.45712724 281.56176758 266.29345703 C274.89315975 263.31219706 268.87428798 259.59970162 262.85083008 255.50195312 C257.48696885 251.86951475 252.01880093 248.43391795 246.49926758 245.04345703 C236.33144292 238.7912497 226.26028328 232.39539765 216.19897461 225.97363281 C212.09777997 223.36074432 207.98680253 220.76344827 203.87426758 218.16845703 C203.09978271 217.67966064 202.32529785 217.19086426 201.52734375 216.68725586 C199.20568498 215.22233898 196.88377493 213.75782131 194.56176758 212.29345703 C183.61306164 205.38870115 172.67820346 198.46296317 161.76049805 191.50927734 C153.48297938 186.23899066 145.18836464 180.996118 136.88842773 175.76123047 C132.94516513 173.27362346 129.0035599 170.78339289 125.06176758 168.29345703 C123.47844198 167.29344479 121.89510865 166.29344478 120.31176758 165.29345703 C96.56176758 150.29345703 96.56176758 150.29345703 72.81176758 135.29345703 C72.02825928 134.79861816 71.24475098 134.3037793 70.4375 133.79394531 C68.85169433 132.79236668 67.26591966 131.79073895 65.68017578 130.7890625 C61.75992001 128.31281519 57.8391565 125.83738002 53.91723633 123.36376953 C46.35728048 118.59460887 38.80200576 113.81813214 31.25805664 109.02368164 C29.38996509 107.83664493 27.52083742 106.65123713 25.65063477 105.4675293 C21.24987316 102.67503892 16.87956004 99.85149195 12.56567383 96.92626953 C11.40479248 96.1471521 11.40479248 96.1471521 10.22045898 95.35229492 C8.7805817 94.38230065 7.34864658 93.40036906 5.92651367 92.40454102 C2.35430775 89.92134137 2.35430775 89.92134137 -1.8359375 89.49511719 C-4.75235445 90.38982433 -6.93591546 91.61162624 -9.50854492 93.25048828 C-10.47719482 93.86206787 -11.44584473 94.47364746 -12.44384766 95.10375977 C-13.47324463 95.76448486 -14.5026416 96.42520996 -15.56323242 97.10595703 C-16.63710205 97.7866626 -17.71097168 98.46736816 -18.81738281 99.16870117 C-21.00465475 100.555819 -23.18997143 101.94602493 -25.37329102 103.33935547 C-28.031159 105.03392097 -30.69481818 106.71838083 -33.36401367 108.39501953 C-43.40700069 114.70458615 -53.39282088 121.10253994 -63.37792969 127.50317383 C-70.41268983 132.00847256 -77.47444476 136.4660807 -84.56713867 140.87939453 C-91.41052798 145.13947078 -98.21520171 149.46139588 -105.02807617 153.77001953 C-107.38269406 155.25835174 -109.73837672 156.74498143 -112.09448242 158.23095703 C-120.55392911 163.56712088 -129.00211604 168.92047621 -137.43823242 174.29345703 C-149.31411021 181.85570754 -161.19266212 189.41377733 -173.14916992 196.84814453 C-183.27272488 203.14564949 -193.34662959 209.49971948 -203.31323242 216.04345703 C-210.6875876 220.88476002 -218.11518144 225.60080679 -225.66455078 230.16381836 C-234.44117744 235.47915737 -243.06663514 241.03125648 -251.71313477 246.5546875 C-273.74091686 260.60968339 -273.74091686 260.60968339 -283.43823242 266.29345703 C-286.19490257 263.68232193 -288.32367625 261.15339662 -290.28588867 257.90673828 C-290.8028833 257.05966309 -291.31987793 256.21258789 -291.85253906 255.33984375 C-292.39644287 254.43766113 -292.94034668 253.53547852 -293.50073242 252.60595703 C-294.66599853 250.69754906 -295.83268462 248.79000747 -297.00073242 246.88330078 C-297.58081055 245.93567871 -298.16088867 244.98805664 -298.75854492 244.01171875 C-301.1175183 240.19415922 -303.54993908 236.42748062 -306.00073242 232.66845703 C-306.43417969 231.99830566 -306.86762695 231.3281543 -307.31420898 230.63769531 C-309.80230161 226.79204516 -312.32036048 222.96848697 -314.86010742 219.15673828 C-315.99078718 217.43178678 -317.12100493 215.70653235 -318.25073242 213.98095703 C-318.79737549 213.17384277 -319.34401855 212.36672852 -319.90722656 211.53515625 C-320.39827881 210.7786377 -320.88933105 210.02211914 -321.39526367 209.24267578 C-321.83845947 208.57582764 -322.28165527 207.90897949 -322.73828125 207.22192383 C-323.43823242 205.29345703 -323.43823242 205.29345703 -322.78955078 203.2043457 C-321.3036786 201.10318553 -320.05128535 200.10299522 -317.86010742 198.77001953 C-316.7540918 198.08552734 -316.7540918 198.08552734 -315.62573242 197.38720703 C-314.82135742 196.90251953 -314.01698242 196.41783203 -313.18823242 195.91845703 C-311.45342905 194.848839 -309.71907162 193.77849742 -307.98510742 192.70751953 C-307.07567383 192.14967773 -306.16624023 191.59183594 -305.22924805 191.01708984 C-300.60073498 188.15868342 -296.02186429 185.22308012 -291.43823242 182.29345703 C-277.47606544 173.39928232 -263.48003098 164.56140311 -249.43823242 155.79345703 C-236.32369692 147.60349558 -223.21120236 139.41331247 -210.25073242 130.98095703 C-202.44690353 125.90513802 -194.55565427 120.97423051 -186.65429688 116.05200195 C-179.89166098 111.83606331 -173.15496751 107.58210515 -166.43823242 103.29345703 C-158.69644244 98.35030942 -150.92203115 93.46265763 -143.12573242 88.60595703 C-135.49599106 83.85197571 -127.90858955 79.04283927 -120.37524414 74.13769531 C-115.21772 70.78374551 -110.01428577 67.51011358 -104.78979492 64.26171875 C-99.14746824 60.74890656 -93.54092432 57.18157419 -87.93823242 53.60595703 C-80.02920447 48.55961274 -72.08884535 43.56648122 -64.12573242 38.60595703 C-56.49962651 33.85425024 -48.91505396 29.0485475 -41.38623047 24.14428711 C-36.12665048 20.7228457 -30.82344614 17.37708752 -25.47998047 14.08813477 C-21.87094019 11.85661129 -18.33066238 9.55548824 -14.83276367 7.15283203 C-14.06770508 6.63462891 -13.30264648 6.11642578 -12.5144043 5.58251953 C-11.03523749 4.57683925 -9.56589323 3.55651577 -8.1081543 2.52001953 C-7.43977539 2.06884766 -6.77139648 1.61767578 -6.08276367 1.15283203 C-5.49857666 0.74516602 -4.91438965 0.3375 -4.3125 -0.08251953 C-2.43823242 -0.70654297 -2.43823242 -0.70654297 0 0 Z " fill="#EC6700" transform="translate(401.438232421875,7.70654296875)"/>
<path d="M0 0 C10.41342925 -0.02312359 20.82685244 -0.04091517 31.24030209 -0.05181217 C36.07516827 -0.05704097 40.91001694 -0.06413854 45.74487305 -0.07543945 C50.4067712 -0.08626847 55.06865246 -0.09227686 59.73056221 -0.09487724 C61.51324288 -0.09673147 63.29592259 -0.10035203 65.07859612 -0.10573006 C67.5666596 -0.11294069 70.05465243 -0.11399093 72.54272461 -0.11352539 C73.28718842 -0.11712067 74.03165222 -0.12071594 74.79867554 -0.12442017 C79.88594784 -0.11405216 79.88594784 -0.11405216 81 1 C81.09504251 3.52541002 81.12557158 6.02337126 81.11352539 8.54907227 C81.11367142 9.33925751 81.11381744 10.12944275 81.1139679 10.943573 C81.11326857 13.56787822 81.10547527 16.19211336 81.09765625 18.81640625 C81.09579214 20.63101665 81.0943682 22.44562756 81.09336853 24.26023865 C81.08954279 29.0459023 81.07971204 33.8315358 81.06866455 38.6171875 C81.05845163 43.49674064 81.05387117 48.37629864 81.04882812 53.25585938 C81.03808982 62.83725286 81.02101273 72.41862393 81 82 C77.35489052 81.33792526 74.89272447 80.55032511 71.8046875 78.48046875 C71.01618408 77.95888184 70.22768066 77.43729492 69.4152832 76.89990234 C68.57698975 76.33480957 67.73869629 75.7697168 66.875 75.1875 C65.07497451 73.99495222 63.27417442 72.80357291 61.47265625 71.61328125 C60.10391357 70.70570068 60.10391357 70.70570068 58.70751953 69.77978516 C54.61172342 67.08741783 50.46499109 64.4787404 46.3125 61.875 C39.58244476 57.64469938 32.8943594 53.35541195 26.23095703 49.02099609 C20.5906564 45.36073013 14.8985491 41.78794754 9.17504883 38.25927734 C7.44185221 37.18594998 5.72033154 36.09382883 4 35 C3.28013916 34.61223389 2.56027832 34.22446777 1.81860352 33.82495117 C-0.45234756 31.54607357 -0.45466895 29.92467005 -0.45318604 26.78120422 C-0.43254089 26.09672714 -0.41189575 25.41225006 -0.390625 24.70703125 C-0.38496521 24.00100266 -0.37930542 23.29497406 -0.37347412 22.56755066 C-0.35110411 20.31517374 -0.30091199 18.06439497 -0.25 15.8125 C-0.22993556 14.28452821 -0.21168468 12.75653144 -0.1953125 11.22851562 C-0.15123802 7.48506244 -0.08221074 3.74280205 0 0 Z " fill="#EA6703" transform="translate(580,82)"/>
<path d="M0 0 C1.90656948 1.90656948 2.77490371 3.54980741 4 6 C3.67 6.66 3.34 7.32 3 8 C-0.96 7.67 -4.92 7.34 -9 7 C-9.66 8.32 -10.32 9.64 -11 11 C-10.25234375 11.01417969 -9.5046875 11.02835938 -8.734375 11.04296875 C-0.74849305 11.42971958 -0.74849305 11.42971958 2.625 14 C5.02470772 19.23572595 5.71086005 23.78378924 3.9375 29.3125 C1.2603248 33.02600108 -1.36601006 35.43745125 -5.95703125 36.41796875 C-10.05145711 36.70763177 -11.81003199 36.11960949 -15.375 33.875 C-20.31754854 28.46173255 -20.38582814 23.18038847 -20.25390625 16.109375 C-19.78103218 10.31848638 -18.59786456 5.11330474 -15.0625 0.4375 C-10.24565791 -2.91969297 -5.23771537 -2.16235956 0 0 Z M-9 18 C-10.23267348 19.00836062 -10.23267348 19.00836062 -10.09765625 21.06640625 C-10.08605469 21.89011719 -10.07445312 22.71382812 -10.0625 23.5625 C-10.05347656 24.38878906 -10.04445313 25.21507812 -10.03515625 26.06640625 C-10.02355469 26.70449219 -10.01195312 27.34257813 -10 28 C-8.10820797 28.6814823 -8.10820797 28.6814823 -6 29 C-3.62005632 27.05667668 -3.62005632 27.05667668 -3.75 23.5 C-3.62005632 19.94332332 -3.62005632 19.94332332 -6 18 C-6.99 18 -7.98 18 -9 18 Z " fill="#6C8EB6" transform="translate(575,527)"/>
<path d="M0 0 C3.61843463 3.43751289 4.84501656 6.35717551 5.3125 11.3125 C4.88357437 16.37382247 3.12403648 19.20237447 -0.75390625 22.484375 C-5.48419944 26 -5.48419944 26 -8 26 C-8 26.66 -8 27.32 -8 28 C-7.21753906 27.98839844 -6.43507813 27.97679687 -5.62890625 27.96484375 C-4.61699219 27.95582031 -3.60507812 27.94679688 -2.5625 27.9375 C-1.55316406 27.92589844 -0.54382813 27.91429687 0.49609375 27.90234375 C3 28 3 28 4 29 C4.125 32.5 4.125 32.5 4 36 C1.92898212 38.07101788 -2.34201959 37.18513468 -5.1875 37.1875 C-5.94353516 37.19974609 -6.69957031 37.21199219 -7.47851562 37.22460938 C-12.05194624 37.23650902 -15.69402494 36.73749871 -20 35 C-19.52761339 30.15627466 -18.33479612 27.62199695 -15.1875 23.9375 C-14.50042969 23.12152344 -13.81335938 22.30554688 -13.10546875 21.46484375 C-12.41066406 20.65144531 -11.71585938 19.83804687 -11 19 C-7.79140862 15.23117838 -6.46407961 12.98885579 -6 8 C-7.90584196 8.20376178 -7.90584196 8.20376178 -10 9 C-10.474375 9.680625 -10.94875 10.36125 -11.4375 11.0625 C-13 13 -13 13 -15.625 13.3125 C-18 13 -18 13 -19 12 C-18.78627173 8.22413388 -18.56071155 5.74094026 -16.25 2.6875 C-11.0338666 -1.22460005 -6.24949697 -1.83396453 0 0 Z " fill="#6C8EB6" transform="translate(575,461)"/>
<path d="M0 0 C0.74362793 0.01047363 1.48725586 0.02094727 2.25341797 0.03173828 C3.46191406 0.04140625 3.46191406 0.04140625 4.69482422 0.05126953 C5.95746094 0.07640625 5.95746094 0.07640625 7.24560547 0.10205078 C8.51984375 0.11558594 8.51984375 0.11558594 9.81982422 0.12939453 C11.9202043 0.15299431 14.02043991 0.18886595 16.12060547 0.22705078 C16.80810547 2.53955078 16.80810547 2.53955078 17.12060547 5.22705078 C16.00732422 7.02783203 16.00732422 7.02783203 14.12060547 8.22705078 C11.64013672 8.52001953 11.64013672 8.52001953 8.93310547 8.41455078 C8.03205078 8.38748047 7.13099609 8.36041016 6.20263672 8.33251953 C5.51556641 8.29771484 4.82849609 8.26291016 4.12060547 8.22705078 C4.12060547 9.21705078 4.12060547 10.20705078 4.12060547 11.22705078 C4.87986328 11.31341797 5.63912109 11.39978516 6.42138672 11.48876953 C14.54807228 12.63767839 14.54807228 12.63767839 17.24560547 15.41455078 C18.8059405 20.42991338 19.56003071 23.7867125 17.99560547 28.91455078 C15.70821414 32.95560879 13.24874642 35.1629803 9.12060547 37.22705078 C3.07688998 37.81957191 -0.18219486 36.89086652 -4.87939453 33.22705078 C-5.87939453 29.53955078 -5.87939453 29.53955078 -5.87939453 26.22705078 C-5.54939453 25.89705078 -5.21939453 25.56705078 -4.87939453 25.22705078 C1.46318296 25.69687134 1.46318296 25.69687134 4.05810547 27.78955078 C4.40873047 28.26392578 4.75935547 28.73830078 5.12060547 29.22705078 C6.11060547 28.89705078 7.10060547 28.56705078 8.12060547 28.22705078 C8.1630227 25.89410303 8.16153484 23.56002511 8.12060547 21.22705078 C7.03508181 19.91442507 7.03508181 19.91442507 4.39794922 20.12939453 C3.29580078 20.14099609 2.19365234 20.15259766 1.05810547 20.16455078 C-0.04662109 20.17357422 -1.15134766 20.18259766 -2.28955078 20.19189453 C-3.14419922 20.20349609 -3.99884766 20.21509766 -4.87939453 20.22705078 C-4.76580977 17.2678688 -4.63906367 14.31028295 -4.50439453 11.35205078 C-4.47345703 10.51029297 -4.44251953 9.66853516 -4.41064453 8.80126953 C-4.37197266 7.99560547 -4.33330078 7.18994141 -4.29345703 6.35986328 C-4.26203613 5.61623535 -4.23061523 4.87260742 -4.19824219 4.10644531 C-3.74042095 1.40789408 -2.73631997 0.33057646 0 0 Z " fill="#6C8EB6" transform="translate(407.87939453125,592.77294921875)"/>
<path d="M0 0 C2.27252249 1.4746635 3.88850666 2.65982581 5.11328125 5.109375 C5.66835424 10.88213415 4.75385606 13.62866754 1.11328125 18.109375 C-1.11446244 20.56038922 -3.33873404 22.98814635 -5.88671875 25.109375 C-6.54671875 25.109375 -7.20671875 25.109375 -7.88671875 25.109375 C-7.88671875 25.769375 -7.88671875 26.429375 -7.88671875 27.109375 C-7.03207031 27.16996094 -6.17742187 27.23054687 -5.296875 27.29296875 C-4.19214844 27.37675781 -3.08742187 27.46054687 -1.94921875 27.546875 C-0.29599609 27.66869141 -0.29599609 27.66869141 1.390625 27.79296875 C4.11328125 28.109375 4.11328125 28.109375 5.11328125 29.109375 C5.23828125 31.609375 5.23828125 31.609375 5.11328125 34.109375 C3.42811171 35.79454454 1.32560337 35.23945519 -0.98046875 35.2421875 C-2.01042969 35.24347656 -3.04039062 35.24476563 -4.1015625 35.24609375 C-5.72771484 35.24029297 -5.72771484 35.24029297 -7.38671875 35.234375 C-8.47082031 35.23824219 -9.55492187 35.24210938 -10.671875 35.24609375 C-11.70183594 35.24480469 -12.73179687 35.24351562 -13.79296875 35.2421875 C-14.74494141 35.24105957 -15.69691406 35.23993164 -16.67773438 35.23876953 C-18.88671875 35.109375 -18.88671875 35.109375 -19.88671875 34.109375 C-20.31348111 30.4350552 -20.29055962 28.68193161 -18.12890625 25.6171875 C-17.34773437 24.83085938 -16.5665625 24.04453125 -15.76171875 23.234375 C-12.81929362 20.14785007 -9.94417912 17.10199792 -7.32421875 13.734375 C-6.61072266 12.82558594 -6.61072266 12.82558594 -5.8828125 11.8984375 C-4.56241703 9.86818181 -4.56241703 9.86818181 -4.88671875 6.109375 C-6.53671875 6.109375 -8.18671875 6.109375 -9.88671875 6.109375 C-9.96921875 6.728125 -10.05171875 7.346875 -10.13671875 7.984375 C-10.88671875 10.109375 -10.88671875 10.109375 -12.63671875 11.421875 C-15.39991904 12.2661862 -17.13477011 11.87380518 -19.88671875 11.109375 C-19.63313345 6.79842492 -19.30211965 4.61222872 -16.51171875 1.234375 C-11.59983242 -2.74191394 -5.66813931 -2.6756434 0 0 Z " fill="#6B8EB6" transform="translate(242.88671875,661.890625)"/>
<path d="M0 0 C2.19643965 3.33858827 2.85791731 6.44594974 2.5625 10.375 C0.10250652 16.21748452 -3.82245534 20.10997277 -8.4375 24.375 C-7.82261719 24.49617187 -7.20773437 24.61734375 -6.57421875 24.7421875 C-5.76597656 24.90976562 -4.95773437 25.07734375 -4.125 25.25 C-3.32449219 25.41242187 -2.52398437 25.57484375 -1.69921875 25.7421875 C0.5625 26.375 0.5625 26.375 3.5625 28.375 C3.5625 29.695 3.5625 31.015 3.5625 32.375 C0.42399936 33.30053743 -2.37430778 33.49164647 -5.640625 33.47265625 C-6.6203125 33.46943359 -7.6 33.46621094 -8.609375 33.46289062 C-9.62515625 33.45451172 -10.6409375 33.44613281 -11.6875 33.4375 C-13.234375 33.43073242 -13.234375 33.43073242 -14.8125 33.42382812 C-17.35422573 33.41206088 -19.89583319 33.39562011 -22.4375 33.375 C-22.00178522 28.15283023 -21.11561787 25.2754558 -17.6875 21.3125 C-16.97078125 20.46300781 -16.2540625 19.61351562 -15.515625 18.73828125 C-14.28160531 17.33493179 -13.04354937 15.93508846 -11.796875 14.54296875 C-8.74598229 11.08533121 -8.74598229 11.08533121 -8.4375 6.375 C-9.7575 6.045 -11.0775 5.715 -12.4375 5.375 C-12.685 6.179375 -12.9325 6.98375 -13.1875 7.8125 C-14.4375 10.375 -14.4375 10.375 -16.375 11.3125 C-18.4375 11.375 -18.4375 11.375 -21.4375 9.375 C-21.03456614 3.73392602 -19.38025538 1.22814731 -15.4375 -2.625 C-10.31629547 -4.83957493 -4.46258538 -2.97505692 0 0 Z " fill="#6C8EB6" transform="translate(473.4375,595.625)"/>
<path d="M0 0 C3.19805839 2.8934814 4.9000849 5.50127347 5.1875 9.8125 C5 13 5 13 3.8125 15.625 C3.544375 16.40875 3.27625 17.1925 3 18 C3.474375 18.5775 3.94875 19.155 4.4375 19.75 C6.61943618 22.8919881 6.25514862 25.10866237 5.71875 28.80859375 C4.48663557 32.56520352 2.25977754 33.87116569 -1 36 C-4.20244278 37.60122139 -7.5172435 37.35604388 -11 37 C-14.6864492 35.70291602 -16.44293889 34.94458188 -18.4375 31.5625 C-19.01980572 28.90977395 -18.93297997 27.51904593 -18 25 C-11.25 25.75 -11.25 25.75 -9 28 C-6.39719432 27.67958603 -6.39719432 27.67958603 -4 27 C-4.18415432 24.05908413 -4.18415432 24.05908413 -5 21 C-6.95163118 19.56362302 -6.95163118 19.56362302 -9 19 C-9 17.35 -9 15.7 -9 14 C-8.360625 13.7525 -7.72125 13.505 -7.0625 13.25 C-4.81258459 12.18437567 -4.81258459 12.18437567 -4.25 9.875 C-4.1675 9.25625 -4.085 8.6375 -4 8 C-7.67539032 8.4295555 -7.67539032 8.4295555 -10.5 10.625 C-10.995 11.07875 -11.49 11.5325 -12 12 C-14.6875 11.6875 -14.6875 11.6875 -17 11 C-17.8125 9.375 -17.8125 9.375 -18 7 C-12.80787286 -0.15671579 -8.62769252 -1.17418301 0 0 Z " fill="#6B8EB6" transform="translate(497,593)"/>
<path d="M0 0 C3.68623011 1.61272567 4.75355 2.630325 7 6 C7.52173913 14.2173913 7.52173913 14.2173913 5 18 C5.66 18.66 6.32 19.32 7 20 C8.43039614 25.61155407 7.89280695 28.98580129 5 34 C1.38923309 37.29216983 -2.15566089 37.45677927 -6.8515625 37.29296875 C-9.8175706 36.8885131 -11.66989614 35.85037659 -14 34 C-14.598125 33.54625 -15.19625 33.0925 -15.8125 32.625 C-17.46721299 30.3606559 -17.28772081 28.73334769 -17 26 C-16.67 25.67 -16.34 25.34 -16 25 C-12.5625 25.25 -12.5625 25.25 -9 26 C-8.34 26.99 -7.68 27.98 -7 29 C-5.68 28.67 -4.36 28.34 -3 28 C-1.98888907 24.95086772 -1.98888907 24.95086772 -3 22 C-4.64142963 20.9590934 -6.30712215 19.95495674 -8 19 C-7.67 17.35 -7.34 15.7 -7 14 C-5.68 13.67 -4.36 13.34 -3 13 C-2.67 11.35 -2.34 9.7 -2 8 C-5.29075996 8.37904208 -5.29075996 8.37904208 -8 10 C-9.99958364 10.04080783 -12.00045254 10.04254356 -14 10 C-14.8125 7.8125 -14.8125 7.8125 -15 5 C-11.18319518 -0.92262816 -6.4533166 -0.9871027 0 0 Z " fill="#6C8EB6" transform="translate(265,593)"/>
<path d="M0 0 C2.71486934 3.97610786 2.22440753 8.13901977 2.125 12.75 C2.11597656 13.54277344 2.10695313 14.33554687 2.09765625 15.15234375 C2.07417012 17.10169281 2.03830137 19.05088575 2 21 C2.99 21.33 3.98 21.66 5 22 C5.6875 24.8125 5.6875 24.8125 6 28 C4.6875 29.5625 4.6875 29.5625 3 31 C1.80972016 33.59915538 1.80972016 33.59915538 1 36 C-0.98 36 -2.96 36 -5 36 C-5.66 34.02 -6.32 32.04 -7 30 C-7.60328125 30.01160156 -8.2065625 30.02320313 -8.828125 30.03515625 C-10.02695312 30.04869141 -10.02695312 30.04869141 -11.25 30.0625 C-12.43335938 30.07990234 -12.43335938 30.07990234 -13.640625 30.09765625 C-15.90691002 30.00385306 -17.8288895 29.63241063 -20 29 C-21.19602209 18.43513824 -14.80239279 10.63726294 -8.515625 2.6796875 C-5.86034052 -0.26302469 -3.80495484 -0.10013039 0 0 Z M-9 14 C-9.66 16.64 -10.32 19.28 -11 22 C-9.68 22 -8.36 22 -7 22 C-7.33 19.36 -7.66 16.72 -8 14 C-8.33 14 -8.66 14 -9 14 Z " fill="#6B8EB6" transform="translate(422,526)"/>
<path d="M0 0 C2 1.625 2 1.625 3 3.625 C3.42535668 7.86220693 3.68440794 11.45580311 1.5 15.1875 C1.005 15.661875 0.51 16.13625 0 16.625 C0.639375 16.91375 1.27875 17.2025 1.9375 17.5 C4 18.625 4 18.625 5 20.625 C5.47524514 24.0875003 5.65731659 26.5703813 3.765625 29.60546875 C1.26988098 32.6015971 -0.23602931 34.3703431 -4 35.625 C-10.14281433 36.08860863 -13.93497548 34.87268465 -18.875 31.25 C-20.42996545 29.00393879 -20.21609829 27.29021224 -20 24.625 C-16.535 24.13 -16.535 24.13 -13 23.625 C-12.566875 24.285 -12.13375 24.945 -11.6875 25.625 C-10.8521875 26.615 -10.8521875 26.615 -10 27.625 C-9.01 27.625 -8.02 27.625 -7 27.625 C-6.26665571 23.64745872 -6.26665571 23.64745872 -6 19.625 C-7.32 18.965 -8.64 18.305 -10 17.625 C-9.25 12.875 -9.25 12.875 -7 10.625 C-6.3574765 8.55625966 -6.3574765 8.55625966 -6 6.625 C-7.98 6.955 -9.96 7.285 -12 7.625 C-12 8.285 -12 8.945 -12 9.625 C-13.66611905 9.667721 -15.33382885 9.66563832 -17 9.625 C-18 8.625 -18 8.625 -18.25 5.75 C-18 2.625 -18 2.625 -16.6875 0.8125 C-11.86635598 -2.5801569 -5.17430094 -2.3715546 0 0 Z " fill="#6B8EB7" transform="translate(345,527.375)"/>
<path d="M0 0 C2.5625 0.25 2.5625 0.25 5 1 C6.41634833 3.83269666 6.3463005 6.47466438 6.5625 9.625 C6.64628906 10.81351562 6.73007813 12.00203125 6.81640625 13.2265625 C6.87699219 14.14179688 6.93757812 15.05703125 7 16 C7.99 16 8.98 16 10 16 C10.04898438 15.25234375 10.09796875 14.5046875 10.1484375 13.734375 C10.22320312 12.74953125 10.29796875 11.7646875 10.375 10.75 C10.44460937 9.77546875 10.51421875 8.8009375 10.5859375 7.796875 C10.98910348 5.07360292 11.52789508 3.30876887 13 1 C15.68232827 -0.34116414 17.81832259 -0.16904021 20.8125 -0.1875 C21.85019531 -0.20167969 22.88789063 -0.21585937 23.95703125 -0.23046875 C27.03770533 0.00285573 29.21761592 0.69881114 32 2 C31.67 3.32 31.34 4.64 31 6 C29.68 6 28.36 6 27 6 C26.96261719 7.13179688 26.92523438 8.26359375 26.88671875 9.4296875 C26.82106918 10.91149205 26.75462149 12.39326139 26.6875 13.875 C26.66494141 14.62136719 26.64238281 15.36773437 26.61914062 16.13671875 C26.52188055 18.099604 26.26957706 20.05328322 26 22 C25.01 22.66 24.02 23.32 23 24 C20.26094663 20.84821256 19.44730607 18.35182386 18.8125 14.25 C18.65394531 13.26515625 18.49539063 12.2803125 18.33203125 11.265625 C18.22246094 10.51796875 18.11289062 9.7703125 18 9 C17.90912109 10.49853516 17.90912109 10.49853516 17.81640625 12.02734375 C17.73261719 13.31769531 17.64882813 14.60804688 17.5625 15.9375 C17.48128906 17.22527344 17.40007812 18.51304687 17.31640625 19.83984375 C17 23 17 23 16 24 C13.15664952 24.09986975 10.34302837 24.13877881 7.5 24.125 C6.70207031 24.12886719 5.90414062 24.13273437 5.08203125 24.13671875 C-0.87339233 24.12660767 -0.87339233 24.12660767 -2 23 C-2.25098924 19.52791193 -2.18522096 16.0425938 -2.1875 12.5625 C-2.19974609 11.58216797 -2.21199219 10.60183594 -2.22460938 9.59179688 C-2.22750977 8.18704102 -2.22750977 8.18704102 -2.23046875 6.75390625 C-2.23457764 5.89095947 -2.23868652 5.0280127 -2.24291992 4.13891602 C-2 2 -2 2 0 0 Z " fill="#6C8EB6" transform="translate(244,408)"/>
<path d="M0 0 C3.07469523 1.70251719 5.40613254 3.81226508 7 7 C7.1875 10 7.1875 10 7 13 C6.34 13.66 5.68 14.32 5 15 C5.38878188 18.01305957 6.26456874 19.39685311 8 22 C8.48256365 26.26264558 8.26873267 28.49132744 6.25 32.3125 C2.89611122 36.31853383 1.39793774 36.86249793 -3.8125 37.375 C-8.55880569 37.22390038 -11.27663298 35.9634962 -15 33 C-15.9375 29.25 -15.9375 29.25 -16 26 C-13.75 25.25 -13.75 25.25 -11 25 C-9.64567325 26.31200404 -8.31266518 27.64631404 -7 29 C-4.33165034 29.33498301 -4.33165034 29.33498301 -2 29 C-2.28469565 25.01426096 -2.98204853 22.73365689 -5.625 19.8125 C-6.40875 18.884375 -7.1925 17.95625 -8 17 C-7 14 -7 14 -4.9375 12.8125 C-3.9784375 12.4103125 -3.9784375 12.4103125 -3 12 C-3.26676204 10.01508358 -3.26676204 10.01508358 -4 8 C-4.99 7.67 -5.98 7.34 -7 7 C-7.2475 7.639375 -7.495 8.27875 -7.75 8.9375 C-9 11 -9 11 -10.9375 11.875 C-13 12 -13 12 -16 10 C-15.52048204 5.68433833 -14.29764982 3.7980059 -11 1 C-7.51556578 -0.74221711 -3.80112955 -0.58675154 0 0 Z " fill="#6C8EB6" transform="translate(494,526)"/>
<path d="M0 0 C1.65 0 3.3 0 5 0 C5.66 3.3 6.32 6.6 7 10 C7.99 7.03 8.98 4.06 10 1 C12.3125 0.3125 12.3125 0.3125 15 0 C17.88445028 1.70930387 18.14708071 3.4567243 19.1875 6.6875 C19.455625 7.780625 19.72375 8.87375 20 10 C21.32 7.03 22.64 4.06 24 1 C25.32 1 26.64 1 28 1 C28.65523219 8.04374605 26.50705231 14.45787446 24 21 C22 23 22 23 19.375 23.125 C18.59125 23.08375 17.8075 23.0425 17 23 C15.50178941 19.62902617 15 17.79557881 15 14 C14.34 14 13.68 14 13 14 C12.938125 14.928125 12.87625 15.85625 12.8125 16.8125 C12 20 12 20 9.6875 21.9375 C7 23 7 23 4.8125 23 C3 22 3 22 1.875 20.0625 C0.09753298 13.84136542 -1.50082602 7.51073829 -1 1 C-0.67 0.67 -0.34 0.34 0 0 Z " fill="#6B8EB6" transform="translate(376,408)"/>
<path d="M0 0 C1.11375 0.3403125 1.11375 0.3403125 2.25 0.6875 C3.06447532 4.96571968 3.37848798 9.01064695 3.3828125 13.36328125 C3.38410156 14.60271484 3.38539063 15.84214844 3.38671875 17.11914062 C3.38285156 18.39982422 3.37898437 19.68050781 3.375 21 C3.38080078 22.9500293 3.38080078 22.9500293 3.38671875 24.93945312 C3.38542969 26.17244141 3.38414062 27.40542969 3.3828125 28.67578125 C3.38168457 29.80540283 3.38055664 30.93502441 3.37939453 32.09887695 C3.25 34.6875 3.25 34.6875 2.25 35.6875 C-1.1875 35.9375 -1.1875 35.9375 -4.75 35.6875 C-6.88604308 32.48343538 -6.99208908 31.69149253 -6.9453125 28.01953125 C-6.93886719 27.12685547 -6.93242188 26.23417969 -6.92578125 25.31445312 C-6.90902344 24.38568359 -6.89226563 23.45691406 -6.875 22.5 C-6.86597656 21.55962891 -6.85695313 20.61925781 -6.84765625 19.65039062 C-6.82409056 17.32917032 -6.79119116 15.00846356 -6.75 12.6875 C-7.53632812 12.72488281 -8.32265625 12.76226563 -9.1328125 12.80078125 C-11.75 12.6875 -11.75 12.6875 -13.625 10.875 C-13.99625 10.153125 -14.3675 9.43125 -14.75 8.6875 C-14.42 7.6975 -14.09 6.7075 -13.75 5.6875 C-11.43745988 4.64031202 -9.1014852 3.64403635 -6.75 2.6875 C-6.04875 2.11 -5.3475 1.5325 -4.625 0.9375 C-2.75 -0.3125 -2.75 -0.3125 0 0 Z " fill="#6C8EB5" transform="translate(571.75,593.3125)"/>
<path d="M0 0 C1.625 0.8125 1.625 0.8125 2.609375 3.59375 C4.08518861 8.77734974 3.91610405 13.96212285 3.875 19.3125 C3.88273438 20.31925781 3.89046875 21.32601563 3.8984375 22.36328125 C3.88390881 27.90597516 3.47740409 32.57872337 1.625 37.8125 C-0.355 37.4825 -2.335 37.1525 -4.375 36.8125 C-6.06061267 31.59806404 -6.76012698 26.83710865 -7 21.375 C-7.03867187 20.64345703 -7.07734375 19.91191406 -7.1171875 19.15820312 C-7.21033984 17.37666468 -7.29370286 15.59461878 -7.375 13.8125 C-9.025 13.4825 -10.675 13.1525 -12.375 12.8125 C-12.705 11.8225 -13.035 10.8325 -13.375 9.8125 C-11.72946591 8.11856785 -10.07080608 6.45517377 -8.375 4.8125 C-7.61896484 4.07966797 -7.61896484 4.07966797 -6.84765625 3.33203125 C-2.92538149 -0.23095117 -2.92538149 -0.23095117 0 0 Z " fill="#6C8EB6" transform="translate(544.375,460.1875)"/>
<path d="M0 0 C1.875 0.6875 1.875 0.6875 2.875 1.6875 C3.11777048 6.05037975 3.10353591 10.41895178 3.11523438 14.7878418 C3.12491478 16.98069551 3.15591227 19.17260191 3.1875 21.36523438 C3.19403249 22.7604111 3.19928199 24.15559453 3.203125 25.55078125 C3.2124707 26.82219971 3.22181641 28.09361816 3.23144531 29.40356445 C2.85511023 32.8707447 2.38023878 34.30069204 -0.125 36.6875 C-2.8125 36.9375 -2.8125 36.9375 -5.125 36.6875 C-6.35902862 31.91657044 -6.23765112 27.26280554 -6.1875 22.375 C-6.18298828 21.53904297 -6.17847656 20.70308594 -6.17382812 19.84179688 C-6.16210548 17.79033351 -6.14417203 15.73890727 -6.125 13.6875 C-8.435 13.3575 -10.745 13.0275 -13.125 12.6875 C-14.05923645 9.67718256 -14.16949911 8.82099732 -13.125 5.6875 C-11.3828125 4.58984375 -11.3828125 4.58984375 -9.25 3.625 C-1.02979599 -0.15144059 -1.02979599 -0.15144059 0 0 Z " fill="#6C8EB6" transform="translate(267.125,660.3125)"/>
<path d="M0 0 C0.71542969 0.23589844 1.43085938 0.47179687 2.16796875 0.71484375 C3.29878367 4.84947562 3.5156734 8.95120031 3.73046875 13.21484375 C3.77220215 14.01204834 3.81393555 14.80925293 3.85693359 15.63061523 C4.52302853 29.12787367 4.52302853 29.12787367 4.16796875 34.71484375 C3.16796875 35.71484375 3.16796875 35.71484375 -0.39453125 35.77734375 C-1.52890625 35.75671875 -2.66328125 35.73609375 -3.83203125 35.71484375 C-5.80546777 30.69300935 -6.24065865 26.15900343 -6.45703125 20.83984375 C-6.49570312 20.05609375 -6.534375 19.27234375 -6.57421875 18.46484375 C-6.66769747 16.54853008 -6.7509162 14.63172056 -6.83203125 12.71484375 C-8.48203125 12.71484375 -10.13203125 12.71484375 -11.83203125 12.71484375 C-12.16203125 10.73484375 -12.49203125 8.75484375 -12.83203125 6.71484375 C-11.28354394 5.50912839 -9.71758919 4.32582201 -8.14453125 3.15234375 C-7.27441406 2.49105469 -6.40429688 1.82976563 -5.5078125 1.1484375 C-2.83203125 -0.28515625 -2.83203125 -0.28515625 0 0 Z " fill="#6C8EB6" transform="translate(390.83203125,593.28515625)"/>
<path d="M0 0 C1.50606515 3.01213029 1.12160331 6.11282622 1.09765625 9.4140625 C1.0962413 10.14370209 1.09482635 10.87334167 1.09336853 11.62509155 C1.08776531 13.95843585 1.07521235 16.29168464 1.0625 18.625 C1.05748541 20.20572778 1.05292243 21.78645707 1.04882812 23.3671875 C1.03779484 27.24482854 1.02052811 31.12239807 1 35 C-1.64 35 -4.28 35 -7 35 C-8.17469444 32.65061112 -8.20034889 31.04926795 -8.31640625 28.4296875 C-8.37924805 27.08583984 -8.37924805 27.08583984 -8.44335938 25.71484375 C-8.48267578 24.77769531 -8.52199219 23.84054687 -8.5625 22.875 C-8.60568359 21.93011719 -8.64886719 20.98523438 -8.69335938 20.01171875 C-8.79959072 17.67462908 -8.90163176 15.3374317 -9 13 C-10.98 12.01 -12.96 11.02 -15 10 C-15.5 7.8125 -15.5 7.8125 -15 5 C-10.74661718 1.42081306 -5.57324244 -2.04352223 0 0 Z " fill="#6B8EB7" transform="translate(344,662)"/>
<path d="M0 0 C2.6875 -0.25 2.6875 -0.25 5 0 C6.75857606 4.54552357 7.23686694 8.28656852 7.1953125 13.1484375 C7.1924826 13.80582916 7.18965271 14.46322083 7.18673706 15.14053345 C7.17563447 17.21888233 7.15054986 19.29678366 7.125 21.375 C7.11495731 22.79296248 7.10583373 24.21093179 7.09765625 25.62890625 C7.07572805 29.08608037 7.04126818 32.54299642 7 36 C3.625 36.125 3.625 36.125 0 36 C-2.3968665 33.6031335 -2.28281133 32.92971686 -2.4140625 29.6484375 C-2.45273437 28.79765625 -2.49140625 27.946875 -2.53125 27.0703125 C-2.5621875 26.18085937 -2.593125 25.29140625 -2.625 24.375 C-2.66367187 23.4778125 -2.70234375 22.580625 -2.7421875 21.65625 C-2.83659357 19.4377073 -2.92216748 17.21917597 -3 15 C-4.98 14.01 -6.96 13.02 -9 12 C-9 10.02 -9 8.04 -9 6 C-8.071875 5.7525 -7.14375 5.505 -6.1875 5.25 C-2.92878265 4.29924262 -2.92878265 4.29924262 -1.4375 1.875 C-0.963125 1.25625 -0.48875 0.6375 0 0 Z " fill="#6B8EB6" transform="translate(338,593)"/>
<path d="M0 0 C2.5625 0.25 2.5625 0.25 5 1 C6.11755064 3.23510129 6.19417924 4.63032678 6.31640625 7.11328125 C6.35838135 7.94375977 6.40035645 8.77423828 6.44360352 9.62988281 C6.48283936 10.51514648 6.5220752 11.40041016 6.5625 12.3125 C6.6049585 13.20936523 6.64741699 14.10623047 6.69116211 15.03027344 C7.00280499 22.02562147 7.11500309 28.99758976 7 36 C3.625 36.125 3.625 36.125 0 36 C-2.44664173 33.55335827 -2.347875 32.58948215 -2.6328125 29.2109375 C-2.71660156 28.26992188 -2.80039063 27.32890625 -2.88671875 26.359375 C-2.96535156 25.37453125 -3.04398438 24.3896875 -3.125 23.375 C-3.21136719 22.38242187 -3.29773438 21.38984375 -3.38671875 20.3671875 C-3.5991844 17.91202889 -3.80325544 15.45646026 -4 13 C-5.65 12.67 -7.3 12.34 -9 12 C-9.33 10.35 -9.66 8.7 -10 7 C-9.44570312 6.66226563 -8.89140625 6.32453125 -8.3203125 5.9765625 C-7.59585938 5.53054688 -6.87140625 5.08453125 -6.125 4.625 C-5.04605469 3.96371094 -5.04605469 3.96371094 -3.9453125 3.2890625 C-1.88206418 2.0146287 -1.88206418 2.0146287 0 0 Z " fill="#6B8EB7" transform="translate(235,593)"/>
<path d="M0 0 C2.375 0.25 2.375 0.25 3.375 1.25 C3.50062812 3.66320199 3.56361547 6.04627041 3.578125 8.4609375 C3.58382507 9.18487701 3.58952515 9.90881653 3.59539795 10.6546936 C3.6048612 12.18970268 3.61138717 13.7247322 3.61523438 15.25976562 C3.6249316 17.60843425 3.65593729 19.95622481 3.6875 22.3046875 C3.69403069 23.79426562 3.6992809 25.28385002 3.703125 26.7734375 C3.7154718 27.47665131 3.7278186 28.17986511 3.74053955 28.90438843 C3.72722765 31.81965106 3.68914293 33.78853877 2.02246094 36.23681641 C0.375 37.25 0.375 37.25 -2.3125 36.9375 C-3.075625 36.710625 -3.83875 36.48375 -4.625 36.25 C-5.56788183 31.2899662 -5.92748211 26.40485426 -6.1875 21.375 C-6.23068359 20.59125 -6.27386719 19.8075 -6.31835938 19 C-6.42353351 17.08349351 -6.52467925 15.16676667 -6.625 13.25 C-8.605 12.59 -10.585 11.93 -12.625 11.25 C-12.5 8.9375 -12.5 8.9375 -11.625 6.25 C-8.75 4.625 -8.75 4.625 -5.625 3.25 C-5.109375 2.693125 -4.59375 2.13625 -4.0625 1.5625 C-2.625 0.25 -2.625 0.25 0 0 Z " fill="#6B8EB7" transform="translate(266.625,525.75)"/>
<path d="M0 0 C4.37232376 1.68930691 5.51230815 5.03465466 7.75 9.0625 C8.74 6.0925 9.73 3.1225 10.75 0.0625 C11.74 0.0625 12.73 0.0625 13.75 0.0625 C16.13328334 6.76548438 16.98485013 13.92691701 14.921875 20.8359375 C13.75 23.0625 13.75 23.0625 10.75 24.0625 C7.36988409 21.83657001 5.23781815 19.84967347 3.75 16.0625 C3.42 16.0625 3.09 16.0625 2.75 16.0625 C2.481875 17.031875 2.21375 18.00125 1.9375 19 C1.545625 20.010625 1.15375 21.02125 0.75 22.0625 C-0.24 22.3925 -1.23 22.7225 -2.25 23.0625 C-5.03108006 16.75947839 -6.00033435 10.171028 -4.375 3.4375 C-2.78333333 0.07731481 -2.78333333 0.07731481 0 0 Z " fill="#6C8EB5" transform="translate(411.25,407.9375)"/>
<path d="M0 0 C2.625 -0.1875 2.625 -0.1875 5 0 C6.75857606 4.54552357 7.23686694 8.28656852 7.1953125 13.1484375 C7.1924826 13.80582916 7.18965271 14.46322083 7.18673706 15.14053345 C7.17563447 17.21888233 7.15054986 19.29678366 7.125 21.375 C7.11495731 22.79296248 7.10583373 24.21093179 7.09765625 25.62890625 C7.07572805 29.08608037 7.04126818 32.54299642 7 36 C3.625 36.1875 3.625 36.1875 0 36 C-2.08745045 32.86882433 -2.27653996 31.93053776 -2.4140625 28.33203125 C-2.45273437 27.43935547 -2.49140625 26.54667969 -2.53125 25.62695312 C-2.5621875 24.69818359 -2.593125 23.76941406 -2.625 22.8125 C-2.66367187 21.87212891 -2.70234375 20.93175781 -2.7421875 19.96289062 C-2.83643187 17.6421229 -2.92204025 15.32136252 -3 13 C-5.97 12.505 -5.97 12.505 -9 12 C-8.875 9.75 -8.875 9.75 -8 7 C-5.0625 4.875 -5.0625 4.875 -2 3 C-1.34 2.01 -0.68 1.02 0 0 Z " fill="#6B8EB7" transform="translate(311,593)"/>
<path d="M0 0 C1.83559837 1.83559837 1.13044355 4.76997497 1.1328125 7.23046875 C1.13474609 9.14762695 1.13474609 9.14762695 1.13671875 11.10351562 C1.13357666 12.10958862 1.13357666 12.10958862 1.13037109 13.13598633 C1.12506755 15.16169897 1.13029186 17.18718534 1.13671875 19.21289062 C1.13542969 20.49744141 1.13414062 21.78199219 1.1328125 23.10546875 C1.13168457 24.28262451 1.13055664 25.45978027 1.12939453 26.67260742 C1.00518213 29.86674095 0.60024285 32.86377581 0 36 C-1.8125 36.6875 -1.8125 36.6875 -4 37 C-6.17237207 35.39563806 -6.91216639 34.38009412 -7.52416992 31.73168945 C-7.62628784 30.43557739 -7.62628784 30.43557739 -7.73046875 29.11328125 C-7.81103516 28.17548828 -7.89160156 27.23769531 -7.97460938 26.27148438 C-8.04486328 25.29501953 -8.11511719 24.31855469 -8.1875 23.3125 C-8.26935547 22.32443359 -8.35121094 21.33636719 -8.43554688 20.31835938 C-8.63583026 17.87961463 -8.82347846 15.44056084 -9 13 C-10.98 12.34 -12.96 11.68 -15 11 C-15 9.68 -15 8.36 -15 7 C-10.92857143 4 -10.92857143 4 -8 4 C-8 3.34 -8 2.68 -8 2 C-4.77786243 -0.14809171 -3.72224599 -0.29386153 0 0 Z " fill="#6B8EB7" transform="translate(546,526)"/>
<path d="M0 0 C1.6875 0.875 1.6875 0.875 2.6875 1.875 C2.80072434 4.29990371 2.85166875 6.69526862 2.85546875 9.12109375 C2.85879715 9.84740494 2.86212555 10.57371613 2.86555481 11.32203674 C2.87062675 12.86125046 2.87296305 14.4004752 2.87280273 15.93969727 C2.87498766 18.29917471 2.89313565 20.65818361 2.91210938 23.01757812 C2.91504352 24.51041506 2.91702817 26.00325423 2.91796875 27.49609375 C2.92515427 28.20446884 2.93233978 28.91284393 2.93974304 29.64268494 C2.91632337 34.64617663 2.91632337 34.64617663 0.6875 36.875 C-1.9375 36.5 -1.9375 36.5 -4.3125 35.875 C-5.06527515 33.14250659 -5.47891703 30.59399317 -5.62890625 27.765625 C-5.67080078 27.01152344 -5.71269531 26.25742187 -5.75585938 25.48046875 C-5.79517578 24.70316406 -5.83449219 23.92585938 -5.875 23.125 C-5.91818359 22.33222656 -5.96136719 21.53945313 -6.00585938 20.72265625 C-6.11152991 18.77362185 -6.21247966 16.82433252 -6.3125 14.875 C-7.281875 14.606875 -8.25125 14.33875 -9.25 14.0625 C-10.260625 13.670625 -11.27125 13.27875 -12.3125 12.875 C-12.6425 11.885 -12.9725 10.895 -13.3125 9.875 C-11.66696591 8.18106785 -10.00830608 6.51767377 -8.3125 4.875 C-7.55646484 4.14216797 -7.55646484 4.14216797 -6.78515625 3.39453125 C-2.87711683 -0.15551983 -2.87711683 -0.15551983 0 0 Z " fill="#6B8EB7" transform="translate(420.3125,460.125)"/>
<path d="M0 0 C0.99 0 1.98 0 3 0 C4.84566532 3.98393611 5.36022829 7.44376683 5.625 11.8125 C5.69976562 12.97394531 5.77453125 14.13539063 5.8515625 15.33203125 C5.90054687 16.21246094 5.94953125 17.09289062 6 18 C6.66 18 7.32 18 8 18 C8.10957031 16.95199219 8.21914063 15.90398437 8.33203125 14.82421875 C8.49150574 13.44523349 8.65169966 12.06633129 8.8125 10.6875 C8.91788086 9.65206055 8.91788086 9.65206055 9.02539062 8.59570312 C9.37673207 5.68659596 9.68655221 3.44765642 11.38671875 1.01953125 C13 0 13 0 16 0 C17.46343456 2.92686912 17.1704426 5.55453613 17.1875 8.8125 C17.20167969 10.03582031 17.21585937 11.25914062 17.23046875 12.51953125 C17.00834257 15.87401308 16.57703874 18.05300842 15 21 C11.76416108 23.20625381 9.80320182 24.01606404 5.875 23.9375 C2.5704846 22.85994063 1.14770268 21.70451449 -1 19 C-2.06385483 15.80843552 -2.16677982 13.41502524 -2.1875 10.0625 C-2.20167969 9.02222656 -2.21585937 7.98195313 -2.23046875 6.91015625 C-2.00392282 4.04953387 -1.47733619 2.42329849 0 0 Z " fill="#6C8EB6" transform="translate(317,408)"/>
<path d="M0 0 C0.99 0 1.98 0 3 0 C4.86783046 5.48675196 5.2358396 10.22192976 5 16 C6.65 16 8.3 16 10 16 C9.95875 14.845 9.9175 13.69 9.875 12.5 C9.85912567 8.05518699 10.78206895 4.26275869 12 0 C13.32 0 14.64 0 16 0 C17.49357569 2.98715138 17.22503435 6.03887936 17.25 9.3125 C17.27578125 10.62863281 17.3015625 11.94476563 17.328125 13.30078125 C16.98699849 17.14657657 16.33777312 18.97827407 14 22 C11.06812987 23.74327413 9.35094284 24.0143242 5.9375 23.875 C2.47260202 22.84290273 1.12608823 21.91352832 -1 19 C-2.44856915 13.80929386 -3.22789333 6.75920431 -0.98828125 1.7265625 C-0.66214844 1.15679687 -0.33601563 0.58703125 0 0 Z " fill="#6C8EB5" transform="translate(470,408)"/>
<path d="M0 0 C1.74965358 -0.05429959 3.49979787 -0.09292823 5.25 -0.125 C6.22453125 -0.14820313 7.1990625 -0.17140625 8.203125 -0.1953125 C11.0196498 0.00137219 12.60949036 0.55431084 15 2 C14.67 2.99 14.34 3.98 14 5 C11.69 5.33 9.38 5.66 7 6 C7 6.66 7 7.32 7 8 C8.98 8 10.96 8 13 8 C13.33 9.65 13.66 11.3 14 13 C11.69 13.33 9.38 13.66 7 14 C7 14.99 7 15.98 7 17 C9.31 17.33 11.62 17.66 14 18 C13.67 19.65 13.34 21.3 13 23 C10.15785932 23.94738023 8.32391609 24.13460559 5.375 24.125 C4.18003906 24.12886719 4.18003906 24.12886719 2.9609375 24.1328125 C1 24 1 24 0 23 C-0.08713831 21.29227642 -0.10700007 19.58101351 -0.09765625 17.87109375 C-0.09443359 16.83662109 -0.09121094 15.80214844 -0.08789062 14.73632812 C-0.07951172 13.64771484 -0.07113281 12.55910156 -0.0625 11.4375 C-0.05798828 10.34501953 -0.05347656 9.25253906 -0.04882812 8.12695312 C-0.03699826 5.41791505 -0.02051543 2.70898401 0 0 Z " fill="#6D8EB4" transform="translate(549,408)"/>
<path d="M0 0 C2.9375 2.5 2.9375 2.5 5 5 C4.67 5.66 4.34 6.32 4 7 C1.66666667 7 -0.66666667 7 -3 7 C-1.865625 7.61875 -0.73125 8.2375 0.4375 8.875 C3.875 10.75 3.875 10.75 5 13 C5.45405405 19.24324324 5.45405405 19.24324324 3.875 21.875 C1.14572304 23.51256618 -0.80705929 23.87719459 -4 24 C-7.8125 22.8125 -7.8125 22.8125 -11 21 C-11.9375 18.8125 -11.9375 18.8125 -12 17 C-8.30458414 16.04975021 -5.69541586 16.04975021 -2 17 C-2.84366614 14.75620584 -2.84366614 14.75620584 -5.375 14.0625 C-8.06284156 12.97456413 -9.37984375 12.38759869 -11 10 C-11.53520313 6.40649325 -11.44814771 4.68118452 -9.4375 1.625 C-6.02544071 -0.64970619 -4.02388226 -0.63534983 0 0 Z " fill="#6C8EB5" transform="translate(541,408)"/>
<path d="M0 0 C2.0625 1.8125 2.0625 1.8125 3 4 C2.67 4.99 2.34 5.98 2 7 C-0.76276177 6.47731534 -3.3260876 5.89130413 -6 5 C-4.06261245 7.15265284 -2.45282505 8.30641797 0.125 9.75 C3 12 3 12 4.125 15.5 C4 19 4 19 2.4375 21.375 C-0.53494783 23.35663188 -2.4307937 23.85723175 -6 24 C-9.375 23.0625 -9.375 23.0625 -12 22 C-12.33 20.35 -12.66 18.7 -13 17 C-8.94568308 15.84162374 -6.78187881 16.16308743 -3 18 C-4.74959131 16.06624118 -6.2908392 14.82975266 -8.5625 13.5 C-11 12 -11 12 -13 9 C-12.86138651 5.67327622 -12.58989219 3.70787063 -10.4375 1.125 C-6.68800301 -0.60553707 -4.12544186 -0.45838243 0 0 Z " fill="#6C8EB6" transform="translate(236,408)"/>
<path d="M0 0 C2.12493141 -0.02693575 4.24995912 -0.04636628 6.375 -0.0625 C7.55835938 -0.07410156 8.74171875 -0.08570313 9.9609375 -0.09765625 C13 0 13 0 15 1 C14.625 2.9375 14.625 2.9375 14 5 C13.01 5.495 13.01 5.495 12 6 C11.63902129 9.23510036 11.55546496 12.45061201 11.44140625 15.703125 C10.97319143 19.20023393 10.01388179 21.14297304 8 24 C5.525 23.01 5.525 23.01 3 22 C2.96132813 20.30230469 2.96132813 20.30230469 2.921875 18.5703125 C2.86560374 17.08850257 2.80825618 15.60673323 2.75 14.125 C2.73582031 13.37863281 2.72164063 12.63226563 2.70703125 11.86328125 C2.64013659 9.42861619 2.64013659 9.42861619 2 6 C0.09371218 4.39662601 0.09371218 4.39662601 -2 4 C-1.34 2.68 -0.68 1.36 0 0 Z " fill="#6C8EB6" transform="translate(451,408)"/>
<path d="M0 0 C1.28132813 0.00902344 2.56265625 0.01804687 3.8828125 0.02734375 C4.87023437 0.03894531 5.85765625 0.05054688 6.875 0.0625 C7.205 1.3825 7.535 2.7025 7.875 4.0625 C6.885 4.3925 5.895 4.7225 4.875 5.0625 C4.75382812 6.11050781 4.63265625 7.15851563 4.5078125 8.23828125 C4.33896055 9.61723886 4.16966659 10.99614239 4 12.375 C3.88205078 13.41043945 3.88205078 13.41043945 3.76171875 14.46679688 C3.31556153 18.01889471 2.89519807 20.0322029 0.875 23.0625 C-0.445 23.0625 -1.765 23.0625 -3.125 23.0625 C-4.91930352 19.47389296 -4.42110032 15.18853851 -4.55078125 11.2265625 C-5.22550026 7.50872305 -6.39289601 6.53829883 -9.125 4.0625 C-9.125 3.0725 -9.125 2.0825 -9.125 1.0625 C-6.12186252 -0.43906874 -3.33432478 -0.03031204 0 0 Z " fill="#6B8EB6" transform="translate(305.125,407.9375)"/>
<path d="M0 0 C1.28132813 0.00902344 2.56265625 0.01804687 3.8828125 0.02734375 C4.87023437 0.03894531 5.85765625 0.05054688 6.875 0.0625 C7.205 1.7125 7.535 3.3625 7.875 5.0625 C6.225 5.7225 4.575 6.3825 2.875 7.0625 C2.83761719 8.03832031 2.80023438 9.01414062 2.76171875 10.01953125 C2.69597656 11.29183594 2.63023437 12.56414062 2.5625 13.875 C2.50449219 15.13957031 2.44648438 16.40414063 2.38671875 17.70703125 C1.875 21.0625 1.875 21.0625 0.33203125 23.01171875 C-0.14878906 23.35847656 -0.62960937 23.70523437 -1.125 24.0625 C-2.58203125 23.04296875 -2.58203125 23.04296875 -4.125 21.0625 C-4.50144848 18.43310795 -4.72633087 16.01177528 -4.8125 13.375 C-4.84666016 12.67310547 -4.88082031 11.97121094 -4.91601562 11.24804688 C-4.99829947 9.52008613 -5.0633324 7.79131928 -5.125 6.0625 C-7.6 5.0725 -7.6 5.0725 -10.125 4.0625 C-9.795 3.0725 -9.465 2.0825 -9.125 1.0625 C-6.12186252 -0.43906874 -3.33432478 -0.03031204 0 0 Z " fill="#6C8EB6" transform="translate(345.125,407.9375)"/>
<path d="M0 0 C1.1653125 -0.00257813 2.330625 -0.00515625 3.53125 -0.0078125 C6.5 0.125 6.5 0.125 8.5 1.125 C8.5 2.445 8.5 3.765 8.5 5.125 C6.52 5.455 4.54 5.785 2.5 6.125 C2.54640625 7.17300781 2.5928125 8.22101563 2.640625 9.30078125 C2.67814548 10.67965901 2.71454536 12.05856758 2.75 13.4375 C2.80027344 14.47293945 2.80027344 14.47293945 2.8515625 15.52929688 C2.890625 17.55078125 2.890625 17.55078125 2.5 21.125 C0.484375 23.10546875 0.484375 23.10546875 -1.5 24.125 C-4.2456007 21.3793993 -3.86189557 19.51605698 -4.0625 15.6875 C-4.32618357 10.82175268 -4.32618357 10.82175268 -5.5 6.125 C-6.49 5.465 -7.48 4.805 -8.5 4.125 C-8.5 3.135 -8.5 2.145 -8.5 1.125 C-5.64804778 -0.30097611 -3.17538825 -0.0070252 0 0 Z " fill="#6B8EB6" transform="translate(497.5,407.875)"/>
<path d="M0 0 C3.875 0.875 3.875 0.875 5 2 C5.16387307 5.55968725 5.25496937 9.11700843 5.328125 12.6796875 C5.63762102 16.18480954 5.63762102 16.18480954 8.546875 17.7578125 C9.35640625 18.16773438 10.1659375 18.57765625 11 19 C11 19.99 11 20.98 11 22 C6.73383684 23.13764351 3.43513689 24 -1 24 C-1.02893932 20.37501666 -1.04677792 16.75006287 -1.0625 13.125 C-1.07087891 12.09246094 -1.07925781 11.05992187 -1.08789062 9.99609375 C-1.09111328 9.00996094 -1.09433594 8.02382813 -1.09765625 7.0078125 C-1.10289307 6.09660645 -1.10812988 5.18540039 -1.11352539 4.24658203 C-1 2 -1 2 0 0 Z " fill="#6C8EB6" transform="translate(568,408)"/>
</svg>
